<?xml version="1.0" encoding="UTF-8"?>
<svg width="400px" height="260px" viewBox="0 0 400 260" version="1.1" xmlns="http://www.w3.org/2000/svg" xmlns:xlink="http://www.w3.org/1999/xlink">
    <!-- Generator: Sketch 58 (84663) - https://sketch.com -->
    <title>Group</title>
    <desc>Created with Sketch.</desc>
    <g id="Page-1" stroke="none" stroke-width="1" fill="none" fill-rule="evenodd">
        <g id="Group">
            <rect id="Rectangle" fill="#F7F8F9" x="0" y="0" width="400" height="260"></rect>
            <g id="airbnb" transform="translate(54.000000, 85.000000)" fill="#CDCFD2" fill-rule="nonzero">
                <path d="M153.893285,22.8651128 C153.893285,26.1446871 151.246904,28.7854543 147.962619,28.7854543 C144.678334,28.7854543 142.033775,26.1446871 142.033775,22.8651128 C142.033775,19.5855383 144.588116,16.9447712 147.962619,16.9447712 C151.339855,17.0357693 153.893285,19.6774464 153.893285,22.8651128 L153.893285,22.8651128 Z M129.445233,34.798614 L129.445233,36.2564049 C129.445233,36.2564049 126.618415,32.6110177 120.597531,32.6110177 C110.655371,32.6110177 102.900304,40.1720566 102.900304,50.6468571 C102.900304,61.0315693 110.564242,68.6826963 120.597531,68.6826963 C126.709544,68.6826963 129.445233,64.9481311 129.445233,64.9481311 L129.445233,66.49601 C129.445233,67.2249055 129.993829,67.7699846 130.722859,67.7699846 L138.110677,67.7699846 L138.110677,33.5191797 L130.722859,33.5191797 C129.993829,33.5219096 129.445233,34.1607168 129.445233,34.798614 L129.445233,34.798614 Z M129.445233,56.7501051 C128.0783,58.7547949 125.340789,60.4855803 122.057415,60.4855803 C116.2197,60.4855803 111.748917,56.8420132 111.748917,50.6468571 C111.748917,44.452611 116.2197,40.8090438 122.057415,40.8090438 C125.250571,40.8090438 128.169429,42.6308273 129.445233,44.5436091 L129.445233,56.7501051 Z M143.584788,33.5219096 L152.341362,33.5219096 L152.341362,67.7727146 L143.584788,67.7727146 L143.584788,33.5219096 L143.584788,33.5219096 Z M274.395725,32.6101078 C268.374841,32.6101078 265.5462,36.2554949 265.5462,36.2554949 L265.5462,17.0357693 L256.789627,17.0357693 L256.789627,67.7727146 L264.179267,67.7727146 C264.909209,67.7727146 265.455072,67.1348173 265.455072,66.4969201 L265.455072,64.9490411 C265.455072,64.9490411 268.283712,68.6836063 274.302773,68.6836063 C284.246756,68.6836063 292,61.0342994 292,50.649587 C292,40.2648748 284.246756,32.6101078 274.395725,32.6101078 L274.395725,32.6101078 Z M272.93584,60.3936722 C269.559515,60.3936722 266.914956,58.6647067 265.5462,56.6591068 L265.5462,44.452611 C266.914956,42.6308273 269.833813,40.7180456 272.93584,40.7180456 C278.773555,40.7180456 283.243427,44.3616127 283.243427,50.5558588 C283.243427,56.7501051 278.774467,60.3936722 272.93584,60.3936722 Z M252.229538,47.4601007 L252.229538,67.8637127 L243.471142,67.8637127 L243.471142,48.4610808 C243.471142,42.8146437 241.646743,40.5360492 236.723961,40.5360492 C234.079401,40.5360492 231.34189,41.902842 229.605886,43.9075319 L229.605886,67.7736246 L220.851134,67.7736246 L220.851134,33.5228195 L227.781485,33.5228195 C228.511428,33.5228195 229.059112,34.1607168 229.059112,34.798614 L229.059112,36.2564049 C231.613454,33.6138177 234.987956,32.6110177 238.362458,32.6110177 C242.194427,32.6110177 245.387583,33.7057259 247.941925,35.8915021 C251.042129,38.4421811 252.229538,41.7208456 252.229538,47.4601007 L252.229538,47.4601007 Z M199.593503,32.6101078 C193.574441,32.6101078 190.745801,36.2554949 190.745801,36.2554949 L190.745801,17.0357693 L181.989227,17.0357693 L181.989227,67.7727146 L189.377046,67.7727146 C190.106987,67.7727146 190.654672,67.1348173 190.654672,66.4969201 L190.654672,64.9490411 C190.654672,64.9490411 193.483312,68.6836063 199.502374,68.6836063 C209.446356,68.6836063 217.1996,61.0342994 217.1996,50.649587 C217.290729,40.2639647 209.537485,32.6101078 199.593503,32.6101078 L199.593503,32.6101078 Z M198.133619,60.3936722 C194.759116,60.3936722 192.114557,58.6647067 190.745801,56.6591068 L190.745801,44.452611 C192.114557,42.6308273 195.033415,40.7180456 198.133619,40.7180456 C203.973157,40.7180456 208.442116,44.3616127 208.442116,50.5558588 C208.442116,56.7501051 203.973157,60.3936722 198.133619,60.3936722 Z M174.41733,32.6101078 C177.06189,32.6101078 178.430645,33.0669186 178.430645,33.0669186 L178.430645,41.1730366 C178.430645,41.1730366 171.133046,38.7133557 166.572957,43.9066219 L166.572957,67.8628028 L157.814561,67.8628028 L157.814561,33.5219096 L165.204202,33.5219096 C165.934143,33.5219096 166.480006,34.1598069 166.480006,34.797704 L166.480006,36.2554949 C168.12397,34.3418031 171.681641,32.6101078 174.41733,32.6101078 L174.41733,32.6101078 Z M83.4716288,64.6751364 C83.0159845,63.5822483 82.5594289,62.3983621 82.1037845,61.3955621 C81.3729309,59.7566848 80.6429887,58.2069858 80.0059979,56.7501051 L79.9148691,56.6591068 C73.6196867,42.9948201 66.8706826,29.150357 59.7544291,15.4878903 L59.4810425,14.9400812 C58.7325743,13.5227573 58.003174,12.0954741 57.2930384,10.6586168 C56.379927,9.01791965 55.4686384,7.28895422 54.0087539,5.64825703 C51.0898962,2.00468991 46.8934116,0 42.4244519,0 C37.8625406,0 33.7580963,2.00468991 30.7490211,5.46535069 C29.3802654,7.10422792 28.3760252,8.8350133 27.4647366,10.4757105 C26.7528026,11.9116658 26.023414,13.3389261 25.2767323,14.7571749 L25.0024345,15.3049839 C17.9782212,28.9674506 11.1371769,42.8128237 4.84290585,56.4762004 L4.7508657,56.6572869 C4.11296361,58.1168977 3.38211006,59.6647767 2.65216781,61.3027439 C2.19652346,62.3055439 1.74087911,63.398432 1.28523477,64.5823184 C0.0987368735,67.951981 -0.266689896,71.1405571 0.190777032,74.4210415 C1.19410589,81.2531849 5.75419456,86.9897102 12.0493769,89.5422091 C14.4214614,90.5450091 16.8846748,91 19.4381057,91 C20.1680479,91 21.0793366,90.9090019 21.8101902,90.8170936 C24.8210881,90.453101 27.9222035,89.452121 30.9331014,87.7213355 C34.6730302,85.6256475 38.2307013,82.6208876 42.2440167,78.248425 C46.2573322,82.6208876 49.9061321,85.6256475 53.554932,87.7213355 C56.5667412,89.452121 59.6669454,90.453101 62.676932,90.8170936 C63.4068743,90.9099118 64.3199855,91 65.0499277,91 C67.60427,91 70.1577009,90.5450091 72.4377453,89.5422091 C78.8240565,86.9897102 83.2930162,81.1621868 84.2972564,74.4210415 C85.0217309,71.2333753 84.6572154,68.0466191 83.4716288,64.6751364 L83.4716288,64.6751364 Z M42.3324117,69.4115918 C37.405985,63.2173457 34.2128294,57.3880022 33.119283,52.4704606 C32.6636386,50.3747725 32.5715984,48.552989 32.8458964,46.9132017 C33.0272428,45.4554109 33.5758385,44.1796165 34.3057808,43.0867282 C36.0390519,40.6288674 38.9579096,39.0791685 42.3333231,39.0791685 C45.7096477,39.0791685 48.7196343,40.5369592 50.3617765,43.0867282 C51.0917187,44.1796165 51.638492,45.4563209 51.8225723,46.9132017 C52.0950476,48.5538989 52.0039187,50.4657707 51.5482744,52.4704606 C50.4501715,57.2970041 47.2570159,63.1272575 42.3324117,69.4115918 Z M78.7274599,73.6930562 C78.0895578,78.4295114 74.8964022,82.5298894 70.4274424,84.3516729 C68.2385269,85.2616548 65.8655312,85.5355593 63.4952693,85.2616548 C61.2152249,84.9877503 58.933358,84.2588549 56.5630961,82.8938822 C53.2788116,81.0702786 49.9954384,78.248425 46.1634694,74.0570489 C52.1834426,66.6798264 55.8322426,59.9377713 57.2009981,53.9273415 C57.8398116,51.102758 57.9318517,48.552989 57.6566425,46.1833963 C57.2930384,43.9066219 56.4710559,41.8109338 55.1943405,39.9891502 C52.364789,35.8887722 47.6206201,33.5219096 42.3315004,33.5219096 C37.0423808,33.5219096 32.2982118,35.9815904 29.4704829,39.9891502 C28.1937676,41.8109338 27.3717851,43.9066219 27.0072697,46.1833963 C26.6427541,48.552989 26.7329718,51.1937561 27.462914,53.9273415 C28.8307584,59.9377713 32.5706871,66.7699147 38.4995314,74.148047 C34.7596026,78.3385133 31.3841893,81.1630968 28.0999048,82.9848803 C25.7278204,84.3516729 23.4486873,85.0805684 21.1686429,85.3526529 C18.7063409,85.6265574 16.3333451,85.2616548 14.2355585,84.4426712 C9.7665987,82.6208876 6.57344309,78.5205095 5.935541,73.7840543 C5.66215439,71.5072798 5.84350085,69.2305054 6.75661212,66.6798264 C7.02908745,65.7680247 7.48655437,64.8580428 7.94219872,63.7651547 C8.5810121,62.3073638 9.30913178,60.7576648 10.0399853,59.2097858 L10.1320255,59.0286995 C16.4253853,45.4554109 23.1753007,31.6100378 30.1995139,18.1295674 L30.4729005,17.5817584 C31.2037541,16.2167857 31.9336964,14.7589948 32.6627273,13.3922022 C33.3926696,11.9344113 34.2128294,10.5676186 35.2170696,9.38282235 C37.1325984,7.19886602 39.6860293,6.01315974 42.5146694,6.01315974 C45.3433096,6.01315974 47.8967405,7.19886602 49.8122694,9.38282235 C50.8165096,10.5703486 51.6366694,11.9371412 52.3666117,13.3922022 C53.0974652,14.7589948 53.8274074,16.2167857 54.5555271,17.5817584 L54.829825,18.1295674 C61.7469273,31.6660486 68.407207,45.3318657 74.8070959,59.1196976 L74.8070959,59.2106958 C75.5379494,60.6703066 76.1758515,62.3082738 76.9057937,63.7678846 C77.3614381,64.8589528 77.8179938,65.7689346 78.0913804,66.6807363 C78.8195,69.046689 79.0928866,71.3252834 78.7274599,73.6930562 L78.7274599,73.6930562 Z" id="Shape"></path>
            </g>
        </g>
    </g>
</svg>