<?xml version="1.0" encoding="UTF-8"?>
<svg width="400px" height="260px" viewBox="0 0 400 260" version="1.1" xmlns="http://www.w3.org/2000/svg" xmlns:xlink="http://www.w3.org/1999/xlink">
    <!-- Generator: Sketch 58 (84663) - https://sketch.com -->
    <title>Group</title>
    <desc>Created with Sketch.</desc>
    <g id="Page-1" stroke="none" stroke-width="1" fill="none" fill-rule="evenodd">
        <g id="Group">
            <rect id="Rectangle" fill="#F7F8F9" x="0" y="0" width="400" height="260"></rect>
            <g id="amazon-2" transform="translate(54.000000, 98.000000)" fill="#CDCFD2" fill-rule="nonzero">
                <path d="M180.760047,68.7145193 C163.764211,81.2964907 139.042993,88 117.720944,88 C87.849474,88 61.0681559,76.9649924 40.6731523,58.6076899 C39.1280762,57.1638571 40.4671421,55.2043699 42.4242384,56.3388098 C64.3643182,69.127043 91.4546514,76.7587306 119.47203,76.7587306 C138.321958,76.7587306 159.128982,72.8397559 178.287925,64.6924138 C181.172067,63.5579737 183.541184,66.6519012 180.760047,68.7145193 Z" id="Path"></path>
                <path d="M188.154432,60.4286962 C186.005967,57.714616 173.831332,59.1219168 168.409015,59.8255673 C166.772089,60.0266102 166.465165,58.6193094 167.999783,57.6140945 C177.71903,50.8791549 193.576749,52.8895847 195.418292,55.1010574 C197.259833,57.31253 194.906752,72.9938819 185.801352,80.4324719 C184.369041,81.5382083 183.039039,80.9350794 183.652886,79.4272571 C185.699044,74.4011827 190.302898,63.2432977 188.154432,60.4286962 Z" id="Path"></path>
                <path d="M168.745264,9.64102564 L168.745264,2.97435898 C168.745264,1.94871794 169.462457,1.33333334 170.384561,1.33333334 L200.096843,1.33333334 C201.018948,1.33333334 201.838597,2.05128205 201.838597,2.97435898 L201.838597,8.61538462 C201.838597,9.53846155 201.018948,10.7692308 199.584561,12.8205128 L184.216141,34.7692308 C189.953684,34.6666667 195.998597,35.4871795 201.121404,38.3589743 C202.248421,38.9743589 202.55579,40 202.658246,40.9230769 L202.658246,48 C202.658246,49.0256411 201.633684,50.1538461 200.506667,49.5384616 C191.388071,44.7179487 179.19579,44.2051282 169.155088,49.6410256 C168.130527,50.1538461 167.00351,49.1282052 167.00351,48.1025641 L167.00351,41.3333333 C167.00351,40.3076923 167.00351,38.4615384 168.130527,36.8205129 L185.957895,11.2820513 L170.487018,11.2820513 C169.564913,11.2820513 168.745264,10.5641026 168.745264,9.64102564 L168.745264,9.64102564 Z M60.449123,50.974359 L51.4329825,50.974359 C50.6133334,50.8717948 49.8961404,50.2564102 49.7936843,49.4358975 L49.7936843,3.07692308 C49.7936843,2.15384615 50.6133334,1.43589743 51.5354387,1.43589743 L59.9368423,1.43589743 C60.8589474,1.43589743 61.4736843,2.15384615 61.5761404,2.97435898 L61.5761404,9.02564102 L61.7810527,9.02564102 C63.9326317,3.17948718 68.1333334,0.41025641 73.665965,0.41025641 C79.3010527,0.41025641 82.8870177,3.17948718 85.345965,9.02564102 C87.497544,3.17948718 92.5178949,0.41025641 97.8456142,0.41025641 C101.636491,0.41025641 105.734737,1.94871794 108.296141,5.53846154 C111.164913,9.43589744 110.550176,15.076923 110.550176,20.1025642 L110.550176,49.4358975 C110.550176,50.3589743 109.730527,51.0769231 108.808421,51.0769231 L99.8947371,51.0769231 C98.9726318,50.974359 98.2554388,50.2564102 98.2554388,49.4358975 L98.2554388,24.8205129 C98.2554388,22.8717949 98.4603511,17.948718 98.0505265,16.1025641 C97.3333335,13.0256411 95.3866669,12.1025641 92.7228072,12.1025641 C90.5712282,12.1025641 88.214737,13.5384616 87.2926318,15.8974359 C86.3705265,18.2564103 86.4729826,22.1538461 86.4729826,24.8205129 L86.4729826,49.4358975 C86.4729826,50.3589743 85.6533335,51.0769231 84.7312282,51.0769231 L75.7150879,51.0769231 C74.7929826,50.974359 74.0757896,50.2564102 74.0757896,49.4358975 L74.0757896,24.8205129 C74.0757896,19.6923077 74.8954387,12 68.543158,12 C62.0884211,12 62.2933334,19.3846154 62.2933334,24.8205129 L62.2933334,49.4358975 C62.1908773,50.2564102 61.4736843,50.974359 60.449123,50.974359 L60.449123,50.974359 Z M227.452632,0.41025641 C240.874387,0.41025641 248.148773,11.8974359 248.148773,26.5641025 C248.148773,40.7179487 240.157194,52 227.452632,52 C214.338246,52 207.166317,40.5128205 207.166317,26.1538462 C207.06386,11.6923077 214.338246,0.41025641 227.452632,0.41025641 Z M227.452632,9.94871795 C220.792983,9.94871795 220.382995,19.0769231 220.382995,24.7179488 C220.382995,30.3589744 220.280703,42.4615385 227.350176,42.4615385 C234.317194,42.4615385 234.727018,32.7179487 234.727018,26.7692307 C234.727018,22.8717949 234.522106,18.1538462 233.395088,14.4615385 C232.370527,11.1794872 230.321404,9.94871795 227.452632,9.94871795 Z M140.262457,0 C144.668071,0 150.405614,1.12820513 153.889123,4.51282051 C158.294737,8.61538462 157.884912,14.1538462 157.884912,20.1025642 L157.884912,34.1538461 C157.884912,38.3589743 159.626667,40.2051282 161.265965,42.5641026 C161.880702,43.3846154 161.983158,44.4102564 161.265965,44.9230769 C159.319298,46.4615385 156.040702,49.3333334 154.196491,50.8717948 C153.581755,51.3846154 152.762105,51.4871795 152.044912,51.0769231 C149.073684,48.6153847 148.458948,47.3846154 146.81965,45.025641 C141.901755,50.051282 138.31579,51.5897436 131.963509,51.5897436 C124.381755,51.5897436 118.439298,46.8717949 118.439298,37.5384616 C118.439298,30.1538462 122.435088,25.2307693 128.070175,22.7692308 C132.988071,20.6153846 139.852632,20.2051283 145.077895,19.5897436 L145.077895,18.4615385 C145.077895,16.3076923 145.282807,13.7435898 143.950878,11.8974359 C142.82386,10.2564103 140.774737,9.53846155 138.930527,9.53846155 C135.447018,9.53846155 132.373334,11.2820513 131.656141,14.9743589 C131.451228,15.7948718 130.938948,16.6153846 130.119298,16.6153846 L121.410527,15.6923077 C120.693334,15.4871795 119.873684,14.9743589 120.078597,13.8461539 C122.12772,3.17948718 131.656141,0 140.262457,0 Z M21.8231579,0 C26.2287719,0 31.9663158,1.12820513 35.4498246,4.51282051 C39.8554387,8.61538462 39.4456141,14.1538462 39.4456141,20.1025642 L39.4456141,34.1538461 C39.4456141,38.3589743 41.1873685,40.2051282 42.8266668,42.5641026 C43.4414035,43.3846154 43.5438597,44.4102564 42.8266668,44.9230769 C40.8800001,46.4615385 37.6014035,49.3333334 35.7571931,50.8717948 C35.1424562,51.3846154 34.3228071,51.4871795 33.6056141,51.0769231 C30.6343861,48.6153847 30.0196492,47.3846154 28.3803509,45.025641 C23.4624562,50.051282 19.8764913,51.5897436 13.5242106,51.5897436 C5.94245615,51.5897436 0,46.8717949 0,37.5384616 C0,30.1538462 3.99578948,25.2307693 9.63087722,22.7692308 C14.5487719,20.6153846 21.4133333,20.2051283 26.6385965,19.5897436 L26.6385965,18.4615385 C26.6385965,16.3076923 26.8435088,13.7435898 25.5115791,11.8974359 C24.3845615,10.2564103 22.3354386,9.53846155 20.4912281,9.53846155 C17.0077193,9.53846155 13.9340352,11.2820513 13.2168422,14.9743589 C13.0119299,15.7948718 12.4996492,16.6153846 11.68,16.6153846 L2.97122808,15.6923077 C2.25403509,15.4871795 1.43438597,14.9743589 1.63929825,13.8461539 C3.68842106,3.17948718 13.2168422,0 21.8231579,0 Z M279.090527,0.41025641 C283.086317,0.41025641 287.082106,1.84615385 289.64351,5.84615385 C292,9.53846155 292,15.7948718 292,20.3076924 L292,49.5384616 C291.897544,50.3589743 291.180351,50.974359 290.258246,50.974359 L281.242106,50.974359 C280.422457,50.8717948 279.705264,50.2564102 279.602807,49.5384616 L279.602807,24.3076923 C279.602807,19.1794872 280.217544,11.7948718 273.96772,11.7948718 C271.816141,11.7948718 269.767018,13.2307693 268.742457,15.4871795 C267.512983,18.3589744 267.308071,21.1282051 267.308071,24.3076923 L267.308071,49.3333334 C267.205614,50.2564102 266.385966,50.974359 265.46386,50.974359 L256.44772,50.974359 C255.525614,50.8717948 254.808421,50.1538461 254.808421,49.3333334 L254.808421,2.87179487 C254.910878,2.05128205 255.628071,1.33333334 256.550176,1.33333334 L264.95158,1.33333334 C265.771228,1.33333334 266.385966,1.94871794 266.590878,2.66666666 L266.590878,9.74358974 L266.79579,9.74358974 C269.357194,3.38461538 272.840703,0.41025641 279.090527,0.41025641 Z M145.077895,26.8717948 C138.520702,26.8717948 131.656141,28.3076923 131.656141,36 C131.656141,39.8974359 133.705264,42.5641026 137.188772,42.5641026 C139.750175,42.5641026 142.004211,41.025641 143.438597,38.4615384 C145.162934,35.3138462 145.079759,32.3672 145.077923,28.9249751 L145.077895,26.8717948 Z M26.7410526,26.8717948 C20.1838596,26.8717948 13.3192983,28.3076923 13.3192983,36 C13.3192983,39.8974359 15.3684211,42.5641026 18.8519299,42.5641026 C21.4133333,42.5641026 23.6673685,41.025641 25.1017545,38.4615384 C26.8435088,35.2820513 26.7410526,32.3076923 26.7410526,28.8205128 L26.7410526,26.8717948 Z" id="Shape"></path>
            </g>
        </g>
    </g>
</svg>