<?xml version="1.0" encoding="UTF-8"?>
<svg width="400px" height="260px" viewBox="0 0 400 260" version="1.1" xmlns="http://www.w3.org/2000/svg" xmlns:xlink="http://www.w3.org/1999/xlink">
    <!-- Generator: Sketch 58 (84663) - https://sketch.com -->
    <title>Group</title>
    <desc>Created with Sketch.</desc>
    <g id="Page-1" stroke="none" stroke-width="1" fill="none" fill-rule="evenodd">
        <g id="Group">
            <rect id="Rectangle" fill="#F7F8F9" x="0" y="0" width="400" height="260"></rect>
            <g id="careem" transform="translate(54.000000, 100.000000)" fill="#CDCFD2" fill-rule="nonzero">
                <path d="M63.593522,25.5884664 C67.9530536,18.4058784 77.5996769,15.0981076 85.2984242,18.4058784 C87.71008,19.3509558 89.3796879,21.3356182 90.7710277,23.5092961 C90.6782717,21.8081569 90.6782717,20.1070177 90.6782717,18.3113706 L99.953871,18.3113706 C100.139383,31.825977 99.582847,45.3405834 100.324895,58.8551899 L91.2348078,58.8551899 C91.1420517,56.9650351 91.0492957,55.1693881 90.9565397,53.2792333 C86.2259841,61.8794374 73.8894371,61.5959142 67.2110057,55.7364345 C58.9557224,48.364831 57.8426505,34.7557169 63.593522,25.5884664 M77.6924328,25.7774819 C69.1588816,27.9511598 67.6747857,39.6701192 71.5705374,46.4746763 C74.5387291,52.0506328 82.8867684,53.1847257 87.1535441,48.5538465 C91.4203198,44.0174752 91.7913437,36.6458717 89.2869319,31.0699151 C87.3390561,26.7225593 82.1447205,24.643389 77.6924328,25.7774819 Z M147.352183,21.2411104 C154.123371,15.5706462 164.604798,15.665154 171.561497,21.0520949 C177.405124,25.7774819 178.981977,33.9051472 178.42544,41.0877352 C168.686061,41.182243 158.853926,41.0877352 149.114547,41.0877352 C149.578327,45.0570602 151.711714,49.1208929 155.514711,50.6330168 C160.987314,53.3737411 168.222281,50.7275245 170.170157,44.6790293 C172.860081,45.5295989 175.457248,46.3801686 178.147172,47.1362305 C176.663076,51.2945709 173.973153,55.1693881 170.077401,57.3430661 C162.47141,61.7849297 151.897226,60.4618214 145.682575,54.0352953 C137.149024,45.3405834 137.798316,28.9907449 147.352183,21.2411104 M151.711714,28.5182062 C150.320374,30.0303301 149.856595,32.1095002 149.300059,33.999655 C155.885735,33.999655 162.564166,34.1886705 169.149841,33.8106395 C168.500549,31.3534383 167.758501,28.7072217 165.625114,27.1005901 C161.636606,24.0763426 155.050931,24.4543735 151.711714,28.5182062 L151.711714,28.5182062 Z M192.617107,20.8630795 C199.01727,15.8541695 208.385626,15.8541695 215.156813,20.1070177 C221.835245,24.5488812 224.061388,33.4326085 223.133829,41.0877352 C213.39445,40.9932275 203.655071,41.0877352 193.915691,41.0877352 C194.379471,43.4504287 194.936007,45.9076298 196.512859,47.7032768 C200.037586,52.1451405 207.087042,52.9957102 211.53933,49.5934316 C213.208938,48.364831 213.950986,46.2856608 215.156813,44.773537 C217.753981,45.4350912 220.351149,46.3801686 222.948317,47.2307382 C221.464221,51.4835864 218.681541,55.3584036 214.693034,57.5320815 C207.179798,61.6904219 196.976639,60.5563292 190.854743,54.4133262 C181.764657,45.6241067 182.506705,28.5182062 192.617107,20.8630795 M196.327347,28.6127139 C195.028763,30.1248377 194.564983,32.1095002 194.008447,33.999655 L213.765474,33.999655 C213.301694,31.6369616 212.652402,29.0852527 210.704526,27.3841134 C206.716019,23.9818348 199.759318,24.2653581 196.327347,28.6127139 Z M241.314003,23.225773 C246.601095,14.9090921 260.60725,15.0035998 265.059537,24.0763426 C269.326313,16.6102313 279.993252,14.9090921 286.671684,19.9180022 C290.289167,22.7532342 291.958775,27.4786211 291.958775,32.0149925 C292.051531,40.8987197 291.958775,49.7824471 291.958775,58.6661744 L282.775932,58.6661744 L282.775932,34.7557169 C282.775932,32.2985157 282.404908,29.6522991 280.7353,27.856652 C277.210573,24.2653581 270.439385,25.2104354 268.120485,29.7468068 C266.914657,31.825977 266.914657,34.3776859 266.914657,36.6458717 L266.914657,58.6661744 L257.639058,58.6661744 C257.546302,50.0659703 257.731814,41.4657662 257.546302,32.9600699 C257.546302,29.1797604 254.485355,25.6829741 250.682358,25.7774819 C246.230071,25.1159277 242.056051,28.8017294 241.777783,33.2435931 C241.499515,41.7492894 241.777783,50.2549858 241.685027,58.6661744 L232.316672,58.6661744 L232.316672,18.1223551 L241.406759,18.1223551 C241.406759,19.9180022 241.406759,21.6191414 241.314003,23.225773 L241.314003,23.225773 Z M112.01215,18.2168629 L121.287749,18.2168629 C121.287749,20.296033 121.194993,22.4697111 121.194993,24.5488812 C123.792161,19.256448 129.821301,17.08277 135.293904,17.8388319 L135.293904,27.7621443 C132.047445,27.6676365 128.42996,27.2896056 125.647281,29.3687758 C122.679089,31.3534383 121.658773,35.2282555 121.566017,38.6305341 C121.473261,45.3405834 121.566017,52.0506328 121.473261,58.7606821 L112.01215,58.7606821 L112.01215,18.2168629 L112.01215,18.2168629 Z" id="Shape"></path>
                <g id="_x23_3cb54eff">
                    <path d="M35.1128787,0 C41.3038336,1.02436626 47.1251793,4.46996186 50.8212717,9.59179315 C51.5604902,10.6161594 52.2997087,11.7336499 52.8541227,12.9442645 C50.4516626,14.6205002 48.0492023,16.2036117 45.7391445,17.8798474 C45.3695353,18.1592201 45.0923284,18.3454684 44.6303169,18.5317168 C43.5214891,15.7379907 41.5810406,13.2236372 39.0861781,11.5474015 C37.2381319,10.3367868 35.1128787,9.49866894 32.9876255,9.03304792 C33.6344416,6.05307335 34.3736601,3.07309877 35.1128787,0 L35.1128787,0 Z M12.7515191,2.70060196 C15.6159908,1.7693599 18.9424741,3.25934719 20.1437041,5.95994914 C21.1601295,8.00868166 20.8829226,10.7092836 19.4968879,12.4786436 C17.741244,14.7136245 14.4147607,15.5517423 11.9198983,14.2480034 C10.2566567,13.4098856 8.96302429,11.826774 8.59341505,9.96428998 C8.3162081,8.56742689 8.40861042,7.07743961 9.14782892,5.77370073 C9.88704742,4.28371344 11.2730821,3.25934719 12.7515191,2.70060196 Z M0,34.455956 C3.41888556,34.3628318 6.74536879,34.455956 10.1642543,34.455956 C10.8110705,38.1809242 12.3819099,41.719644 14.8767723,44.5133701 C16.8172208,46.7483511 19.3120833,48.3314626 21.9917503,49.3558288 C25.6878428,50.752692 29.7535445,50.9389403 33.6344416,50.0076983 C37.1457295,49.1695805 40.2874081,47.2139721 42.5974659,44.3271218 C44.1683052,42.3715134 45.3695353,40.1365325 46.0163515,37.7153032 C49.0656278,38.5534211 51.9300995,39.6709114 54.9793758,40.6021535 C54.8869735,41.5333956 54.5173642,42.4646377 54.147755,43.3958797 C52.1149041,48.7039594 48.3264093,53.2670455 43.4290867,56.1538958 C40.2874081,58.01638 36.683718,59.2269946 33.0800278,59.6926157 C25.9650498,60.6238577 18.4804624,59.1338704 12.4743122,55.1295295 C9.24023123,52.9876729 6.37575955,50.1008224 4.34290867,46.7483511 C1.94044856,43.2096313 0.554413873,38.9259178 0,34.455956 Z" id="Shape"></path>
                </g>
            </g>
        </g>
    </g>
</svg>