<?xml version="1.0" encoding="UTF-8"?>
<svg width="488px" height="512px" viewBox="0 0 488 512" version="1.1" xmlns="http://www.w3.org/2000/svg" xmlns:xlink="http://www.w3.org/1999/xlink">
    <!-- Generator: Sketch 58 (84663) - https://sketch.com -->
    <title>008-application</title>
    <desc>Created with Sketch.</desc>
    <g id="Page-1" stroke="none" stroke-width="1" fill="none" fill-rule="evenodd">
        <g id="008-application" fill="#98D2C3" fill-rule="nonzero">
            <path d="M199.67,316.199 C213.284,303.157 221.786,284.821 221.786,264.524 L221.786,225.41 C227.971,217.279 231.653,207.144 231.653,196.162 L231.653,155.263 C231.653,149.74 227.176,145.263 221.653,145.263 L139.238,145.263 C105.795,145.263 78.586,172.471 78.586,205.915 L78.586,264.524 C78.586,284.82 87.089,303.157 100.702,316.199 C44.955,318.178 0.213,364.138 0.213,420.359 L0.213,502 C0.213,507.523 4.69,512 10.213,512 L290.159,512 C295.682,512 300.159,507.523 300.159,502 L300.159,420.359 C300.159,364.139 255.417,318.179 199.67,316.199 Z M139.239,165.264 L211.654,165.264 L211.654,196.163 C211.654,211.829 198.909,224.574 183.244,224.574 L98.587,224.574 L98.587,223.257 L98.587,205.916 L98.587,205.916 C98.587,183.5 116.823,165.264 139.239,165.264 Z M98.587,264.525 L98.587,244.573 L183.243,244.573 C189.809,244.573 196.072,243.253 201.786,240.874 L201.786,264.525 C201.786,292.978 178.639,316.125 150.186,316.125 C121.733,316.125 98.587,292.978 98.587,264.525 Z M190.747,336.125 L151.653,402.385 L112.559,336.125 L190.747,336.125 Z M280.16,492 L280.16,492 L257.653,492 L257.653,422.064 C257.653,416.541 253.176,412.064 247.653,412.064 C242.13,412.064 237.653,416.541 237.653,422.064 L237.653,492 L65.653,492 L65.653,422.064 C65.653,416.541 61.176,412.064 55.653,412.064 C50.13,412.064 45.653,416.541 45.653,422.064 L45.653,492 L20.214,492 L20.214,420.359 C20.214,378.813 50.456,344.22 90.076,337.377 L143.04,427.146 C144.838,430.194 148.114,432.064 151.653,432.064 C155.192,432.064 158.467,430.193 160.266,427.146 L212.949,337.856 C251.263,345.75 280.16,379.744 280.16,420.36 L280.16,492 Z" id="Shape"></path>
            <path d="M437.786,0 L381.237,0 C375.714,0 371.237,4.477 371.237,10 C371.237,15.523 375.714,20 381.237,20 L437.786,20 C454.328,20 467.786,33.458 467.786,50 L467.786,183.973 C467.786,200.515 454.328,213.973 437.786,213.973 L401.331,213.973 C398.68,213.973 396.137,215.026 394.262,216.9 L347.023,264.116 L347.023,223.972 C347.023,218.449 342.546,213.972 337.023,213.972 L251.786,213.972 C246.263,213.972 241.786,218.449 241.786,223.972 C241.786,229.495 246.263,233.972 251.786,233.972 L327.023,233.972 L327.023,288.249 C327.023,292.293 329.459,295.939 333.195,297.487 C334.433,298 335.732,298.249 337.021,298.249 C339.623,298.249 342.18,297.233 344.093,295.321 L405.473,233.971 L437.787,233.971 C465.357,233.971 487.787,211.541 487.787,183.971 L487.787,50 C487.787,22.43 465.357,0 437.786,0 Z" id="Path"></path>
            <path d="M351.856,2.93 C349.996,1.07 347.416,0 344.786,0 C342.156,0 339.576,1.07 337.716,2.93 C335.856,4.79 334.786,7.37 334.786,10 C334.786,12.63 335.856,15.21 337.716,17.07 C339.576,18.93 342.156,20 344.786,20 C347.416,20 349.996,18.93 351.856,17.07 C353.716,15.21 354.786,12.63 354.786,10 C354.786,7.37 353.716,4.79 351.856,2.93 Z" id="Path"></path>
            <path d="M308.236,0 L251.786,0 C224.216,0 201.786,22.43 201.786,50 L201.786,105.477 C201.786,111 206.263,115.477 211.786,115.477 C217.309,115.477 221.786,111 221.786,105.477 L221.786,50 C221.786,33.458 235.244,20 251.786,20 L308.236,20 C313.759,20 318.236,15.523 318.236,10 C318.236,4.477 313.759,0 308.236,0 Z" id="Path"></path>
            <path d="M214.153,427.086 L200.153,427.086 C194.63,427.086 190.153,431.563 190.153,437.086 C190.153,442.609 194.63,447.086 200.153,447.086 L214.153,447.086 C219.676,447.086 224.153,442.609 224.153,437.086 C224.153,431.563 219.676,427.086 214.153,427.086 Z" id="Path"></path>
            <path d="M133.586,261.57 C131.726,259.71 129.156,258.64 126.516,258.64 C123.886,258.64 121.306,259.71 119.446,261.57 C117.586,263.43 116.516,266.01 116.516,268.64 C116.516,271.27 117.586,273.85 119.446,275.71 C121.306,277.57 123.886,278.64 126.516,278.64 C129.156,278.64 131.726,277.57 133.586,275.71 C135.456,273.85 136.516,271.27 136.516,268.64 C136.516,266.01 135.456,263.43 133.586,261.57 Z" id="Path"></path>
            <path d="M180.926,261.57 C179.066,259.71 176.486,258.64 173.856,258.64 C171.216,258.64 168.646,259.71 166.786,261.57 C164.916,263.43 163.856,266 163.856,268.64 C163.856,271.27 164.916,273.85 166.786,275.71 C168.646,277.57 171.226,278.64 173.856,278.64 C176.486,278.64 179.066,277.57 180.926,275.71 C182.786,273.85 183.856,271.27 183.856,268.64 C183.856,266.01 182.786,263.43 180.926,261.57 Z" id="Path"></path>
            <path d="M381.709,89.494 C380.447,71.19 365.692,56.436 347.388,55.174 C337.012,54.456 327.114,57.961 319.534,65.036 C312.061,72.012 307.774,81.876 307.774,92.097 C307.774,97.62 312.251,102.097 317.774,102.097 C323.297,102.097 327.774,97.62 327.774,92.097 C327.774,87.33 329.694,82.911 333.182,79.656 C336.665,76.405 341.215,74.8 346.013,75.126 C354.409,75.705 361.178,82.473 361.757,90.87 C362.342,99.355 356.778,106.853 348.526,108.699 C340.436,110.51 334.786,117.542 334.786,125.801 L334.786,145.871 C334.786,151.394 339.263,155.871 344.786,155.871 C350.309,155.871 354.786,151.394 354.786,145.871 L354.786,127.742 C371.704,123.037 382.933,107.258 381.709,89.494 Z" id="Path"></path>
            <path d="M351.856,171.84 C349.996,169.98 347.416,168.92 344.786,168.92 C342.156,168.92 339.576,169.98 337.716,171.84 C335.856,173.71 334.786,176.28 334.786,178.92 C334.786,181.55 335.856,184.13 337.716,185.99 C339.576,187.85 342.156,188.92 344.786,188.92 C347.416,188.92 349.996,187.85 351.856,185.99 C353.716,184.13 354.786,181.55 354.786,178.92 C354.786,176.28 353.716,173.71 351.856,171.84 Z" id="Path"></path>
        </g>
    </g>
</svg>