<?xml version="1.0" encoding="UTF-8"?>
<svg width="400px" height="260px" viewBox="0 0 400 260" version="1.1" xmlns="http://www.w3.org/2000/svg" xmlns:xlink="http://www.w3.org/1999/xlink">
    <!-- Generator: Sketch 58 (84663) - https://sketch.com -->
    <title>Group</title>
    <desc>Created with Sketch.</desc>
    <g id="Page-1" stroke="none" stroke-width="1" fill="none" fill-rule="evenodd">
        <g id="Group">
            <rect id="Rectangle" fill="#F7F8F9" x="0" y="0" width="400" height="260"></rect>
            <g id="dji-1" transform="translate(81.000000, 61.000000)" fill="#CDCFD2" fill-rule="nonzero">
                <path d="M201.636993,27.3144828 L238,27.3144828 L219.96017,104.404138 L183.644388,104.404138 L201.636993,27.3144828 Z M155.073454,27.3144828 L191.389237,27.3144828 L173.77443,101.168276 C169.524208,119.06069 157.245789,138 132.027808,138 L77.5777469,138 L85.936516,112.969656 L110.965598,112.969656 C122.77177,112.969656 135.947457,106.402758 138.828162,94.5062072 L155.073454,27.3144828 Z M150.776008,0 L113.374057,0 L95.9481493,73.9965519 C94.2480605,81.1820692 91.8868263,85.3220692 83.386383,85.3220692 L51.6041703,85.3220692 C44.3787936,85.3220692 44.5676924,81.0393105 46.0788823,74.8531037 L50.9902495,54.3910346 C52.2180913,49.2993105 53.8709552,47.0151725 60.5768604,47.0151725 L91.8868263,47.0151725 L96.5620699,27.2668966 L35.7366764,27.2668966 C21.3331476,27.2668966 12.6438057,34.262069 9.24362841,48.6806898 L1.02653332,83.2758623 C-2.37364396,97.7420696 2.9155207,104.404138 13.3049512,104.404138 L102.181808,104.404138 C120.835558,104.404138 128.060935,97.0758621 131.319438,83.1331036 L150.776008,0 Z" id="Shape"></path>
            </g>
        </g>
    </g>
</svg>