<?xml version="1.0" encoding="UTF-8"?>
<svg width="512px" height="512px" viewBox="0 0 512 512" version="1.1" xmlns="http://www.w3.org/2000/svg" xmlns:xlink="http://www.w3.org/1999/xlink">
    <!-- Generator: Sketch 58 (84663) - https://sketch.com -->
    <title>006-competition</title>
    <desc>Created with Sketch.</desc>
    <g id="Page-1" stroke="none" stroke-width="1" fill="none" fill-rule="evenodd">
        <g id="006-competition" fill="#8D99FF" fill-rule="nonzero">
            <path d="M386,462 C386,467.523438 381.523438,472 376,472 C370.476562,472 366,467.523438 366,462 C366,456.476562 370.476562,452 376,452 C381.523438,452 386,456.476562 386,462 Z" id="Path"></path>
            <path d="M60,462 C60,467.523438 55.523438,472 50,472 C44.476562,472 40,467.523438 40,462 C40,456.476562 44.476562,452 50,452 C55.523438,452 60,456.476562 60,462 Z" id="Path"></path>
            <path d="M166,210 L166,230 C166,235.523438 170.476562,240 176,240 L336,240 C341.523438,240 346,235.523438 346,230 L346,210 C346,160.464844 305.925781,120 256,120 C206.375,120 166,160.375 166,210 Z M256,140 C294.527344,140 326,171.167969 326,210 L326,220 L186,220 L186,210 C186,171.402344 217.402344,140 256,140 Z" id="Shape"></path>
            <path d="M316,60 C316,26.914062 289.085938,0 256,0 C222.914062,0 196,26.914062 196,60 C196,93.085938 222.914062,120 256,120 C289.085938,120 316,93.085938 316,60 Z M256,100 C233.945312,100 216,82.054688 216,60 C216,37.945312 233.945312,20 256,20 C278.054688,20 296,37.945312 296,60 C296,82.054688 278.054688,100 256,100 Z" id="Shape"></path>
            <path d="M276,432 L266,432 L266,362 C266,356.476562 261.523438,352 256,352 L236,352 C230.476562,352 226,356.476562 226,362 C226,367.523438 230.476562,372 236,372 L246,372 L246,432 L236,432 C230.476562,432 226,436.476562 226,442 C226,447.523438 230.476562,452 236,452 L276,452 C281.523438,452 286,447.523438 286,442 C286,436.476562 281.523438,432 276,432 Z" id="Path"></path>
            <path d="M502,352 L346,352 L346,290 C346,284.476562 341.523438,280 336,280 L176,280 C170.476562,280 166,284.476562 166,290 L166,352 L10,352 C4.476562,352 0,356.476562 0,362 L0,502 C0,507.523438 4.476562,512 10,512 L502,512 C507.523438,512 512,507.523438 512,502 L512,362 C512,356.476562 507.523438,352 502,352 Z M20,372 L166,372 L166,492 L20,492 L20,372 Z M186,300 L326,300 L326,492 L186,492 L186,300 Z M492,492 L346,492 L346,372 L492,372 L492,492 Z" id="Shape"></path>
            <path d="M416,472 L462,472 C467.523438,472 472,467.523438 472,462 C472,456.476562 467.523438,452 462,452 L416,452 C410.476562,452 406,456.476562 406,462 C406,467.523438 410.476562,472 416,472 Z" id="Path"></path>
            <path d="M136,452 L90,452 C84.476562,452 80,456.476562 80,462 C80,467.523438 84.476562,472 90,472 L136,472 C141.523438,472 146,467.523438 146,462 C146,456.476562 141.523438,452 136,452 Z" id="Path"></path>
        </g>
    </g>
</svg>