<?xml version="1.0" encoding="UTF-8"?>
<svg width="512px" height="460px" viewBox="0 0 512 460" version="1.1" xmlns="http://www.w3.org/2000/svg" xmlns:xlink="http://www.w3.org/1999/xlink">
    <!-- Generator: Sketch 58 (84663) - https://sketch.com -->
    <title>003-income</title>
    <desc>Created with Sketch.</desc>
    <g id="Page-1" stroke="none" stroke-width="1" fill="none" fill-rule="evenodd">
        <g id="003-income" fill="#8D99FF" fill-rule="nonzero">
            <path d="M186,370 C186,375.523438 181.523438,380 176,380 C170.476562,380 166,375.523438 166,370 C166,364.476562 170.476562,360 176,360 C181.523438,360 186,364.476562 186,370 Z" id="Path"></path>
            <path d="M346,150 C341.726562,150 337.113281,147.3125 333.015625,142.4375 C329.460938,138.207031 323.152344,137.660156 318.925781,141.214844 C314.695312,144.769531 314.152344,151.078125 317.707031,155.304688 C323.050781,161.664062 329.339844,166.097656 336,168.332031 L336,180 C336,185.523438 340.476562,190 346,190 C351.523438,190 356,185.523438 356,180 L356,168.28125 C367.640625,164.152344 376,153.035156 376,140 C376,123.457031 362.542969,110 346,110 C340.484375,110 336,105.515625 336,100 C336,94.484375 340.484375,90 346,90 C349.542969,90 353.28125,91.808594 356.816406,95.226562 C360.785156,99.066406 367.117188,98.960938 370.957031,94.996094 C374.796875,91.023438 374.691406,84.695312 370.722656,80.855469 C365.648438,75.941406 360.570312,73.167969 356,71.648438 L356,60 C356,54.476562 351.523438,50 346,50 C340.476562,50 336,54.476562 336,60 L336,71.71875 C324.359375,75.847656 316,86.964844 316,100 C316,116.542969 329.457031,130 346,130 C351.511719,130 356,134.484375 356,140 C356,145.515625 351.515625,150 346,150 Z" id="Path"></path>
            <path d="M412.871094,271.957031 L342.421875,347.855469 C333.261719,320.277344 307.164062,300 276,300 L227.222656,300 C211.480469,281.632812 181.527344,270 149,270 C116.472656,270 86.53125,281.632812 70.789062,300 L10,300 C4.476562,300 0,304.476562 0,310 L0,450 C0,455.523438 4.476562,460 10,460 L327.679688,460 C348.632812,460 368.292969,450.742188 381.640625,434.59375 L509.566406,286.539062 C512.71875,282.890625 512.820312,277.515625 509.808594,273.753906 C485.15625,242.9375 438.609375,242.125 412.871094,271.957031 L412.871094,271.957031 Z M20,320 L66,320 L66,440 L20,440 L20,320 Z M366.433594,421.601562 C366.382812,421.660156 366.332031,421.722656 366.28125,421.78125 C356.746094,433.359375 342.675781,440 327.679688,440 L86,440 L86,312.964844 C97.816406,299.113281 122.511719,290 149,290 C177.210938,290 203.390625,300.339844 214.144531,315.726562 C216.015625,318.40625 219.074219,320 222.339844,320 L276,320 C300.25,320 320.390625,337.015625 324.992188,360 L216,360 C210.476562,360 206,364.476562 206,370 C206,375.523438 210.476562,380 216,380 L326.800781,380 C332.636719,380 335.796875,378.464844 338.023438,378 C341.238281,377.328125 342.707031,375.484375 344,374.582031 C346.003906,373.1875 347.828125,371.550781 349.445312,369.6875 C349.445312,369.6875 427.835938,285.226562 427.921875,285.128906 C443.382812,267.085938 470.515625,265.03125 488.480469,280.351562 L366.433594,421.601562 Z" id="Shape"></path>
            <path d="M346,240 C412.167969,240 466,186.167969 466,120 C466,53.832031 412.167969,0 346,0 C279.832031,0 226,53.832031 226,120 C226,186.167969 279.832031,240 346,240 Z M346,20 C401.140625,20 446,64.859375 446,120 C446,175.140625 401.140625,220 346,220 C290.859375,220 246,175.140625 246,120 C246,64.859375 290.859375,20 346,20 Z" id="Shape"></path>
        </g>
    </g>
</svg>