<?xml version="1.0" encoding="UTF-8"?>
<svg width="400px" height="260px" viewBox="0 0 400 260" version="1.1" xmlns="http://www.w3.org/2000/svg" xmlns:xlink="http://www.w3.org/1999/xlink">
    <!-- Generator: Sketch 58 (84663) - https://sketch.com -->
    <title>Group</title>
    <desc>Created with Sketch.</desc>
    <g id="Page-1" stroke="none" stroke-width="1" fill="none" fill-rule="evenodd">
        <g id="Group">
            <rect id="Rectangle" fill="#F7F8F9" x="0" y="0" width="400" height="260"></rect>
            <g id="google-2015" transform="translate(54.000000, 83.000000)" fill="#CDCFD2" fill-rule="nonzero">
                <path d="M35.9562145,0 L38.552405,0 C47.5655947,0.196048524 56.43183,3.82294622 62.7998445,10.2435354 C60.4485777,12.6451299 58.048326,14.9487 55.7460439,17.3502944 C52.1701589,14.1154937 47.859503,11.6158751 43.1569693,10.7336567 C36.2011381,9.26329277 28.706475,10.5866203 22.8772926,14.5566029 C16.5092781,18.722634 12.1986223,25.780381 11.2679124,33.3282491 C10.2392332,40.7780931 12.3455764,48.6200341 17.1950643,54.4034655 C21.8486134,60.0398606 28.9513986,63.568734 36.2991076,63.8137947 C43.1569693,64.2058917 50.3087392,62.0983701 55.3051813,57.2951812 C59.2239594,53.9133442 61.0363944,48.7670704 61.6242111,43.7678331 C53.4927465,43.7678331 45.361282,43.8168452 37.2298173,43.7678331 L37.2298173,33.671334 L71.470141,33.671334 C73.2335911,44.503015 70.6863854,56.7070356 62.4569514,64.4509524 C56.970662,69.9403111 49.3780295,73.1751117 41.6384427,73.8122693 C34.1437797,74.5474514 26.4041929,73.1260995 19.7422701,69.4992019 C11.7577597,65.2351464 5.38974531,58.0303631 2.25472282,49.5512645 C-0.684360753,41.7583356 -0.733345479,32.9361521 2.00979919,25.0942111 C4.50802023,17.93844 9.3085234,11.6158751 15.4805989,7.20478326 C21.4077508,2.84270361 28.6085056,0.44110918 35.9562145,0 Z" id="Path"></path>
                <path d="M233,4 L243,4 L243,72.9879223 C239.682243,72.9879223 236.317757,73.0362331 233,72.9396114 C233.046729,49.9919482 233,26.9959741 233,4 Z" id="Path"></path>
                <path d="M94.3228133,26.4381237 C100.826716,25.2033818 107.87261,26.5862927 113.243256,30.4880769 C118.121184,33.945354 121.520951,39.3782181 122.555662,45.3049789 C123.886006,52.1701435 122.210758,59.6773739 117.776279,65.110238 C112.996897,71.1851679 105.162651,74.4448864 97.5254924,73.9509896 C90.5288702,73.5558722 83.7293359,70.0492054 79.590489,64.3200033 C74.9096501,57.998125 73.7763944,49.3055425 76.3385378,41.8970914 C78.9006811,33.945354 86.1436633,27.8704241 94.3228133,26.4381237 M95.8009728,35.8221616 C93.1402856,36.5136171 90.6766861,38.0446969 88.9028946,40.2178425 C84.1235119,45.9470447 84.4191437,55.281693 89.6912464,60.6157777 C92.6968377,63.6779375 97.2298605,65.110238 101.417979,64.2706136 C105.310466,63.5791581 108.710234,60.9615055 110.582569,57.5042283 C113.83452,51.6268571 112.898353,43.5269507 107.921882,38.9337111 C104.719203,35.9703307 100.038364,34.7355887 95.8009728,35.8221616 Z" id="Shape"></path>
                <path d="M146.321701,26.4419463 C153.76731,25.0090365 161.903241,27.0842851 167.475121,32.3218172 C176.547917,40.4745796 177.53409,55.7424798 169.792629,65.1305091 C165.108305,71.0597909 157.51477,74.3208957 150.019851,73.975021 C142.870094,73.7773782 135.818954,70.2198092 131.578407,64.3399383 C126.795466,57.8671391 125.759984,48.9732166 128.471961,41.4133824 C131.183938,33.7053163 138.284387,27.8254453 146.321701,26.4419463 M147.800961,35.8299755 C145.138292,36.5217251 142.672859,38.0534562 140.897747,40.1781154 C136.164114,45.810933 136.361349,55.0013196 141.440142,60.3870838 C144.447971,63.598778 149.132295,65.1799198 153.471458,64.2905276 C157.317535,63.5493673 160.769142,60.980012 162.642872,57.5212644 C165.847935,51.5919826 164.91107,43.4886311 159.881586,38.8934378 C156.676523,35.9287969 151.992198,34.7429405 147.800961,35.8299755 Z" id="Shape"></path>
                <path d="M190.5761,30.2359178 C196.255797,26.7572388 203.812263,25.7909391 209.936457,28.7864682 C211.862615,29.607823 213.443052,31.0089575 214.974102,32.4100922 C215.02349,31.1055875 214.974102,29.7527679 215.02349,28.3999483 C218.332531,28.4482633 221.641571,28.3999483 225,28.4482633 L225,71.0620808 C224.950612,77.4879738 223.271398,84.3003868 218.530085,88.9869405 C213.344276,94.1566439 205.3927,95.7510385 198.231343,94.6881088 C190.5761,93.5768641 183.908631,88.1172707 180.94531,81.2082278 C183.908631,79.8070931 187.020116,78.6958485 190.082213,77.3913439 C191.810817,81.3531727 195.317412,84.7352217 199.713003,85.5082615 C204.108595,86.2813013 209.195628,85.2183716 212.06017,81.6430627 C215.122268,77.9711237 215.122268,72.9463652 214.974102,68.4530715 C212.702223,70.6272459 210.084623,72.5598453 206.923748,73.2845701 C200.058725,75.1688545 192.502258,72.8497352 187.217671,68.3081266 C181.883695,63.7665179 178.72282,56.760845 179.019152,49.803487 C179.167318,41.9281443 183.711075,34.3426915 190.5761,30.2359178 M200.799554,36.420236 C197.786845,36.9033858 194.971692,38.5460953 193.045534,40.8168997 C188.402999,46.2281781 188.402999,54.8765605 193.094922,60.191209 C195.76191,63.3316831 200.058725,65.0710225 204.207371,64.6361876 C208.109077,64.2496677 211.714449,61.8339185 213.640607,58.5001845 C216.900259,52.8473312 216.356983,45.1652484 211.961393,40.2371198 C209.245016,37.1932757 204.898814,35.6955112 200.799554,36.420236 L200.799554,36.420236 Z" id="Shape"></path>
                <path d="M255.440494,31.8564297 C261.329274,26.3258899 270.407809,24.4494568 277.965076,27.3628661 C285.129758,30.0787562 289.693562,36.942551 292,44.0038652 C281.351124,48.4480489 270.751321,52.8428528 260.102444,57.2870365 C261.57464,60.1016862 263.832005,62.6694368 266.874541,63.706413 C271.143906,65.2371874 276.247515,64.6940093 279.829857,61.8299798 C281.252977,60.7436238 282.381661,59.3116091 283.461269,57.9289741 C286.160293,59.7560275 288.859317,61.533701 291.558341,63.3607543 C287.730635,69.1381931 281.302051,73.1873382 274.382735,73.8292759 C266.727322,74.7674925 258.581177,71.8047033 253.624788,65.7803654 C245.478642,56.2994401 246.263813,40.3991383 255.440494,31.8564297 M260.691323,40.9916962 C259.022836,43.4113074 258.335811,46.3740965 258.384885,49.2875058 C265.500492,46.3247167 272.616101,43.3619276 279.73171,40.3497585 C278.553953,37.5844887 275.707711,35.9055748 272.812393,35.4611565 C268.150443,34.6216995 263.2922,37.1400704 260.691323,40.9916962 L260.691323,40.9916962 Z" id="Shape"></path>
            </g>
        </g>
    </g>
</svg>