<?xml version="1.0" encoding="UTF-8"?>
<svg width="400px" height="260px" viewBox="0 0 400 260" version="1.1" xmlns="http://www.w3.org/2000/svg" xmlns:xlink="http://www.w3.org/1999/xlink">
    <!-- Generator: Sketch 58 (84663) - https://sketch.com -->
    <title>Group</title>
    <desc>Created with Sketch.</desc>
    <g id="Page-1" stroke="none" stroke-width="1" fill="none" fill-rule="evenodd">
        <g id="Group">
            <rect id="Rectangle" fill="#F7F8F9" x="0" y="0" width="400" height="260"></rect>
            <g id="kik" transform="translate(70.000000, 65.000000)" fill="#CDCFD2" fill-rule="nonzero">
                <path d="M244.999535,64 C253.285346,64 260,70.7153853 260,79.0004674 C260,87.2846147 253.285346,94 244.999535,94 C236.713723,94 230,87.2846147 230,79.0004674 C229.999069,70.7172551 236.712792,64 244.999535,64 Z" id="Path"></path>
                <polygon id="Path" points="124 116 97 115.999078 97.0286585 49 123.997227 49.09407"></polygon>
                <path d="M110.611554,102.792187 C118.006573,102.792187 124,108.883253 124,116.396094 C124,123.908934 118.005645,130 110.611554,130 C103.217463,130 97.2203221,123.908934 97.2203221,116.396094 C97.2203221,108.883253 103.216534,102.792187 110.611554,102.792187 Z M110.611554,35.1896246 C118.006573,35.1896246 124,41.2806902 124,48.7963166 C124,56.3119431 118.005645,62.40208 110.611554,62.40208 C103.217463,62.40208 97.2203221,56.3100857 97.2203221,48.7963166 C97.2203221,41.2806902 103.216534,35.1896246 110.611554,35.1896246 Z M13.2390057,103.127433 C20.5514145,103.127433 26.4780113,109.140491 26.4780113,116.558608 C26.4780113,123.974869 20.5523427,129.988856 13.2390057,129.988856 C5.92659688,129.988856 0,123.974869 0,116.558608 C0,109.140491 5.92659688,103.127433 13.2390057,103.127433 Z M13.2974827,0 C20.6386659,0 26.5893961,6.07899303 26.5893961,13.5797609 C26.5893961,21.0796002 20.6386659,27.1595218 13.2974827,27.1595218 C5.95722768,27.1595218 0.00464103101,21.0796002 0.00464103101,13.5797609 C0.00464103101,6.07899303 5.95722768,0 13.2974827,0 Z" id="Shape"></path>
                <polygon id="Path" points="0.00185348116 14 26.9820517 14.285218 27.1164291 63.7830025 52.0920875 39.455476 72.0133028 57.9558787 54.4395213 75.1917226 79 108.169016 57.0974133 124 33.6962872 92.8447786 26.8819638 99.1398815 26.881037 116.656328 0 115.611452"></polygon>
                <path d="M62.5662145,35.1995684 C70.0590193,35.1995684 76.1324289,41.2762096 76.1324289,48.7737985 C76.1324289,56.2704586 70.0590193,62.3498859 62.5662145,62.3498859 C55.0752723,62.3498859 49,56.2704586 49,48.7737985 C49,41.2771383 55.0752723,35.1995684 62.5662145,35.1995684 L62.5662145,35.1995684 Z M68.0482094,102.725233 C75.4953776,102.725233 81.532464,108.831593 81.532464,116.363546 C81.532464,123.892711 75.4963089,130 68.0482094,130 C60.60011,130 54.5620921,123.894568 54.5620921,116.363546 C54.5620921,108.831593 60.60011,102.725233 68.0482094,102.725233 Z M157.605156,103.134801 C164.942423,103.134801 170.888236,109.148288 170.888236,116.566936 C170.888236,123.983726 164.942423,129.998143 157.605156,129.998143 C150.265095,129.998143 144.320212,123.983726 144.320212,116.566936 C144.320212,109.148288 150.266957,103.134801 157.605156,103.134801 Z M157.6629,0 C165.028109,0 171,6.07942732 171,13.5807311 C171,21.0811061 165.029972,27.1614622 157.6629,27.1614622 C150.297692,27.1614622 144.325801,21.0811061 144.325801,13.5807311 C144.325801,6.07942732 150.297692,0 157.6629,0 Z" id="Shape"></path>
                <polygon id="Path" points="143.001853 14 169.981736 14.285218 170.115185 63.7830025 195.092403 39.455476 215.011532 57.9558787 197.43981 75.1917226 222 108.169016 200.096744 124 176.696819 92.8447786 169.882575 99.1398815 169.881648 116.656328 143 115.611452"></polygon>
                <path d="M205.76118,35 C213.361667,35 219.52236,41.0894334 219.52236,48.6028058 C219.52236,56.1152474 213.361667,62.2074728 205.76118,62.2074728 C198.162582,62.2074728 192,56.1152474 192,48.6028058 C192.001889,41.090364 198.163527,35 205.76118,35 L205.76118,35 Z M211.322903,102.667816 C218.877097,102.667816 225,108.787031 225,116.334839 C225,123.879854 218.878042,130 211.322903,130 C203.767764,130 197.642972,123.881715 197.642972,116.334839 C197.642027,108.787031 203.767764,102.667816 211.322903,102.667816 Z" id="Shape"></path>
            </g>
        </g>
    </g>
</svg>