<?xml version="1.0" encoding="UTF-8"?>
<svg width="400px" height="260px" viewBox="0 0 400 260" version="1.1" xmlns="http://www.w3.org/2000/svg" xmlns:xlink="http://www.w3.org/1999/xlink">
    <!-- Generator: Sketch 58 (84663) - https://sketch.com -->
    <title>Group</title>
    <desc>Created with Sketch.</desc>
    <g id="Page-1" stroke="none" stroke-width="1" fill="none" fill-rule="evenodd">
        <g id="Group">
            <rect id="Rectangle" fill="#F7F8F9" x="0" y="0" width="400" height="260"></rect>
            <g id="whatsapp" transform="translate(54.000000, 87.000000)" fill-rule="nonzero">
                <path d="M285.895709,52.4216706 C285.72989,53.2540017 285.439265,53.9613072 285.044343,54.5852622 C284.650593,55.2086302 284.130867,55.7087332 283.467587,56.1031808 C282.823056,56.4782581 282.014463,56.6854605 281.058801,56.6854605 C280.124817,56.6854605 279.314466,56.4988022 278.671693,56.1031808 C278.029501,55.7267963 277.482378,55.2074232 277.072672,54.5852622 C276.67775,53.9618942 276.387125,53.2540017 276.200797,52.4216706 C276.017817,51.5955239 275.927221,50.7515375 275.930494,49.9053066 C275.930494,49.031887 276.01447,48.1578806 276.180289,47.3478544 C276.34611,46.5155231 276.636735,45.7876735 277.031656,45.1637186 C277.425406,44.5180456 277.945132,44.0197033 278.608413,43.6041247 C279.252943,43.2085032 280.062121,43.0007139 281.017198,43.0007139 C281.951182,43.0007139 282.740439,43.2085032 283.383798,43.6041247 C284.028626,44.0036931 284.575193,44.543806 284.982819,45.1842627 C285.398249,45.8287618 285.688874,46.5771555 285.875202,47.3889427 C286.061529,48.2206869 286.145318,49.0524312 286.145318,49.9053066 C286.145318,50.758182 286.061529,51.5899262 285.895709,52.4216706 L285.895709,52.4216706 Z M291.418751,45.704323 C291.02383,44.3108432 290.443166,43.1046085 289.653908,42.0439438 C288.843558,41.0044103 287.847465,40.1509479 286.643365,39.5275799 C285.438678,38.903625 283.986141,38.5708098 282.304502,38.5708098 C280.975597,38.5708098 279.770911,38.8414056 278.671107,39.3614658 C277.570132,39.8815262 276.656656,40.7338146 275.950603,41.8778298 L275.867986,41.8778298 L275.867986,39.1530895 L270.303929,39.1530895 L270.303929,68 L276.15861,68 L276.15861,57.870564 L276.241226,57.870564 C276.931384,58.8882476 277.876704,59.7060894 278.98224,60.241945 C280.103724,60.7825494 281.307823,61.0531451 282.636142,61.0531451 C284.193563,61.0531451 285.563483,60.7414611 286.747076,60.1380503 C287.889342,59.551938 288.888781,58.7210699 289.674416,57.70445 C290.463674,56.6854605 291.044338,55.5203142 291.418751,54.1896407 C291.813672,52.8583803 292,51.4866185 292,50.0508765 C292,48.5329579 291.813672,47.0772587 291.418751,45.6831919 L291.418751,45.704323 L291.418751,45.704323 Z M262.539678,52.4216706 C262.373859,53.2540017 262.083234,53.9613072 261.688312,54.5852622 C261.29339,55.2092172 260.774836,55.7087332 260.110384,56.1031808 C259.467025,56.4782581 258.65726,56.6854605 257.70277,56.6854605 C256.767614,56.6854605 255.979529,56.4988022 255.31449,56.1031808 C254.672539,55.7264758 254.125482,55.2071657 253.715469,54.5852622 C253.321719,53.9618942 253.031094,53.2540017 252.844766,52.4216706 C252.661211,51.5956185 252.570608,50.7515674 252.574649,49.9053066 C252.574649,49.031887 252.657267,48.1578806 252.823086,47.3478544 C252.990078,46.5155231 253.279532,45.7876735 253.674453,45.1637186 C254.069375,44.5180456 254.587928,44.0197033 255.252381,43.6041247 C255.89574,43.2085032 256.705505,43.0007139 257.659996,43.0007139 C258.595151,43.0007139 259.383236,43.2085032 260.027767,43.6041247 C260.67237,44.0035769 261.218578,44.5437307 261.625617,45.1842627 C262.041046,45.8287618 262.331671,46.5771555 262.519171,47.3889427 C262.705498,48.2206869 262.788115,49.0524312 262.788115,49.9053066 C262.788115,50.758182 262.705498,51.5899262 262.539678,52.4216706 L262.539678,52.4216706 Z M266.296706,42.0439438 C265.508035,41.0044103 264.490848,40.1509479 263.286748,39.5275799 C262.082647,38.903625 260.629524,38.5708098 258.947299,38.5708098 C257.618395,38.5708098 256.41488,38.8414056 255.313904,39.3614658 C254.214101,39.8815262 253.300625,40.7338146 252.594572,41.8778298 L252.510782,41.8778298 L252.510782,39.1530895 L246.946726,39.1530895 L246.946726,68 L252.801407,68 L252.801407,57.870564 L252.885197,57.870564 C253.575353,58.8882476 254.520673,59.7060894 255.626209,60.241945 C256.74652,60.7825494 257.950621,61.0531451 259.27894,61.0531451 C260.856868,61.0531451 262.20628,60.7414611 263.391045,60.1380503 C264.53275,59.5515854 265.531734,58.720762 266.317213,57.70445 C267.107057,56.6854605 267.688306,55.5203142 268.083227,54.1896407 C268.466259,52.8434392 268.661857,51.4506927 268.664477,50.0508765 C268.664477,48.5329579 268.476977,47.0772587 268.083227,45.6831919 C267.688306,44.290299 267.107057,43.0834775 266.296706,42.0233997 L266.296706,42.0439438 L266.296706,42.0439438 Z M227.763151,49.1152376 L231.603967,38.2790831 L231.687171,38.2790831 L235.403769,49.1152376 L227.763151,49.1152376 Z M228.386002,31 L217.23738,60.5119537 L223.756514,60.5119537 L226.06159,53.9401761 L237.085407,53.9401761 L239.306694,60.5119537 L246.03325,60.5119537 L235.009433,31 L228.365494,31 L228.386002,31 L228.386002,31 Z M216.759841,51.1532164 C216.364921,50.4875863 215.866874,49.9053066 215.223515,49.4480526 C214.600664,48.9907988 213.873517,48.6362656 213.063752,48.3457127 C212.243404,48.0757054 211.41222,47.8399297 210.572348,47.6389942 C209.742075,47.4511621 208.932311,47.2639169 208.143054,47.0978029 C207.353796,46.9316888 206.627235,46.7438566 206.025477,46.5360673 C205.403213,46.328278 204.904581,46.0582692 204.530752,45.7248671 C204.135831,45.392052 203.949504,44.9764734 203.949504,44.4358689 C203.949504,43.9991593 204.053214,43.645213 204.281143,43.3746173 C204.509659,43.1046085 204.779776,42.9173634 205.090908,42.7717935 C205.402627,42.6262235 205.755361,42.542873 206.150282,42.5017848 C206.508704,42.4620364 206.868971,42.4412677 207.229578,42.4395653 C208.267859,42.4395653 209.181333,42.6473547 209.950083,43.0423891 C210.718247,43.4374237 211.154183,44.2069486 211.216292,45.3298327 L216.780349,45.3298327 C216.676053,43.9985723 216.323905,42.9173634 215.763163,42.0433569 C215.202421,41.1693503 214.496953,40.483763 213.645587,39.9637027 C212.79422,39.4436424 211.818635,39.0697391 210.738754,38.8408186 C209.659458,38.6118981 208.537976,38.5080035 207.375476,38.5080035 C206.213564,38.5080035 205.09208,38.6124852 203.99169,38.8196874 C202.891302,39.0274767 201.895209,39.381423 201.023334,39.9014833 C200.130952,40.4215435 199.424313,41.1083049 198.905758,41.9811374 C198.365524,42.854557 198.095994,43.9991593 198.095994,45.370921 C198.095994,46.3071468 198.282322,47.0972158 198.677243,47.7417149 C199.051071,48.3873879 199.569625,48.9274054 200.192476,49.3641152 C200.83642,49.7802808 201.542475,50.1342271 202.352239,50.4042358 C203.162004,50.6742444 203.992277,50.9037519 204.843644,51.0904101 C206.940711,51.5271198 208.560241,51.9638296 209.743247,52.4005394 C210.905746,52.8372492 211.487581,53.5028793 211.487581,54.3762989 C211.487581,54.8963592 211.362776,55.3330689 211.113754,55.6864283 C210.869965,56.0317508 210.550211,56.3163239 210.179185,56.5181725 C209.805356,56.7259618 209.389928,56.8721187 208.933483,56.9754263 C208.504418,57.0731857 208.065693,57.1220193 207.625671,57.1209963 C207.044422,57.1209963 206.483681,57.0593639 205.96454,56.9132069 C205.424892,56.767637 204.947354,56.5586738 204.532511,56.268121 C204.117081,55.9769811 203.784855,55.6024907 203.515324,55.1452368 C203.245207,54.6879829 203.120403,54.1467915 203.120403,53.5228365 L197.556346,53.5228365 C197.618455,54.9574046 197.93076,56.1430952 198.532516,57.0998652 C199.113766,58.0572222 199.88193,58.805616 200.795404,59.3878956 C201.70888,59.9701753 202.767669,60.3857539 203.951261,60.6352186 C205.134854,60.8852701 206.338368,61.0102959 207.58407,61.0102959 C208.788757,61.0102959 209.992271,60.8852701 211.155355,60.6557627 C212.317855,60.4274293 213.356134,60.0112636 214.26961,59.4289839 C215.183086,58.8467042 215.909647,58.0771794 216.470389,57.1409535 C217.030545,56.1847704 217.32117,55.020211 217.32117,53.6056001 C217.32117,52.6077417 217.134841,51.7759975 216.73992,51.1097803 L216.759841,51.1532164 L216.759841,51.1532164 Z M192.530765,32.747426 L186.676083,32.747426 L186.676083,39.1530895 L183.125305,39.1530895 L183.125305,43.0834775 L186.676083,43.0834775 L186.676083,55.6876022 C186.676083,56.7693979 186.862411,57.6222733 187.215732,58.2873166 C187.569051,58.9535338 188.067097,59.451876 188.689948,59.8269533 C189.312799,60.1803126 190.019439,60.4297772 190.828619,60.554803 C191.680907,60.6818584 192.541556,60.7442552 193.403225,60.7416352 C193.984475,60.7416352 194.565724,60.7209169 195.188575,60.7003729 C195.738368,60.6817244 196.286285,60.6260316 196.828612,60.5336718 L196.828612,55.978742 C196.541974,56.0435119 196.250609,56.0851252 195.957323,56.1031808 C195.639538,56.1280632 195.320989,56.1419632 195.002246,56.1448561 C194.005568,56.1448561 193.361624,55.978742 193.029983,55.6453399 C192.697757,55.3131118 192.531351,54.6468946 192.531351,53.6701673 L192.531351,43.0834775 L196.828612,43.0834775 L196.828612,39.1530895 L192.531351,39.1530895 L192.531351,32.747426 L192.530765,32.747426 Z M175.734297,52.2555565 C175.734297,52.5877846 175.693281,53.0250814 175.630587,53.5868169 C175.560675,54.1613421 175.369528,54.7143885 175.069845,55.2092172 C174.758712,55.7504086 174.301682,56.2076624 173.658323,56.603284 C173.036058,56.9977314 172.121997,57.1855636 170.980591,57.1855636 C170.523561,57.1855636 170.06653,57.1433013 169.610085,57.0605378 C169.174147,56.9766003 168.779812,56.8310304 168.447586,56.623828 C168.11536,56.4154518 167.866336,56.145443 167.658329,55.7709527 C167.472001,55.4175935 167.367704,54.9808837 167.367704,54.4396923 C167.367704,53.8779568 167.472001,53.441247 167.658329,53.0673436 C167.845243,52.7128103 168.114773,52.4216706 168.427078,52.172793 C168.738211,51.9438725 169.112038,51.7572142 169.547976,51.6116443 C169.983913,51.4660744 170.399341,51.3615928 170.855787,51.2782422 C171.324532,51.1974559 171.79518,51.1281721 172.267309,51.0704529 C172.744848,51.0082335 173.18137,50.9454271 173.617308,50.8626636 C174.053244,50.7799001 174.44758,50.6754185 174.821408,50.5509796 C175.195235,50.4265408 175.506368,50.2598398 175.755977,50.0309194 L175.755977,52.2150552 L175.734297,52.2555565 L175.734297,52.2555565 Z M181.588979,55.7703657 L181.588979,44.6430713 C181.588979,43.3540732 181.298354,42.3139526 180.717691,41.5238836 C180.136441,40.7332276 179.3882,40.1304038 178.495818,39.693694 C177.582342,39.2569842 176.585664,38.9658444 175.485275,38.7997303 C174.405142,38.6518314 173.316459,38.5753591 172.226293,38.5708098 C171.042115,38.5708098 169.859108,38.6958357 168.696609,38.9247561 C167.534696,39.1536765 166.475323,39.5481241 165.540754,40.1104465 C164.620791,40.6587881 163.833719,41.4047547 163.236263,42.2945824 C162.634506,43.2096771 162.281186,44.3531054 162.198569,45.7260411 L168.053251,45.7260411 C168.156961,44.5620687 168.551297,43.7508685 169.215163,43.2513525 C169.880202,42.7518363 170.772583,42.5029587 171.935668,42.5029587 C172.454808,42.5029587 172.952269,42.544047 173.409885,42.6068534 C173.835151,42.6628495 174.244725,42.8044076 174.613986,43.023019 C174.967305,43.2308083 175.236837,43.5219482 175.444845,43.8964385 C175.652267,44.2709289 175.755977,44.769271 175.755977,45.4143571 C175.776485,46.017181 175.610664,46.4756088 175.215743,46.8078369 C174.821408,47.1195209 174.302268,47.3695725 173.638401,47.5356865 C172.974534,47.7018006 172.226879,47.8268264 171.375513,47.910177 C170.524146,47.9935274 169.652272,48.0974221 168.780399,48.242992 C167.908524,48.388562 167.036064,48.5752201 166.16419,48.8041406 C165.292316,49.033061 164.523566,49.3864203 163.859114,49.8653923 C163.174154,50.3431903 162.634506,50.9671452 162.198569,51.7366702 C161.762632,52.5273261 161.554625,53.5257714 161.554625,54.7320061 C161.554625,55.834346 161.740952,56.7911161 162.115366,57.5811851 C162.465824,58.3514554 162.99208,59.028437 163.651693,59.5575315 C164.337293,60.091608 165.119963,60.4871255 165.956182,60.722091 C166.828057,60.9715555 167.783134,61.0959944 168.80032,61.0959944 C170.129226,61.0959944 171.416529,60.9093361 172.682738,60.5137146 C173.935153,60.1307403 175.070679,59.4369907 175.983906,58.4968668 C176.004414,58.8502261 176.06711,59.2029984 176.129219,59.5575315 C176.191328,59.8897597 176.295039,60.243706 176.399336,60.576521 L182.33722,60.576521 C182.067103,60.1398112 181.859681,59.4735941 181.755971,58.6001745 C181.646069,57.682329 181.590503,56.7587706 181.589564,55.834346 L181.589564,55.7703657 L181.588979,55.7703657 Z M157.464784,41.0038233 C156.883536,40.2554296 156.094278,39.6520187 155.098185,39.2358531 C154.101507,38.7991433 152.814789,38.5907671 151.236275,38.5907671 C150.135886,38.5907671 149.014988,38.8819069 147.85249,39.4436424 C146.689991,40.0053779 145.755422,40.9204727 145.008351,42.1472515 L144.883547,42.1472515 L144.883547,31.0205442 L139.028866,31.0205442 L139.028866,60.5330848 L144.883547,60.5330848 L144.883547,49.3230269 C144.883547,47.1388911 145.236867,45.5792972 145.963429,44.6225272 C146.669483,43.6657572 147.831982,43.2085032 149.430418,43.2085032 C150.821432,43.2085032 151.818111,43.645213 152.357758,44.5180456 C152.897992,45.391465 153.188617,46.7021814 153.188617,48.4695646 L153.188617,60.5330848 L159.043299,60.5330848 L159.043299,47.3889427 C159.043299,46.0576823 158.918495,44.8520346 158.689979,43.7702388 C158.461463,42.6884429 158.046034,41.752804 157.464784,41.0038233 Z M126.509152,51.3615928 L126.425949,51.3615928 L121.402126,31.0211311 L115.339437,31.0211311 L110.231825,51.1121282 L110.148621,51.1121282 L105.476947,31.0211311 L99,31.0211311 L106.805851,60.5336718 L113.366587,60.5336718 L118.266191,40.4420877 L118.349395,40.4420877 L123.332202,60.5336718 L129.768132,60.5336718 L133.297231,47.4306179 L137.698789,31.0211311 L131.345475,31.0211311 L126.509152,51.3615928 L126.509152,51.3615928 Z" id="Shape" fill="#CDCFD2"></path>
                <path d="M43.2736269,78.0129048 C36.1573073,78.0129048 29.515991,75.8342688 23.9678811,72.1267447 L10.4780167,76.5041181 L14.8508423,63.2649877 C10.6433365,57.398929 8.16877825,50.171888 8.16877825,42.3790518 C8.16877825,22.7293516 23.9061772,6.74579012 43.253253,6.74579012 C62.6003287,6.74579012 78.3377277,22.7293516 78.3377277,42.3790518 C78.3377277,62.028161 62.6003287,78.0129048 43.253253,78.0129048 L43.2736269,78.0129048 L43.2736269,78.0129048 Z M43.2736269,0 C20.2336324,0 1.5472538,18.9804422 1.5472538,42.3796431 C1.5472538,50.3817701 3.73366662,57.8813624 7.528455,64.2706484 L0,87 L23.1016984,79.4797152 C29.2764241,82.9474603 36.217784,84.7640095 43.2736269,84.7586949 C66.3130393,84.7586949 85,65.7794351 85,42.3796431 C85,18.9804422 66.3130393,0 43.2736269,0 Z" id="Shape" fill="#B5B8BD"></path>
                <path d="M43.4896954,7 C23.9191637,7 8,22.9236538 8,42.4997055 C8,50.2633335 10.5037279,57.463287 14.7598298,63.3073592 L10.3364987,76.4968684 L23.9815803,72.1359017 C29.5937699,75.8507339 36.2911833,78 43.5103047,78 C63.0808363,78 79,62.0757573 79,42.5002945 C79,22.9242429 63.0808363,7 43.5103047,7 L43.4896954,7 L43.4896954,7 Z" id="Path" fill="#CDCFD2"></path>
                <path d="M33.6929945,23.8341722 C33.0053063,22.1492861 32.4840985,22.0854784 31.4422713,22.0421372 C31.0466639,22.016061 30.6503871,22.002009 30.2539646,22 C28.8985892,22 27.4814454,22.405119 26.6266882,23.3008356 C25.584861,24.3885773 23,26.9264408 23,32.1309871 C23,37.3355334 26.7102227,42.3691232 27.2102527,43.0734164 C27.7314603,43.7765056 34.4436278,54.611786 44.8654296,59.0277647 C53.0153303,62.4830152 55.4337107,62.1627725 57.2885278,61.7576534 C59.9981022,61.1605091 63.3959531,59.1120391 64.2507102,56.6385854 C65.1054674,54.1639278 65.1054674,52.052252 64.8548642,51.6043937 C64.6048492,51.1565355 63.9165726,50.9013044 62.8747454,50.3673659 C61.8329182,49.8340293 56.7673202,47.2744953 55.808439,46.933184 C54.8701475,46.5708041 53.9742113,46.6990216 53.2659336,47.7229555 C52.2652853,49.1520087 51.2858148,50.6027322 50.4934143,51.4767783 C49.8680826,52.1594009 48.8462567,52.2448792 47.9920878,51.8818973 C46.8455484,51.3919018 43.635944,50.2391484 39.6751181,46.6346119 C36.6108167,43.8409154 34.5265739,40.3645963 33.9224201,39.3195936 C33.3176778,38.2535225 33.8600633,37.6341056 34.3389156,37.0586319 C34.8601233,36.3970778 35.3601534,35.9281509 35.8813611,35.309336 C36.4025689,34.691123 36.6943511,34.3708804 37.0279005,33.6455185 C37.3826277,32.9418273 37.1320243,32.2164655 36.8820094,31.6831288 C36.6319943,31.1497923 34.5477517,25.945246 33.6929945,23.8341722 L33.6929945,23.8341722 Z" id="Path" fill="#FFFFFF"></path>
            </g>
        </g>
    </g>
</svg>