<?xml version="1.0" encoding="UTF-8"?>
<svg width="512px" height="512px" viewBox="0 0 512 512" version="1.1" xmlns="http://www.w3.org/2000/svg" xmlns:xlink="http://www.w3.org/1999/xlink">
    <!-- Generator: Sketch 58 (84663) - https://sketch.com -->
    <title>007-interview</title>
    <desc>Created with Sketch.</desc>
    <g id="Page-1" stroke="none" stroke-width="1" fill="none" fill-rule="evenodd">
        <g id="007-interview" fill="#98D2C3" fill-rule="nonzero">
            <path d="M62.74,494.93 C60.88,493.069 58.3,492 55.67,492 C53.03,492 50.46,493.069 48.6,494.93 C46.73,496.79 45.67,499.37 45.67,502 C45.67,504.63 46.73,507.21 48.6,509.069 C50.46,510.929 53.031,512 55.67,512 C58.3,512 60.88,510.93 62.74,509.069 C64.599,507.21 65.67,504.63 65.67,502 C65.67,499.37 64.6,496.79 62.74,494.93 Z" id="Path"></path>
            <path d="M373.069,424.26 C371.21,422.399 368.63,421.33 366,421.33 C363.37,421.33 360.79,422.399 358.93,424.26 C357.07,426.121 356,428.7 356,431.33 C356,433.97 357.069,436.54 358.93,438.399 C360.79,440.259 363.37,441.33 366,441.33 C368.63,441.33 371.21,440.26 373.069,438.399 C374.929,436.54 376,433.969 376,431.33 C376,428.7 374.93,426.12 373.069,424.26 Z" id="Path"></path>
            <path d="M479.747,161.62 C487.314,154.02 492,143.547 492,132 L492,124 C492,100.841 473.159,82 450,82 C426.841,82 408,100.841 408,124 L408,132 C408,143.549 412.687,154.022 420.256,161.623 C403.843,170.637 391.923,186.857 388.806,206 L343,206 C326.458,206 313,219.458 313,236 C313,239.506 313.61,242.87 314.72,246 L197.28,246 C198.39,242.87 199,239.506 199,236 C199,219.458 185.542,206 169,206 L123.194,206 C120.077,186.857 108.157,170.636 91.744,161.623 C99.313,154.022 104,143.549 104,132 L104,124 C104,100.841 85.159,82 62,82 C38.841,82 20,100.841 20,124 L20,132 C20,143.547 24.686,154.02 32.253,161.62 C13.049,172.167 0,192.586 0,216 L0,316 L0,328.167 C0,359.505 25.495,385 56.833,385 L136,385 L136,480.5 C136,484.558 136.78,488.435 138.183,492 L98.667,492 C93.145,492 88.667,496.478 88.667,502 C88.667,507.522 93.145,512 98.667,512 L456.333,512 C461.855,512 466.333,507.522 466.333,502 C466.333,496.478 461.855,492 456.333,492 L373.817,492 C375.22,488.435 376,484.558 376,480.5 L376,469 C376,463.478 371.522,459 366,459 C360.478,459 356,463.478 356,469 L356,480.5 C356,486.841 350.841,492 344.5,492 C338.159,492 333,486.841 333,480.5 L333,354.25 C333,338.673 345.673,326 361.25,326 L398,326 L406,326 L492,326 L492,328.167 C492,348.477 475.477,365 455.167,365 L366,365 C360.478,365 356,369.478 356,375 L356,391 C356,396.522 360.478,401 366,401 C371.522,401 376,396.522 376,391 L376,385 L455.167,385 C486.505,385 512,359.505 512,328.167 L512,316 L512,216 C512,192.586 498.951,172.167 479.747,161.62 Z M428,124 C428,111.869 437.869,102 450,102 C462.131,102 472,111.869 472,124 L472,132 C472,144.131 462.131,154 450,154 C437.869,154 428,144.131 428,132 L428,124 Z M40,124 C40,111.869 49.869,102 62,102 C74.131,102 84,111.869 84,124 L84,132 C84,144.131 74.131,154 62,154 C49.869,154 40,144.131 40,132 L40,124 Z M20,216 C20,192.841 38.841,174 62,174 C85.159,174 104,192.841 104,216 C104,221.522 108.478,226 114,226 L169,226 C174.514,226 179,230.486 179,236 C179,241.514 174.514,246 169,246 L110.765,246 C94.865,246 80.324,237.293 72.815,223.277 C70.208,218.409 64.146,216.576 59.278,219.185 C54.41,221.792 52.578,227.853 55.186,232.722 C65.197,251.409 83.745,263.652 104.559,265.696 C104.197,266.73 104,267.843 104,269 L104,306 L20,306 L20,216 Z M143.382,306 L124,306 L124,269 C124,267.955 123.84,266.947 123.542,266 L143.382,266 C139.967,271.888 138,278.717 138,286 C138,293.283 139.966,300.112 143.382,306 Z M179,480.5 C179,486.841 173.841,492 167.5,492 C161.159,492 156,486.841 156,480.5 L156,375 C156,369.478 151.522,365 146,365 L56.833,365 C36.523,365 20,348.477 20,328.167 L20,326 L106,326 L114,326 L150.75,326 C166.327,326 179,338.673 179,354.25 L179,480.5 Z M226,492 L196.817,492 C198.221,488.435 199,484.558 199,480.5 L199,354.25 C199,343.706 195.591,333.948 189.829,326 L226,326 L226,492 Z M266,492 L246,492 L246,326 L266,326 L266,492 Z M315.183,492 L286,492 L286,326 L322.171,326 C316.41,333.948 313,343.706 313,354.25 L313,480.5 C313,484.558 313.78,488.435 315.183,492 Z M334,306 L178,306 C166.972,306 158,297.028 158,286 C158,274.972 166.972,266 178,266 L334,266 C345.028,266 354,274.972 354,286 C354,297.028 345.028,306 334,306 Z M388,269 L388,306 L368.618,306 C372.033,300.112 374,293.283 374,286 C374,278.717 372.034,271.888 368.618,266 L388.458,266 C388.16,266.947 388,267.955 388,269 Z M492,306 L408,306 L408,269 C408,267.843 407.803,266.73 407.441,265.696 C428.255,263.652 446.803,251.409 456.814,232.722 C459.422,227.853 457.59,221.792 452.722,219.185 C447.852,216.577 441.793,218.411 439.185,223.277 C431.676,237.293 417.135,246 401.235,246 L343,246 C337.486,246 333,241.514 333,236 C333,230.486 337.486,226 343,226 L398,226 C403.522,226 408,221.522 408,216 C408,192.841 426.841,174 450,174 C473.159,174 492,192.841 492,216 L492,306 Z" id="Shape"></path>
            <path d="M328,0 L184,0 C167.458,0 154,13.458 154,30 L154,128 C154,144.542 167.458,158 184,158 L218.857,158 L248.928,188.071 C250.882,190.023 253.44,191 256,191 C258.56,191 261.118,190.023 263.071,188.071 L293.143,158 L328,158 C344.542,158 358,144.542 358,128 L358,30 C358,13.458 344.542,0 328,0 Z M338,128 C338,133.514 333.514,138 328,138 L289,138 C286.348,138 283.805,139.054 281.929,140.929 L256,166.857 L230.071,140.928 C228.195,139.054 225.652,138 223,138 L184,138 C178.486,138 174,133.514 174,128 L174,30 C174,24.486 178.486,20 184,20 L328,20 C333.514,20 338,24.486 338,30 L338,128 Z" id="Shape"></path>
            <path d="M216.069,68.1 C214.21,66.23 211.63,65.17 209,65.17 C206.37,65.17 203.79,66.23 201.93,68.1 C200.07,69.96 199,72.54 199,75.17 C199,77.8 200.069,80.38 201.93,82.24 C203.79,84.1 206.37,85.17 209,85.17 C211.63,85.17 214.21,84.1 216.069,82.24 C217.929,80.38 219,77.8 219,75.17 C219,72.54 217.93,69.96 216.069,68.1 Z" id="Path"></path>
            <path d="M263.069,68.1 C261.21,66.241 258.63,65.17 256,65.17 C253.37,65.17 250.79,66.24 248.93,68.1 C247.07,69.96 246,72.54 246,75.17 C246,77.8 247.069,80.38 248.93,82.24 C250.79,84.1 253.37,85.17 256,85.17 C258.63,85.17 261.21,84.1 263.069,82.24 C264.929,80.38 266,77.8 266,75.17 C266,72.54 264.93,69.96 263.069,68.1 Z" id="Path"></path>
            <path d="M310.069,68.1 C308.21,66.23 305.63,65.17 303,65.17 C300.37,65.17 297.79,66.23 295.93,68.1 C294.07,69.96 293,72.54 293,75.17 C293,77.8 294.069,80.38 295.93,82.24 C297.79,84.1 300.37,85.17 303,85.17 C305.63,85.17 308.21,84.1 310.069,82.24 C311.929,80.38 313,77.8 313,75.17 C313,72.54 311.93,69.96 310.069,68.1 Z" id="Path"></path>
        </g>
    </g>
</svg>