<?xml version="1.0" encoding="UTF-8"?>
<svg width="400px" height="260px" viewBox="0 0 400 260" version="1.1" xmlns="http://www.w3.org/2000/svg" xmlns:xlink="http://www.w3.org/1999/xlink">
    <!-- Generator: Sketch 58 (84663) - https://sketch.com -->
    <title>Group</title>
    <desc>Created with Sketch.</desc>
    <g id="Page-1" stroke="none" stroke-width="1" fill="none" fill-rule="evenodd">
        <g id="Group">
            <rect id="Rectangle" fill="#F7F8F9" x="0" y="0" width="400" height="260"></rect>
            <g id="mastercard-2" transform="translate(98.000000, 51.000000)" fill-rule="nonzero">
                <path d="M200.029793,156.865601 L200.029793,157.267173 L200.409475,157.267173 C200.48075,157.268301 200.551035,157.250624 200.613058,157.215973 C200.663315,157.180892 200.692069,157.123039 200.689402,157.062372 C200.692011,157.002819 200.663111,156.946195 200.613058,156.912786 C200.551742,156.876433 200.480955,156.85863 200.409475,156.861586 L200.029793,156.861586 L200.029793,156.865601 Z M200.413547,156.581489 C200.576289,156.571627 200.737461,156.617754 200.869573,156.712 C200.976976,156.798763 201.036277,156.930635 201.029385,157.067391 C201.034281,157.184836 200.987528,157.298648 200.901128,157.379614 C200.79923,157.46699 200.67138,157.51947 200.536715,157.529199 L201.045672,158.101439 L200.653775,158.101439 L200.185534,157.533215 L200.033865,157.533215 L200.033865,158.101439 L199.706096,158.101439 L199.706096,156.582493 L200.418637,156.582493 L200.413547,156.581489 Z M200.311756,158.625491 C200.483661,158.627087 200.653972,158.592877 200.811552,158.525098 C200.963484,158.460595 201.101643,158.368278 201.218717,158.253033 C201.336014,158.13793 201.429679,158.001578 201.494572,157.851461 C201.62815,157.533261 201.62815,157.17577 201.494572,156.85757 C201.428723,156.707968 201.335174,156.571784 201.218717,156.455998 C201.101596,156.340809 200.963448,156.248499 200.811552,156.183933 C200.653024,156.119843 200.483076,156.087754 200.311756,156.089563 C200.137486,156.087966 199.964583,156.120025 199.802798,156.183933 C199.647497,156.247228 199.506112,156.339621 199.386471,156.455998 C199.01837,156.828393 198.91139,157.381628 199.114688,157.8615 C199.176678,158.012179 199.269155,158.148817 199.386471,158.263072 C199.506177,158.379369 199.647545,158.471752 199.802798,158.535137 C199.963611,158.602874 200.136897,158.637055 200.311756,158.63553 M200.311756,155.724133 C200.75912,155.723686 201.188717,155.89677 201.507805,156.206019 C201.661651,156.354506 201.784125,156.5316 201.868147,156.727059 C202.043951,157.132629 202.043951,157.591461 201.868147,157.997031 C201.782149,158.19142 201.659919,158.36816 201.507805,158.51807 C201.351631,158.665763 201.169964,158.784757 200.971364,158.869446 C200.762812,158.956835 200.538346,159.001249 200.311756,158.999957 C200.082499,159.001581 199.855305,158.957177 199.644004,158.869446 C199.443117,158.786728 199.259768,158.667537 199.103491,158.51807 C198.951385,158.36267 198.830803,158.180023 198.748239,157.979964 C198.572435,157.574394 198.572435,157.115562 198.748239,156.709992 C198.83226,156.514533 198.954735,156.33744 199.108581,156.188952 C199.262742,156.036906 199.446637,155.917359 199.649093,155.837577 C199.860395,155.749846 200.087588,155.705441 200.316845,155.707066 M44.4486734,149.858168 C44.4486734,146.961829 46.372532,144.582514 49.5168702,144.582514 C52.5217541,144.582514 54.5494399,146.859428 54.5494399,149.858168 C54.5494399,152.856908 52.5217541,155.133822 49.5168702,155.133822 C46.372532,155.133822 44.4486734,152.754507 44.4486734,149.858168 M57.9747225,149.858168 L57.9747225,141.6159 L54.3417854,141.6159 L54.3417854,143.623761 C53.189506,142.139952 51.4417467,141.209309 49.0649161,141.209309 C44.382509,141.209309 40.7078373,144.831489 40.7078373,149.862184 C40.7078373,154.892878 44.3804732,158.515059 49.0649161,158.515059 C51.4407288,158.515059 53.189506,157.583411 54.3417854,156.100606 L54.3417854,158.101439 L57.9706509,158.101439 L57.9706509,149.858168 L57.9747225,149.858168 Z M180.727079,149.858168 C180.727079,146.961829 182.650937,144.582514 185.796294,144.582514 C188.804231,144.582514 190.828863,146.859428 190.828863,149.858168 C190.828863,152.856908 188.804231,155.133822 185.796294,155.133822 C182.651955,155.133822 180.727079,152.754507 180.727079,149.858168 M194.2572,149.858168 L194.2572,135 L190.621209,135 L190.621209,143.623761 C189.468929,142.139952 187.72117,141.209309 185.344339,141.209309 C180.661932,141.209309 176.987261,144.831489 176.987261,149.862184 C176.987261,154.892878 180.659896,158.515059 185.344339,158.515059 C187.72117,158.515059 189.468929,157.583411 190.621209,156.100606 L190.621209,158.101439 L194.2572,158.101439 L194.2572,149.858168 Z M103.064267,144.41285 C105.405471,144.41285 106.908931,145.860518 107.292684,148.409497 L98.6241238,148.409497 C99.0119493,146.030182 100.476728,144.41285 103.065285,144.41285 M103.137557,141.200273 C98.2413879,141.200273 94.8161053,144.714029 94.8161053,149.853148 C94.8161053,155.09266 98.3788064,158.506023 103.380839,158.506023 C105.897124,158.506023 108.201682,157.886598 110.229368,156.196984 L108.449035,153.541588 C107.048385,154.645911 105.264999,155.265336 103.588493,155.265336 C101.24729,155.265336 99.1157765,154.196151 98.5915505,151.229537 L110.996876,151.229537 C111.032503,150.783792 111.069148,150.334031 111.069148,149.852144 C111.032503,144.715033 107.811821,141.199269 103.135521,141.199269 M146.997461,149.852144 C146.997461,146.955806 148.92132,144.576491 152.065658,144.576491 C155.070542,144.576491 157.098227,146.853405 157.098227,149.852144 C157.098227,152.850884 155.070542,155.127798 152.065658,155.127798 C148.92132,155.127798 146.996443,152.748483 146.996443,149.852144 M160.522492,149.852144 L160.522492,141.6159 L156.891591,141.6159 L156.891591,143.623761 C155.73524,142.139952 153.991552,141.209309 151.614722,141.209309 C146.932314,141.209309 143.257643,144.831489 143.257643,149.862184 C143.257643,154.892878 146.930279,158.515059 151.614722,158.515059 C153.991552,158.515059 155.73524,157.583411 156.891591,156.100606 L156.891591,158.101439 L160.52351,158.101439 L160.52351,149.858168 L160.522492,149.852144 Z M126.481392,149.852144 C126.481392,154.850713 130.009484,158.505019 135.394253,158.505019 C137.910537,158.505019 139.587043,157.952858 141.399949,156.540328 L139.655243,153.643989 C138.291237,154.610774 136.859032,155.127798 135.27821,155.127798 C132.378172,155.09266 130.245641,153.024564 130.245641,149.852144 C130.245641,146.679725 132.378172,144.612632 135.27821,144.576491 C136.85496,144.576491 138.287166,145.093515 139.655243,146.0603 L141.399949,143.163961 C139.583989,141.751431 137.907484,141.199269 135.394253,141.199269 C130.009484,141.199269 126.481392,144.852572 126.481392,149.852144 M173.315643,141.199269 C171.219757,141.199269 169.854733,142.166054 168.911126,143.613722 L168.911126,141.6159 L165.310762,141.6159 L165.310762,158.092404 L168.947771,158.092404 L168.947771,148.856246 C168.947771,146.129571 170.135678,144.61464 172.510472,144.61464 C173.288127,144.60357 174.060307,144.744488 174.782458,145.029263 L175.902164,141.652042 C175.098011,141.33982 174.049559,141.202281 173.313607,141.202281 M75.9358255,142.926029 C74.1880661,141.78958 71.7796802,141.202281 69.1229231,141.202281 C64.8904343,141.202281 62.1654769,143.203114 62.1654769,146.476931 C62.1654769,149.163448 64.1941807,150.820937 67.9299272,151.337961 L69.6461312,151.578904 C71.6381901,151.854985 72.5787432,152.372009 72.5787432,153.302653 C72.5787432,154.57664 71.2554542,155.303486 68.7707247,155.303486 C66.2544398,155.303486 64.4384802,154.510381 63.2139289,153.579737 L61.5068862,156.373675 C63.498945,157.821343 66.0152299,158.512047 68.7401872,158.512047 C73.5651024,158.512047 76.3613138,156.271275 76.3613138,153.133992 C76.3613138,150.237654 74.1605824,148.722723 70.5245915,148.205699 L68.8124592,147.96074 C67.2397811,147.759954 65.9796029,147.447731 65.9796029,146.343408 C65.9796029,145.138692 67.1675092,144.413854 69.160586,144.413854 C71.293117,144.413854 73.3574478,145.206959 74.3692549,145.826384 L75.941933,142.930045 L75.9358255,142.926029 Z M122.81181,141.205293 C120.715924,141.205293 119.350901,142.172078 118.411366,143.619745 L118.411366,141.6159 L114.811002,141.6159 L114.811002,158.092404 L118.443939,158.092404 L118.443939,148.856246 C118.443939,146.129571 119.631845,144.61464 122.00664,144.61464 C122.784295,144.60357 123.556475,144.744488 124.278625,145.029263 L125.398331,141.652042 C124.594179,141.33982 123.545727,141.202281 122.809774,141.202281 M91.8102035,141.6159 L85.869654,141.6159 L85.869654,136.617332 L82.1970181,136.617332 L82.1970181,141.6159 L78.8083805,141.6159 L78.8083805,144.890721 L82.1970181,144.890721 L82.1970181,152.407147 C82.1970181,156.230113 83.7014959,158.507027 87.9991313,158.507027 C89.575881,158.507027 91.3918406,158.025141 92.5441199,157.23304 L91.49465,154.165029 C90.410571,154.784454 89.2226646,155.096676 88.2780399,155.096676 C86.4620803,155.096676 85.869654,153.992353 85.869654,152.33888 L85.869654,144.893733 L91.8102035,144.893733 L91.8102035,141.6159 Z M37.4952989,158.09642 L37.4952989,147.755938 C37.4952989,143.861692 34.979014,141.241434 30.9226244,141.206297 C28.7900933,141.171159 26.5903799,141.825722 25.0502751,144.137773 C23.8979958,142.31062 22.0820361,141.206297 19.5291064,141.206297 C17.7447021,141.206297 16.0010144,141.723321 14.6359909,143.652875 L14.6359909,141.6159 L11,141.6159 L11,158.092404 L14.6644925,158.092404 L14.6644925,148.956639 C14.6644925,146.096441 16.2727976,144.576491 18.7565092,144.576491 C21.1689668,144.576491 22.3894464,146.127563 22.3894464,148.920497 L22.3894464,158.090396 L26.0620822,158.090396 L26.0620822,148.954631 C26.0620822,146.094433 27.7385875,144.574483 30.1500272,144.574483 C32.6306851,144.574483 33.8145197,146.125555 33.8145197,148.918489 L33.8145197,158.088388 L37.4952989,158.09642 Z" id="Shape" fill="#CDCFD2"></path>
                <polygon id="Path" fill="#CDCFD2" points="129.998983 113 75 113 75 14 130 14"></polygon>
                <path d="M77.9209871,63 C77.9209871,42.9057156 87.3367797,25.0056304 102,13.4700425 C90.9004493,4.72532607 77.1732643,-0.0207311526 63.0395064,0 C28.2228999,0 0,28.2057139 0,63 C0,97.7942828 28.2228999,126 63.0395064,126 C77.1736138,126.020957 90.9011949,121.274888 102,112.529954 C87.3388195,100.996405 77.9209871,83.0953002 77.9209871,63" id="Path" fill="#B5B8BD"></path>
                <path d="M204,63 C204,97.7942859 175.778511,126 140.963645,126 C126.82875,126.020595 113.100361,121.274628 102,112.529959 C116.665547,100.99437 126.080869,83.0953022 126.080869,63 C126.080869,42.9046952 116.665547,25.0056276 102,13.4700388 C113.100085,4.72558589 126.82808,-0.020367749 140.962625,0 C175.777491,0 204,28.2057115 204,63" id="Path" fill="#CDCFD2"></path>
            </g>
        </g>
    </g>
</svg>