<?xml version="1.0" encoding="UTF-8"?>
<svg width="381px" height="512px" viewBox="0 0 381 512" version="1.1" xmlns="http://www.w3.org/2000/svg" xmlns:xlink="http://www.w3.org/1999/xlink">
    <!-- Generator: Sketch 58 (84663) - https://sketch.com -->
    <title>005-shield</title>
    <desc>Created with Sketch.</desc>
    <g id="Page-1" stroke="none" stroke-width="1" fill="none" fill-rule="evenodd">
        <g id="005-shield" fill="#8D99FF" fill-rule="nonzero">
            <path d="M60.5,207 C60.5,212.523438 56.023438,217 50.5,217 C44.976562,217 40.5,212.523438 40.5,207 C40.5,201.476562 44.976562,197 50.5,197 C56.023438,197 60.5,201.476562 60.5,207 Z" id="Path"></path>
            <path d="M184.953125,510.320312 C186.632812,511.4375 188.566406,512 190.5,512 C192.433594,512 194.367188,511.4375 196.046875,510.320312 L286.988281,449.6875 C345.542969,410.65625 380.5,345.335938 380.5,274.957031 L380.5,70.277344 C380.5,65.980469 377.75,62.160156 373.675781,60.796875 L193.675781,0.515625 C191.613281,-0.171875 189.382812,-0.171875 187.324219,0.515625 L7.324219,60.796875 C3.246094,62.160156 0.5,65.980469 0.5,70.277344 L0.5,274.957031 C0.5,345.335938 35.457031,410.65625 94.011719,449.6875 L184.953125,510.320312 Z M20.5,274.957031 L20.5,77.476562 L190.5,20.542969 L360.5,77.476562 L360.5,274.957031 C360.5,338.632812 328.871094,397.730469 275.894531,433.046875 L190.5,489.980469 L105.105469,433.046875 C52.128906,397.734375 20.5,338.632812 20.5,274.957031 Z" id="Shape"></path>
            <path d="M184.953125,462.25 C186.632812,463.367188 188.566406,463.929688 190.5,463.929688 C192.433594,463.929688 194.367188,463.367188 196.046875,462.25 L264.796875,416.410156 C312.199219,384.8125 340.5,331.9375 340.5,274.96875 L340.5,99.109375 C340.5,94.8125 337.753906,90.992188 333.679688,89.628906 L193.679688,42.6875 C191.617188,41.996094 189.382812,41.996094 187.320312,42.6875 L47.320312,89.628906 C43.246094,90.992188 40.5,94.8125 40.5,99.109375 L40.5,167 C40.5,172.519531 44.976562,177 50.5,177 C56.019531,177 60.5,172.519531 60.5,167 L60.5,106.304688 L190.5,62.714844 L320.5,106.304688 L320.5,274.96875 C320.5,325.238281 295.527344,371.890625 253.703125,399.769531 L190.5,441.910156 L127.296875,399.765625 C85.46875,371.890625 60.5,325.234375 60.5,274.96875 L60.5,247 C60.5,241.476562 56.019531,237 50.5,237 C44.976562,237 40.5,241.476562 40.5,247 L40.5,274.96875 C40.5,331.941406 68.800781,384.816406 116.203125,416.410156 L184.953125,462.25 Z" id="Path"></path>
            <path d="M149.289062,328.207031 C154.953125,333.875 162.488281,336.996094 170.5,336.996094 C178.511719,336.996094 186.042969,333.875 191.710938,328.207031 L271.710938,248.207031 C283.433594,236.484375 283.4375,217.511719 271.710938,205.789062 C259.988281,194.066406 241.015625,194.0625 229.289062,205.785156 L170.5,264.578125 L151.710938,245.789062 C139.992188,234.066406 121.015625,234.0625 109.289062,245.789062 C97.5625,257.511719 97.5625,276.484375 109.289062,288.210938 L149.289062,328.207031 Z M123.429688,259.929688 C127.339844,256.023438 133.660156,256.023438 137.566406,259.929688 L163.425781,285.789062 C167.332031,289.691406 173.664062,289.691406 177.570312,285.789062 L243.429688,219.929688 C247.339844,216.023438 253.65625,216.023438 257.570312,219.929688 C261.476562,223.835938 261.476562,230.15625 257.566406,234.066406 L177.566406,314.066406 C175.675781,315.957031 173.167969,317 170.5,317 C167.832031,317 165.320312,315.957031 163.429688,314.066406 L123.429688,274.066406 C119.523438,270.160156 119.519531,263.839844 123.429688,259.929688 Z" id="Shape"></path>
        </g>
    </g>
</svg>