<?xml version="1.0" encoding="UTF-8"?>
<svg width="400px" height="260px" viewBox="0 0 400 260" version="1.1" xmlns="http://www.w3.org/2000/svg" xmlns:xlink="http://www.w3.org/1999/xlink">
    <!-- Generator: Sketch 58 (84663) - https://sketch.com -->
    <title>Group</title>
    <desc>Created with Sketch.</desc>
    <g id="Page-1" stroke="none" stroke-width="1" fill="none" fill-rule="evenodd">
        <g id="Group">
            <rect id="Rectangle" fill="#F7F8F9" x="0" y="0" width="400" height="260"></rect>
            <g id="microsoft" transform="translate(54.000000, 99.000000)" fill="#CDCFD2" fill-rule="nonzero">
                <path d="M292,29.0283194 L292,23.7336145 L285.622291,23.7336145 L285.622291,15.5023576 L285.4076,15.5705073 L279.417463,17.4600588 L279.299384,17.4970461 L279.299384,23.7339057 L269.844826,23.7339057 L269.844826,20.2594376 C269.844826,18.6416109 270.195675,17.4035587 270.887203,16.5778992 C271.573929,15.7621419 272.556136,15.3474191 273.808967,15.3474191 C274.709535,15.3474191 275.642024,15.5661387 276.580446,15.997462 L276.815758,16.1058026 L276.815758,10.5297617 L276.705023,10.4878235 C275.829595,10.1633845 274.638913,10 273.162918,10 C271.302742,10 269.612622,10.4173439 268.138604,11.2444595 C266.66374,12.0727402 265.503566,13.255166 264.690851,14.758536 C263.88096,16.2601586 263.469942,17.9944804 263.469942,19.9137381 L263.469942,23.7336145 L259.029246,23.7336145 L259.029246,29.0283194 L263.469942,29.0283194 L263.469942,51.333939 L269.844826,51.333939 L269.844826,29.0283194 L279.299384,29.0283194 L279.299384,43.2031592 C279.299384,49.041023 281.970299,51.9994176 287.237834,51.9994176 C288.103374,51.9994176 289.014394,51.8948632 289.944624,51.690123 C290.891521,51.4798492 291.536438,51.2698666 291.916102,51.0456135 L292,50.9943556 L292,45.6507226 L291.740677,45.827504 C291.39463,46.0651542 290.963838,46.2594098 290.458751,46.4038638 C289.951404,46.5509389 289.527674,46.6246221 289.199424,46.6246221 C287.965521,46.6246221 287.052522,46.2818351 286.486136,45.6052895 C285.913252,44.9226278 285.622573,43.7288437 285.622573,42.0588856 L285.622573,29.0283194 L292,29.0283194 Z M244.793031,46.6254958 C242.479179,46.6254958 240.654879,45.8344937 239.36928,44.2763709 C238.075772,42.7103847 237.420402,40.477755 237.420402,37.6410978 C237.420402,34.7144482 238.075772,32.4238621 239.369845,30.8302083 C240.656291,29.247039 242.463078,28.4435137 244.741052,28.4435137 C246.951514,28.4435137 248.711125,29.2109256 249.971583,30.725654 C251.238254,32.2482457 251.881195,34.5204838 251.881195,37.4812083 C251.881195,40.4783375 251.276672,42.7805731 250.084577,44.3206391 C248.900674,45.8490556 247.120442,46.6254958 244.793031,46.6254958 M245.076365,23.0687183 C240.661941,23.0687183 237.155711,24.4022967 234.655702,27.0324661 C232.157387,29.6629268 230.890715,33.3031094 230.890715,37.8528278 C230.890715,42.1742158 232.127161,45.6501401 234.566153,48.1824537 C237.005146,50.7156409 240.324368,51.9988351 244.430882,51.9988351 C248.709995,51.9988351 252.146449,50.6466176 254.64533,47.9800434 C257.143927,45.3163814 258.409752,41.7105651 258.409752,37.2671484 C258.409752,32.8781932 257.221894,29.3763487 254.8781,26.860927 C252.533175,24.3443403 249.234857,23.0687183 245.076365,23.0687183 M220.612424,23.0687183 C217.609588,23.0687183 215.125679,23.8605941 213.228215,25.4219206 C211.319167,26.9925665 210.350801,29.0524922 210.350801,31.5451973 C210.350801,32.8409148 210.559842,33.991887 210.971144,34.9681164 C211.384987,35.9475495 212.025384,36.8099049 212.876235,37.5336311 C213.72059,38.2515325 215.023984,39.0035087 216.751111,39.7685907 C218.203093,40.3845589 219.285866,40.9055835 219.973722,41.3162289 C220.646041,41.7187196 221.123161,42.1232492 221.392655,42.517294 C221.654519,42.902893 221.787288,43.4306161 221.787288,44.081824 C221.787288,45.9361357 220.440391,46.8383907 217.66891,46.8383907 C216.64094,46.8383907 215.468337,46.61705 214.183869,46.1807756 C212.908525,45.7510973 211.704821,45.1218597 210.614927,44.3151056 L210.350237,44.1193937 L210.350237,50.4471196 L210.447412,50.4937176 C211.349393,50.9230023 212.486686,51.285011 213.827087,51.5698417 C215.164945,51.8549636 216.380487,52 217.436424,52 C220.694911,52 223.318933,51.2043382 225.23363,49.6336922 C227.160474,48.0522703 228.137031,45.9437079 228.137031,43.3647963 C228.137031,41.5043686 227.611323,39.9089674 226.575161,38.6222783 C225.546061,37.3460738 223.759896,36.1744238 221.268642,35.1387818 C219.283888,34.317491 218.012414,33.635703 217.487836,33.1123485 C216.982185,32.6067595 216.725404,31.8917704 216.725404,30.9863119 C216.725404,30.1836602 217.042354,29.540607 217.692921,29.0198735 C218.348575,28.496519 219.26129,28.2303276 220.405927,28.2303276 C221.468079,28.2303276 222.554806,28.4033229 223.6356,28.7423238 C224.715549,29.0813247 225.664141,29.5353647 226.455951,30.0907554 L226.716405,30.2742352 L226.716405,24.271822 L226.616404,24.2275539 C225.885892,23.9045711 224.922611,23.6281863 223.752551,23.4039331 C222.587857,23.1811361 221.531355,23.0687183 220.612424,23.0687183 M193.731809,46.6254958 C191.418522,46.6254958 189.593657,45.8344937 188.308341,44.2763709 C187.01455,42.7103847 186.36031,40.4783375 186.36031,37.6410978 C186.36031,34.7144482 187.015397,32.4238621 188.309753,30.8302083 C189.595069,29.247039 191.401574,28.4435137 193.680678,28.4435137 C195.890292,28.4435137 197.649903,29.2109256 198.910642,30.725654 C200.177597,32.2482457 200.820255,34.5204838 200.820255,37.4812083 C200.820255,40.4783375 200.21545,42.7805731 199.023355,44.3206391 C197.839452,45.8490556 196.060066,46.6254958 193.731809,46.6254958 M194.015991,23.0687183 C189.600436,23.0687183 186.093925,24.4022967 183.595327,27.0324661 C181.097012,29.6629268 179.829493,33.3031094 179.829493,37.8528278 C179.829493,42.1759632 181.066785,45.6501401 183.505779,48.1824537 C185.944772,50.7156409 189.263712,51.9988351 193.370225,51.9988351 C197.648773,51.9988351 201.086076,50.6466176 203.584956,47.9800434 C206.082988,45.3163814 207.349377,41.7105651 207.349377,37.2671484 C207.349377,32.8781932 206.161237,29.3763487 203.816878,26.860927 C201.471387,24.3443403 198.173635,23.0687183 194.015991,23.0687183 M170.152618,28.5134108 L170.152618,23.7336145 L163.855418,23.7336145 L163.855418,51.3333565 L170.152618,51.3333565 L170.152618,37.2150168 C170.152618,34.8143428 170.680586,32.8420798 171.722398,31.3523979 C172.750934,29.8804816 174.12156,29.1346212 175.795014,29.1346212 C176.362247,29.1346212 176.998973,29.231021 177.688524,29.4217819 C178.371013,29.6113777 178.865365,29.8172829 179.156892,30.033964 L179.421582,30.2317145 L179.421582,23.6864338 L179.319604,23.641292 C178.73316,23.3844202 177.903496,23.2548193 176.853775,23.2548193 C175.271282,23.2548193 173.855175,23.7790475 172.642176,24.8111947 C171.577482,25.7184007 170.807988,26.9622777 170.219567,28.5134108 L170.152618,28.5134108 Z M152.578254,23.0687183 C149.689258,23.0687183 147.112413,23.7074029 144.920596,24.9664244 C142.724259,26.2283583 141.025665,28.029956 139.87001,30.3208333 C138.719441,32.6061771 138.135257,35.2756637 138.135257,38.2526974 C138.135257,40.8604416 138.701644,43.2535435 139.82114,45.3626883 C140.941201,47.475328 142.526518,49.1281031 144.533306,50.2744155 C146.537269,51.4192717 148.85338,51.9997088 151.417797,51.9997088 C154.410464,51.9997088 156.965559,51.3828669 159.014156,50.1663662 L159.096923,50.1174383 L159.096923,44.1694866 L158.832233,44.3686933 C157.904263,45.0656256 156.867254,45.62189 155.75143,46.0226334 C154.638431,46.4230855 153.623738,46.6254958 152.733904,46.6254958 C150.26299,46.6254958 148.279366,45.8283777 146.839529,44.256858 C145.396586,42.6832996 144.664945,40.4736776 144.664945,37.6932294 C144.664945,34.895307 145.427942,32.6288936 146.931621,30.9566056 C148.430779,29.2892686 150.418076,28.4435137 152.837859,28.4435137 C154.907641,28.4435137 156.924598,29.1660749 158.832798,30.5931407 L159.096923,30.7908912 L159.096923,24.5237428 L159.011613,24.4742324 C158.29353,24.0598008 157.314148,23.7175963 156.098324,23.4581033 C154.887585,23.1991929 153.703399,23.0687183 152.578254,23.0687183 M133.798235,23.7339057 L127.501034,23.7339057 L127.501034,51.3333565 L133.798235,51.3333565 L133.798235,23.7339057 Z M130.714041,11.9763404 C129.677596,11.9763404 128.773638,12.3400966 128.030979,13.0609104 C127.285214,13.7837628 126.906963,14.6938812 126.906963,15.7679666 C126.906963,16.8251602 127.280694,17.7186781 128.019398,18.4223089 C128.7533,19.123901 129.660082,19.4795024 130.714324,19.4795024 C131.768283,19.4795024 132.678456,19.123901 133.421115,18.4234738 C134.168575,17.7186781 134.547672,16.8254514 134.547672,15.7679666 C134.547672,14.7314509 134.178745,13.8306521 133.451905,13.0900342 C132.725631,12.3508723 131.804159,11.9763404 130.714041,11.9763404 M115.002114,21.6975703 L115.002114,51.3333565 L121.428694,51.3333565 L121.428694,12.8212215 L112.534025,12.8212215 L101.22833,41.4268994 L90.2568168,12.8212215 L81,12.8212215 L81,51.3333565 L87.0392897,51.3333565 L87.0392897,21.6946579 L87.2466351,21.6946579 L98.8322749,51.3333565 L103.38992,51.3333565 L114.794768,21.6975703 L115.002114,21.6975703 L115.002114,21.6975703 Z" id="Shape"></path>
                <polygon id="Path" points="29 30 0 30 0 0 29 0"></polygon>
                <polygon id="Path" points="62 30 33 30 33 0 62 0"></polygon>
                <polygon id="Path" points="29 63 0 63 0 33 29 33"></polygon>
                <polygon id="Path" points="62 63 33 63 33 33 62 33"></polygon>
            </g>
        </g>
    </g>
</svg>