<?xml version="1.0" encoding="UTF-8"?>
<svg width="512px" height="512px" viewBox="0 0 512 512" version="1.1" xmlns="http://www.w3.org/2000/svg" xmlns:xlink="http://www.w3.org/1999/xlink">
    <!-- Generator: Sketch 58 (84663) - https://sketch.com -->
    <title>009-video-conference</title>
    <desc>Created with Sketch.</desc>
    <g id="Page-1" stroke="none" stroke-width="1" fill="none" fill-rule="evenodd">
        <g id="009-video-conference" fill="#98D2C3" fill-rule="nonzero">
            <path d="M236.07,356.899 C234.21,355.03 231.64,353.969 229,353.969 C226.37,353.969 223.79,355.03 221.93,356.899 C220.07,358.759 219,361.33 219,363.969 C219,366.599 220.07,369.179 221.93,371.039 C223.79,372.898 226.37,373.969 229,373.969 C231.63,373.969 234.21,372.899 236.07,371.039 C237.93,369.179 239,366.599 239,363.969 C239,361.33 237.93,358.76 236.07,356.899 Z" id="Path"></path>
            <path d="M430.195,53.996 L328.5,53.996 C322.977,53.996 318.5,58.474 318.5,63.996 C318.5,69.518 322.977,73.996 328.5,73.996 L430.195,73.996 C434.499,73.996 438,77.475 438,81.75 L438,157 C438,162.522 442.477,167 448,167 C453.523,167 458,162.522 458,157 L458,81.75 C458,66.446 445.528,53.996 430.195,53.996 Z" id="Path"></path>
            <path d="M299.07,56.92 C297.21,55.06 294.63,54 292,54 C289.37,54 286.79,55.06 284.93,56.92 C283.07,58.79 282,61.359 282,64 C282,66.63 283.07,69.21 284.93,71.069 C286.791,72.93 289.37,74 292,74 C294.63,74 297.21,72.93 299.07,71.069 C300.93,69.21 302,66.63 302,64 C302,61.359 300.93,58.79 299.07,56.92 Z" id="Path"></path>
            <path d="M427.057,322.305 C439.792,309.826 447.713,292.452 447.713,273.257 L447.713,200 C447.713,194.478 443.236,190 437.713,190 L364.987,190 C334.826,190 310.289,214.537 310.289,244.697 L310.289,273.257 C310.289,292.283 318.066,309.525 330.604,321.98 L266,321.98 L266,301.604 C266,263.578 237.406,232.125 200.595,227.564 C207.87,218.586 212.24,207.163 212.24,194.734 L212.24,153.692 C212.24,153.293 212.21,152.902 212.165,152.515 C212.21,151.798 212.24,151.078 212.24,150.35 L212.24,124.384 C212.24,118.862 207.763,114.384 202.24,114.384 L149.918,114.384 C126.672,114.384 107.761,133.296 107.761,156.541 L107.761,166.435 L107.761,174.735 L107.761,194.734 C107.761,207.163 112.131,218.586 119.406,227.564 C82.594,232.125 54,263.577 54,301.604 L54,321.98 L20,321.98 L20,81.75 C20,77.475 23.501,73.996 27.805,73.996 L39.667,73.996 C45.19,73.996 49.667,69.518 49.667,63.996 C49.667,58.474 45.19,53.996 39.667,53.996 L27.805,53.996 C12.474,53.996 0,66.446 0,81.75 L0,378.226 C0,393.53 12.473,405.98 27.805,405.98 L179.979,405.98 L179.979,452.195 C154.753,454.75 135,476.112 135,502.001 C135,507.523 139.477,512.001 145,512.001 L502,512.001 C507.523,512.001 512,507.523 512,502.001 L512,414.777 C512,366.251 474.563,326.311 427.057,322.305 Z M330.289,273.257 L330.289,244.697 C330.289,225.565 345.854,210 364.987,210 L427.713,210 L427.713,273.257 C427.713,300.116 405.861,321.969 379.001,321.969 C352.141,321.969 330.289,300.116 330.289,273.257 Z M127.76,156.541 C127.76,144.323 137.699,134.384 149.917,134.384 L192.239,134.384 L192.239,150.35 C192.239,158.282 185.786,164.735 177.854,164.735 L127.76,164.735 L127.76,156.541 Z M127.76,184.734 L177.854,184.734 C182.988,184.734 187.859,183.595 192.239,181.569 L192.239,194.733 L192.24,194.733 C192.24,212.509 177.777,226.972 160,226.972 C142.223,226.972 127.76,212.509 127.76,194.733 L127.76,184.734 Z M171.669,246.973 L171.669,246.973 L160,258.642 L148.331,246.973 L171.669,246.973 L171.669,246.973 Z M74,301.604 C74,274.196 94.29,251.444 120.636,247.564 L152.928,279.856 C154.881,281.808 157.44,282.785 159.999,282.785 C162.558,282.785 165.118,281.808 167.07,279.856 L199.362,247.564 C225.708,251.444 245.998,274.196 245.998,301.604 L245.998,321.98 L74,321.98 L74,301.604 Z M246,492 L156.708,492 C160.838,480.324 171.988,471.938 185.061,471.938 L246,471.938 L246,492 Z M246,414.776 L246,451.937 L199.979,451.937 L199.979,405.979 L246.42,405.979 C246.146,408.876 246,411.809 246,414.776 Z M27.805,385.98 C23.501,385.979 20,382.501 20,378.226 L20,341.98 L281.307,341.98 C267.142,353.193 256.316,368.445 250.579,385.98 L27.805,385.98 Z M492,451.937 L415.5,451.937 C409.977,451.937 405.5,456.415 405.5,461.937 C405.5,467.459 409.977,471.937 415.5,471.937 L492,471.937 L492,492 L266,492 L266,414.776 C266,374.771 298.433,342.209 338.384,341.979 L368,341.979 C368.072,341.979 368.141,341.97 368.213,341.968 L419.192,341.968 C459.338,341.968 492,374.629 492,414.776 L492,451.937 Z" id="Shape"></path>
            <path d="M160.203,0 C154.68,0 150.203,4.478 150.203,10 L150.203,64 C150.203,69.522 154.68,74 160.203,74 C165.726,74 170.203,69.522 170.203,64 L170.203,10 C170.203,4.478 165.727,0 160.203,0 Z" id="Path"></path>
            <path d="M244.979,39.226 C241.074,35.322 234.742,35.322 230.836,39.226 L213.26,56.803 C209.355,60.708 209.355,67.04 213.26,70.946 C215.213,72.897 217.772,73.874 220.332,73.874 C222.891,73.874 225.451,72.897 227.403,70.945 L244.979,53.369 C248.885,49.464 248.885,43.132 244.979,39.226 Z" id="Path"></path>
            <path d="M106.909,56.923 L89.164,39.179 C85.258,35.276 78.927,35.275 75.022,39.179 C71.117,43.084 71.116,49.416 75.022,53.322 L92.766,71.066 C94.719,73.018 97.278,73.995 99.837,73.995 C102.396,73.995 104.956,73.018 106.908,71.066 C110.813,67.161 110.815,60.829 106.909,56.923 Z" id="Path"></path>
            <path d="M386.07,454.87 C384.21,453 381.63,451.939 379,451.939 C376.37,451.939 373.79,453 371.93,454.87 C370.07,456.729 369,459.3 369,461.939 C369,464.569 370.07,467.149 371.93,469.009 C373.79,470.869 376.37,471.939 379,471.939 C381.63,471.939 384.21,470.87 386.07,469.009 C387.93,467.148 389,464.569 389,461.939 C389,459.299 387.93,456.729 386.07,454.87 Z" id="Path"></path>
        </g>
    </g>
</svg>