<?xml version="1.0" encoding="UTF-8"?>
<svg width="400px" height="260px" viewBox="0 0 400 260" version="1.1" xmlns="http://www.w3.org/2000/svg" xmlns:xlink="http://www.w3.org/1999/xlink">
    <!-- Generator: Sketch 58 (84663) - https://sketch.com -->
    <title>Group</title>
    <desc>Created with Sketch.</desc>
    <g id="Page-1" stroke="none" stroke-width="1" fill="none" fill-rule="evenodd">
        <g id="Group">
            <rect id="Rectangle" fill="#F7F8F9" x="0" y="0" width="400" height="260"></rect>
            <g id="philips" transform="translate(54.000000, 103.000000)" fill="#CDCFD2" fill-rule="nonzero">
                <path d="M29.6536937,19.9502925 C29.6536937,26.6747876 26.429196,31.2292352 18.2631463,31.2292352 L15.6828177,31.2292352 L15.6828177,9.81309252 C16.600138,9.76079335 17.4568393,9.76079335 18.2631463,9.76079335 C25.9953678,9.76005675 29.6536937,13.4460435 29.6536937,19.9502925 M21.2714602,40.5539565 C35.8828537,40.5539565 45.1210581,32.9617374 45.1210581,19.7359397 C45.1203277,5.20339931 35.2372238,0 19.1227689,0 C12.8906875,0 5.37026772,0.43238893 0,1.08281384 L0,52.9179228 L15.6835481,52.9179228 L15.6835481,40.5539565 L21.2714602,40.5539565 Z M231.406465,19.9502925 C231.406465,26.6747876 228.18635,31.2292352 220.018108,31.2292352 L217.446544,31.2292352 L217.446544,9.81309252 C218.355831,9.76079335 219.213993,9.76079335 220.018108,9.76079335 C227.751061,9.76005675 231.406465,13.4460435 231.406465,19.9502925 M223.033726,40.5539565 C237.633434,40.5539565 246.876751,32.9617374 246.876751,19.7359397 C246.876751,5.20339931 236.995108,0 220.879191,0 C214.648571,0 207.123769,0.43238893 201.752771,1.08281384 L201.752771,52.9179228 L217.444353,52.9179228 L217.444353,40.5539565 L223.033726,40.5539565 Z M267.285667,14.3115579 C267.285667,11.4932955 270.082179,10.1902359 274.589903,10.1902359 C279.533646,10.1902359 284.909026,11.2752595 288.558588,12.7993016 L287.270979,1.5181492 C283.186128,0.650424914 279.533646,0 272.87504,0 C260.196884,0 251.605041,5.04429197 251.605041,15.6168274 C251.605041,33.8294616 276.103189,30.1456847 276.103189,38.6034184 C276.103189,41.8533331 273.736123,43.5873085 267.932027,43.5873085 C262.783055,43.5873085 254.827347,41.8533331 250.101249,39.4689329 L251.824875,51.4005102 C256.547322,53.1352222 262.993396,54 268.151862,54 C281.254352,54 292,49.6613786 292,36.6469875 C292,19.3035507 267.285667,22.5534654 267.285667,14.3115579 M189.940081,1.08281384 L174.256533,1.08281384 L174.256533,52.9179228 L189.940081,52.9179228 L189.940081,1.08281384 Z M126.338963,1.08281384 L110.653954,1.08281384 L110.653954,52.9179228 L126.338963,52.9179228 L126.338963,1.08281384 Z M153.62632,42.5044947 L153.62632,1.08281384 L137.941312,1.08281384 L137.941312,52.9179228 L166.305937,52.9179228 L168.66716,42.5044947 L153.62632,42.5044947 Z M99.052335,1.08281384 L83.3673262,1.08281384 L83.3673262,21.6857412 L67.0374179,21.6857412 L67.0374179,1.08281384 L51.3494877,1.08281384 L51.3494877,52.9179228 L67.0366876,52.9179228 L67.0366876,32.5293484 L83.3665958,32.5293484 L83.3665958,52.9179228 L99.0516046,52.9179228 L99.052335,1.08281384 Z" id="Shape"></path>
            </g>
        </g>
    </g>
</svg>