<?xml version="1.0" encoding="UTF-8"?>
<svg width="512px" height="458px" viewBox="0 0 512 458" version="1.1" xmlns="http://www.w3.org/2000/svg" xmlns:xlink="http://www.w3.org/1999/xlink">
    <!-- Generator: Sketch 58 (84663) - https://sketch.com -->
    <title>010-career</title>
    <desc>Created with Sketch.</desc>
    <g id="Page-1" stroke="none" stroke-width="1" fill="none" fill-rule="evenodd">
        <g id="010-career" fill="#98D2C3" fill-rule="nonzero">
            <path d="M451.463,174.635 L451.381,174.299 C450.054,168.938 444.633,165.669 439.273,166.995 C433.913,168.322 430.642,173.742 431.969,179.104 L432.029,179.347 C433.138,183.923 437.229,186.992 441.738,186.992 C442.518,186.992 443.311,186.9 444.102,186.708 C449.468,185.406 452.765,180.001 451.463,174.635 Z" id="Path"></path>
            <path d="M186.688,299.253 C161.828,284.253 146.986,257.987 146.986,228.993 C146.986,220.031 148.421,211.225 151.25,202.821 C153.012,197.588 150.197,191.916 144.964,190.155 C139.731,188.395 134.06,191.209 132.298,196.442 C128.776,206.906 126.99,217.858 126.99,228.994 C126.99,265.057 145.446,297.724 176.358,316.377 C177.975,317.352 179.755,317.816 181.514,317.816 C184.902,317.816 188.206,316.092 190.084,312.98 C192.937,308.252 191.417,302.107 186.688,299.253 Z" id="Path"></path>
            <path d="M298.883,154.727 C279.896,136.85 255.07,127.004 228.979,127.004 C216.76,127.004 204.804,129.146 193.444,133.368 C188.268,135.293 185.632,141.048 187.556,146.225 C189.48,151.402 195.235,154.038 200.413,152.113 C209.537,148.721 219.147,147.001 228.98,147.001 C249.955,147.001 269.912,154.915 285.174,169.286 C287.105,171.105 289.568,172.006 292.026,172.006 C294.686,172.006 297.34,170.951 299.308,168.861 C303.093,164.841 302.902,158.512 298.883,154.727 Z" id="Path"></path>
            <path d="M502.001,232.006 L426.775,232.006 L426.775,211.32 C426.775,201.265 418.594,193.084 408.539,193.084 L395.116,193.084 C388.242,161.134 372.411,132.034 349.176,108.798 C309.749,69.371 253.416,51.788 198.483,61.755 C193.05,62.741 189.444,67.945 190.43,73.379 C191.416,78.813 196.621,82.415 202.054,81.432 C250.533,72.634 300.247,88.15 335.035,122.94 C354.514,142.419 368.1,166.561 374.609,193.085 L320.023,193.085 C309.968,193.085 301.787,201.266 301.787,211.321 L301.787,232.007 L226.561,232.007 C221.039,232.007 216.562,236.485 216.562,242.006 L216.562,303.345 C216.562,312.731 220.217,321.274 226.17,327.644 L226.17,378.958 C187.162,378.292 150.733,362.861 122.924,335.051 C87.229,299.356 71.937,248.473 82.018,198.937 C83.119,193.526 79.625,188.246 74.214,187.145 C68.801,186.043 63.523,189.538 62.422,194.949 C51,251.078 68.33,308.738 108.782,349.191 C139.908,380.317 182.301,398.185 226.169,398.94 L226.169,435.173 C226.169,436.111 226.232,437.033 226.343,437.941 C112.322,436.523 19.997,343.346 19.997,228.995 C19.997,193.238 29.092,158.286 46.367,127.312 L80.104,161.209 C81.981,163.095 84.532,164.155 87.191,164.155 L150.081,164.155 L211.734,225.808 C213.687,227.761 216.246,228.737 218.804,228.737 C221.363,228.737 223.923,227.761 225.874,225.808 C229.779,221.903 229.779,215.572 225.874,211.666 L164.22,150.013 L164.22,87.123 C164.22,84.467 163.163,81.92 161.282,80.044 L127.451,46.296 C158.385,29.079 193.279,20.015 228.975,20.015 C310.091,20.015 384.555,67.588 418.684,141.214 C420.376,144.864 423.988,147.01 427.762,147.01 C429.17,147.01 430.6,146.711 431.961,146.08 C436.971,143.757 439.15,137.813 436.828,132.803 C418.709,93.715 390.007,60.592 353.822,37.016 C316.675,12.811 273.503,0.018 228.976,0.018 C187.954,0.018 147.888,10.947 112.778,31.659 L84.001,2.949 C81.138,0.094 76.84,-0.758 73.107,0.792 C69.373,2.341 66.941,5.985 66.941,10.027 L66.941,66.694 L10.099,66.694 C6.058,66.694 2.416,69.125 0.866,72.855 C-0.684,76.586 0.162,80.882 3.012,83.746 L31.745,112.615 C10.965,147.772 0,187.901 0,228.994 C0,290.156 23.818,347.658 67.066,390.906 C110.314,434.155 167.816,457.972 228.978,457.972 L479.581,457.983 C492.159,457.983 502.392,447.751 502.392,435.172 L502.392,327.648 C508.592,321.028 512,312.441 512,303.326 L512,242.004 L512,242.004 C512,236.483 507.523,232.006 502.001,232.006 Z M86.938,34.126 L144.224,91.27 L144.224,129.974 L86.938,72.559 L86.938,34.126 Z M72.791,86.693 L130.083,144.153 L91.347,144.153 L34.158,86.693 L72.791,86.693 L72.791,86.693 Z M321.784,213.082 L406.775,213.082 L406.775,232.006 L321.784,232.006 L321.784,213.082 Z M482.393,389.982 L416.775,389.982 C411.253,389.982 406.776,394.46 406.776,399.981 C406.776,405.502 411.253,409.98 416.775,409.98 L482.393,409.98 L482.393,435.171 C482.393,436.723 481.132,437.985 479.581,437.985 L261.237,437.985 C261.165,437.984 261.096,437.974 261.024,437.974 L248.872,437.974 C247.371,437.917 246.166,436.687 246.166,435.172 L246.166,338.446 C248.123,338.78 250.131,338.964 252.181,338.964 L334.645,338.964 C336.418,353.746 349.028,365.244 364.28,365.244 C379.555,365.244 392.181,353.71 393.923,338.895 L476.355,338.947 C476.363,338.947 476.37,338.947 476.378,338.947 C478.415,338.947 480.424,338.767 482.393,338.434 L482.393,389.982 L482.393,389.982 Z M354.423,335.388 L354.423,317.811 L374.139,317.811 L374.139,335.388 C374.139,340.824 369.716,345.246 364.281,345.246 C358.846,345.246 354.423,340.824 354.423,335.388 Z M492.002,303.326 C492.002,307.502 490.376,311.426 487.422,314.377 C484.471,317.326 480.55,318.95 476.378,318.95 C476.375,318.95 476.372,318.95 476.368,318.95 L394.136,318.898 L394.136,309.734 C394.136,303.161 388.789,297.813 382.215,297.813 L346.344,297.813 C339.771,297.813 334.423,303.16 334.423,309.734 L334.423,318.966 L252.181,318.966 C243.566,318.966 236.558,311.957 236.558,303.343 L236.558,252.004 L492.002,252.004 L492.002,303.326 L492.002,303.326 Z" id="Shape"></path>
            <path d="M374.854,392.912 C372.994,391.052 370.414,389.982 367.785,389.982 C365.145,389.982 362.576,391.051 360.706,392.912 C358.846,394.772 357.786,397.352 357.786,399.981 C357.786,402.611 358.846,405.19 360.706,407.049 C362.576,408.909 365.146,409.98 367.785,409.98 C370.415,409.98 372.985,408.91 374.854,407.049 C376.714,405.19 377.784,402.61 377.784,399.981 C377.784,397.352 376.714,394.772 374.854,392.912 Z" id="Path"></path>
        </g>
    </g>
</svg>