<?xml version="1.0" encoding="UTF-8"?>
<svg width="512px" height="480px" viewBox="0 0 512 480" version="1.1" xmlns="http://www.w3.org/2000/svg" xmlns:xlink="http://www.w3.org/1999/xlink">
    <!-- Generator: Sketch 58 (84663) - https://sketch.com -->
    <title>002-rating</title>
    <desc>Created with Sketch.</desc>
    <g id="Page-1" stroke="none" stroke-width="1" fill="none" fill-rule="evenodd">
        <g id="002-rating" fill="#8D99FF" fill-rule="nonzero">
            <path d="M266,390 C266,395.523438 261.523438,400 256,400 C250.476562,400 246,395.523438 246,390 C246,384.476562 250.476562,380 256,380 C261.523438,380 266,384.476562 266,390 Z" id="Path"></path>
            <path d="M479,300 C479,266.914062 452.085938,240 419,240 C385.914062,240 359,266.914062 359,300 C359,333.085938 385.914062,360 419,360 C452.085938,360 479,333.085938 479,300 Z M419,340 C396.945312,340 379,322.054688 379,300 C379,277.945312 396.945312,260 419,260 C441.054688,260 459,277.945312 459,300 C459,322.054688 441.054688,340 419,340 Z" id="Shape"></path>
            <path d="M419,360 C393.800781,360 368.671875,370.460938 351.554688,387.421875 C329.023438,357.8125 294.28125,340 256,340 C219.339844,340 183.816406,356.726562 160.449219,387.421875 C143.328125,370.464844 118.203125,360 93,360 C42.589844,360 0,401.214844 0,450 L0,470 C0,475.523438 4.476562,480 10,480 L502,480 C507.523438,480 512,475.523438 512,470 L512,450 C512,401.214844 469.410156,360 419,360 Z M20,450 C20,412.054688 53.429688,380 93,380 C114.652344,380 136.125,389.59375 149.417969,404.84375 C140.628906,421.820312 136,440.742188 136,460 L20,460 L20,450 Z M256,360 C311.644531,360 356,405.148438 356,460 L156,460 C156,404.417969 201.261719,360 256,360 Z M492,460 L376,460 C376,440.742188 371.371094,421.820312 362.582031,404.84375 C375.875,389.59375 397.347656,380 419,380 C458.570312,380 492,412.054688 492,450 L492,460 Z" id="Shape"></path>
            <path d="M153,300 C153,266.914062 126.085938,240 93,240 C59.914062,240 33,266.914062 33,300 C33,333.085938 59.914062,360 93,360 C126.085938,360 153,333.085938 153,300 Z M93,340 C70.945312,340 53,322.054688 53,300 C53,277.945312 70.945312,260 93,260 C115.054688,260 133,277.945312 133,300 C133,322.054688 115.054688,340 93,340 Z" id="Shape"></path>
            <path d="M336,260 C336,215.886719 300.113281,180 256,180 C211.886719,180 176,215.886719 176,260 C176,304.113281 211.886719,340 256,340 C300.113281,340 336,304.113281 336,260 Z M256,320 C222.914062,320 196,293.085938 196,260 C196,226.914062 222.914062,200 256,200 C289.085938,200 316,226.914062 316,260 C316,293.085938 289.085938,320 256,320 Z" id="Shape"></path>
            <path d="M335.140625,58.160156 C333.964844,54.539062 330.835938,51.902344 327.066406,51.355469 L283.933594,45.09375 L264.621094,5.609375 C262.945312,2.175781 259.460938,0 255.640625,0 C251.820312,0 248.335938,2.175781 246.65625,5.605469 L227.347656,45.09375 L184.214844,51.351562 C180.445312,51.898438 177.316406,54.539062 176.140625,58.160156 C174.964844,61.78125 175.945312,65.753906 178.671875,68.410156 L209.90625,98.851562 L202.535156,141.839844 C201.890625,145.589844 203.433594,149.382812 206.515625,151.617188 C209.578125,153.84375 213.65625,154.160156 217.046875,152.378906 L255.640625,132.085938 L294.25,152.378906 C297.617188,154.152344 301.699219,153.855469 304.78125,151.617188 C307.859375,149.378906 309.402344,145.589844 308.757812,141.835938 L301.378906,98.851562 L332.609375,68.410156 C335.335938,65.753906 336.316406,61.78125 335.140625,58.160156 Z M283.648438,88.199219 C281.292969,90.496094 280.214844,93.808594 280.773438,97.050781 L285.613281,125.25 L260.292969,111.9375 C257.378906,110.40625 253.898438,110.40625 250.984375,111.9375 L225.671875,125.25 L230.507812,97.050781 C231.0625,93.804688 229.984375,90.496094 227.628906,88.199219 L207.144531,68.234375 L235.445312,64.125 C238.71875,63.652344 241.542969,61.589844 242.992188,58.621094 L255.640625,32.761719 L268.285156,58.621094 C269.738281,61.59375 272.5625,63.652344 275.832031,64.125 L304.136719,68.234375 L283.648438,88.199219 Z" id="Shape"></path>
            <path d="M484.609375,133.109375 C483.433594,129.488281 480.304688,126.851562 476.535156,126.304688 L447.3125,122.058594 L434.246094,95.574219 C432.5625,92.160156 429.089844,90 425.28125,90 C425.28125,90 425.28125,90 425.277344,90 C421.472656,90 417.996094,92.160156 416.3125,95.574219 L403.238281,122.058594 L374.011719,126.304688 C370.246094,126.851562 367.117188,129.488281 365.941406,133.109375 C364.761719,136.730469 365.742188,140.703125 368.46875,143.359375 L389.613281,163.980469 L384.621094,193.082031 C383.980469,196.832031 385.519531,200.621094 388.601562,202.859375 C391.679688,205.097656 395.761719,205.394531 399.128906,203.625 L425.277344,189.886719 L451.417969,203.625 C454.785156,205.394531 458.871094,205.097656 461.949219,202.859375 C465.027344,200.625 466.566406,196.832031 465.925781,193.082031 L460.933594,163.980469 L482.082031,143.359375 C484.808594,140.703125 485.785156,136.730469 484.609375,133.109375 L484.609375,133.109375 Z M443.210938,153.332031 C440.851562,155.628906 439.777344,158.9375 440.335938,162.179688 L442.789062,176.492188 L429.933594,169.738281 C427.019531,168.207031 423.539062,168.207031 420.628906,169.738281 L407.761719,176.496094 L410.21875,162.179688 C410.773438,158.9375 409.699219,155.628906 407.34375,153.332031 L396.9375,143.183594 L411.316406,141.097656 C414.574219,140.625 417.390625,138.578125 418.847656,135.628906 L425.277344,122.601562 L431.703125,135.625 C433.160156,138.578125 435.976562,140.625 439.234375,141.097656 L453.613281,143.183594 L443.210938,153.332031 Z" id="Shape"></path>
            <path d="M144.609375,133.109375 C143.433594,129.488281 140.304688,126.851562 136.535156,126.304688 L107.3125,122.058594 L94.246094,95.574219 C92.5625,92.160156 89.089844,90 85.28125,90 C81.472656,90 77.996094,92.160156 76.3125,95.574219 L63.238281,122.058594 L34.011719,126.304688 C30.246094,126.851562 27.117188,129.488281 25.941406,133.109375 C24.761719,136.730469 25.742188,140.703125 28.46875,143.359375 L49.613281,163.980469 L44.625,193.082031 C43.980469,196.832031 45.523438,200.621094 48.601562,202.859375 C51.679688,205.097656 55.761719,205.394531 59.132812,203.625 L85.277344,189.886719 L111.417969,203.625 C114.808594,205.40625 118.886719,205.085938 121.949219,202.859375 C125.027344,200.625 126.570312,196.832031 125.925781,193.082031 L120.933594,163.980469 L142.082031,143.359375 C144.808594,140.703125 145.785156,136.730469 144.609375,133.109375 Z M103.207031,153.332031 C100.851562,155.628906 99.777344,158.9375 100.332031,162.179688 L102.789062,176.492188 L89.929688,169.738281 C87.019531,168.207031 83.539062,168.207031 80.628906,169.738281 L67.757812,176.496094 L70.214844,162.179688 C70.773438,158.9375 69.695312,155.628906 67.339844,153.332031 L56.933594,143.183594 L71.316406,141.097656 C74.570312,140.625 77.386719,138.578125 78.84375,135.628906 L85.273438,122.601562 L91.699219,135.625 C93.15625,138.578125 95.972656,140.625 99.230469,141.097656 L113.609375,143.183594 L103.207031,153.332031 Z" id="Shape"></path>
            <path d="M299.820312,393.09375 C295.203125,390.058594 289.003906,391.34375 285.972656,395.960938 C282.9375,400.574219 284.222656,406.773438 288.839844,409.808594 C298.085938,415.882812 305.476562,424.351562 310.210938,434.296875 C312.578125,439.277344 318.539062,441.40625 323.535156,439.027344 C328.523438,436.65625 330.640625,430.6875 328.269531,425.703125 C321.964844,412.453125 312.125,401.175781 299.820312,393.09375 L299.820312,393.09375 Z" id="Path"></path>
        </g>
    </g>
</svg>