<?xml version="1.0" encoding="UTF-8"?>
<svg width="400px" height="260px" viewBox="0 0 400 260" version="1.1" xmlns="http://www.w3.org/2000/svg" xmlns:xlink="http://www.w3.org/1999/xlink">
    <!-- Generator: Sketch 58 (84663) - https://sketch.com -->
    <title>Group</title>
    <desc>Created with Sketch.</desc>
    <g id="Page-1" stroke="none" stroke-width="1" fill="none" fill-rule="evenodd">
        <g id="Group">
            <rect id="Rectangle" fill="#F7F8F9" x="0" y="0" width="400" height="260"></rect>
            <g id="roku" transform="translate(54.000000, 85.000000)" fill="#CDCFD2" fill-rule="nonzero">
                <path d="M46.3060929,30.0587503 C46.3060929,21.694197 39.5865002,14.9580495 31.3697733,14.9580495 L23.962682,14.9580495 L23.962682,45.0259366 L31.3697733,45.0259366 C39.5865002,45.0259366 46.3060929,38.2850734 46.3060929,30.0587503 M80,90 L52.8096651,90 L31.2229147,59.9993122 L23.962682,59.9993122 L23.962682,89.9351585 L0,89.9351585 L0,0 L34.3278421,0 C54.1175606,0 70.2705408,13.4770107 70.2705408,30.0587503 C70.2705408,40.1716662 64.0780499,49.2043817 54.653786,54.7312353 L80,90" id="Shape"></path>
                <path d="M106.468533,35.313971 C100.189636,35.313971 94.8486891,43.8859029 94.8486891,54.4967738 C94.8486891,65.1076447 100.189636,73.6904283 106.468533,73.6904283 C112.893146,73.6904283 118.225333,65.1073515 118.225333,54.4967738 C118.225333,43.8856096 112.893146,35.313971 106.468533,35.313971 M143.064969,54.4967738 C143.064969,74.7676756 126.651706,91 106.468533,91 C86.2920777,91 70,74.7676756 70,54.4967738 C70,34.241123 86.2920777,18 106.468533,18 C126.651706,18 143.064969,34.241123 143.064969,54.4967738 M198.860196,19.4843312 L171.471272,46.9883047 L171.471272,19.3934119 L147.699824,19.3934119 L147.699824,89.5256406 L171.471272,89.5256406 L171.471272,61.0772794 L200.065341,89.5256406 L229.985738,89.5256406 L193.649488,53.0262272 L223.746262,22.8093386 L223.746262,64.4286828 C223.746262,78.2469526 232.020204,90.9994134 252.856612,90.9994134 C262.748315,90.9994134 271.825588,85.364762 276.237344,80.2665346 L286.925955,89.5253473 L292,89.5253473 L292,19.4843312 L268.22826,19.4843312 L268.22826,64.8322472 C265.551363,69.5248572 261.82146,72.4753357 256.056801,72.4753357 C250.208041,72.4753357 247.524426,68.9928325 247.524426,57.854043 L247.524426,19.4843312 L198.860196,19.4843312 Z" id="Shape"></path>
            </g>
        </g>
    </g>
</svg>