<?xml version="1.0" encoding="UTF-8"?>
<svg width="448px" height="512px" viewBox="0 0 448 512" version="1.1" xmlns="http://www.w3.org/2000/svg" xmlns:xlink="http://www.w3.org/1999/xlink">
    <!-- Generator: Sketch 58 (84663) - https://sketch.com -->
    <title>001-award</title>
    <desc>Created with Sketch.</desc>
    <g id="Page-1" stroke="none" stroke-width="1" fill="none" fill-rule="evenodd">
        <g id="001-award" fill="#8D99FF" fill-rule="nonzero">
            <path d="M233.609375,81.984375 C233.609375,87.503906 229.132812,91.984375 223.609375,91.984375 C218.085938,91.984375 213.609375,87.503906 213.609375,81.984375 C213.609375,76.460938 218.085938,71.980469 223.609375,71.980469 C229.132812,71.980469 233.609375,76.460938 233.609375,81.984375 Z" id="Path"></path>
            <path d="M343.613281,191.988281 C343.613281,141.128906 311.800781,97.308594 266.539062,79.917969 C261.382812,77.9375 255.597656,80.511719 253.613281,85.664062 C251.636719,90.820312 254.207031,96.605469 259.363281,98.589844 C297.792969,113.355469 323.613281,150.886719 323.613281,191.988281 C323.613281,247.132812 278.753906,291.992188 223.609375,291.992188 C168.46875,291.992188 123.605469,247.132812 123.605469,191.988281 C123.605469,150.886719 149.425781,113.355469 187.855469,98.589844 C193.011719,96.605469 195.582031,90.820312 193.605469,85.664062 C191.621094,80.511719 185.835938,77.9375 180.683594,79.917969 C135.421875,97.308594 103.605469,141.125 103.605469,191.988281 C103.605469,258.15625 157.4375,311.992188 223.609375,311.992188 C289.78125,311.992188 343.613281,258.15625 343.613281,191.988281 L343.613281,191.988281 Z" id="Path"></path>
            <path d="M363.585938,303.949219 C366.261719,303.226562 368.933594,302.507812 371.507812,301.816406 C387.425781,297.527344 396.921875,281.082031 392.675781,265.148438 C390.480469,256.921875 387.992188,247.59375 386.136719,240.542969 C385.230469,237.105469 386.210938,233.535156 388.757812,230.988281 L406.558594,213.1875 C418.242188,201.5 418.257812,182.492188 406.601562,170.816406 C400.582031,164.78125 393.78125,157.945312 388.636719,152.765625 C386.136719,150.25 385.203125,146.671875 386.136719,143.191406 L392.644531,118.890625 C396.9375,102.878906 387.453125,86.433594 371.433594,82.144531 L347.125,75.628906 C343.648438,74.699219 341.015625,72.097656 340.082031,68.675781 C338.164062,61.628906 335.65625,52.320312 333.4375,44.089844 C329.148438,28.167969 312.703125,18.675781 296.773438,22.917969 C288.542969,25.113281 279.214844,27.601562 272.167969,29.457031 C268.730469,30.363281 265.15625,29.382812 262.664062,26.890625 L244.816406,8.785156 C233.136719,-2.90625 214.125,-2.929688 202.433594,8.734375 C196.574219,14.582031 189.273438,22.109375 184.386719,26.957031 C181.875,29.457031 178.296875,30.398438 174.8125,29.460938 L150.507812,22.953125 C134.511719,18.660156 118.074219,28.097656 113.78125,44.097656 C111.5625,52.332031 109.042969,61.648438 107.136719,68.671875 C106.203125,72.097656 103.570312,74.699219 100.085938,75.632812 L75.785156,82.144531 C59.773438,86.433594 50.28125,102.871094 54.574219,118.890625 L61.085938,143.191406 C62.015625,146.671875 61.082031,150.25 58.574219,152.773438 C53.441406,157.949219 46.636719,164.78125 40.628906,170.808594 C28.960938,182.492188 28.976562,201.503906 40.664062,213.1875 L58.464844,230.988281 C61.007812,233.535156 61.988281,237.105469 61.085938,240.542969 C59.808594,245.382812 58.398438,250.691406 54.554688,265.136719 C50.277344,281.128906 59.761719,297.539062 75.773438,301.820312 L83.640625,303.929688 L1.332031,447.011719 C-0.582031,450.339844 -0.421875,454.472656 1.746094,457.644531 C3.914062,460.816406 7.710938,462.464844 11.507812,461.882812 L66.902344,453.449219 L87.289062,505.636719 C88.691406,509.222656 92.023438,511.683594 95.859375,511.972656 C96.109375,511.992188 96.359375,512 96.609375,512 C100.164062,512 103.480469,510.101562 105.273438,506.984375 L188.949219,361.542969 C193.242188,365.8125 198.054688,370.605469 202.445312,374.980469 C214.105469,386.625 233.09375,386.648438 244.769531,374.988281 C249.164062,370.609375 253.976562,365.816406 258.273438,361.542969 L341.949219,506.984375 C343.742188,510.101562 347.054688,512 350.613281,512 C350.863281,512 351.113281,511.992188 351.363281,511.972656 C355.199219,511.683594 358.53125,509.222656 359.929688,505.640625 L380.320312,453.449219 L435.714844,461.882812 C439.511719,462.472656 443.304688,460.816406 445.472656,457.644531 C447.644531,454.472656 447.804688,450.339844 445.886719,447.011719 L363.585938,303.949219 Z M98.332031,478.941406 L82.617188,438.71875 C80.917969,434.363281 76.421875,431.765625 71.796875,432.46875 L29.023438,438.984375 L103.304688,309.855469 C105.15625,311.152344 106.519531,313.039062 107.132812,315.289062 C109.042969,322.324219 111.5625,331.640625 113.777344,339.863281 C118.066406,355.855469 134.492188,365.324219 150.503906,361.023438 L169.023438,356.0625 L98.332031,478.941406 Z M230.640625,360.828125 C226.765625,364.703125 220.453125,364.703125 216.570312,360.820312 C210.523438,354.796875 203.667969,347.96875 198.484375,342.828125 C191.207031,335.597656 180.28125,332.332031 169.640625,335.195312 L145.324219,341.703125 C140.058594,343.117188 134.539062,340.074219 133.089844,334.671875 C130.871094,326.425781 128.347656,317.097656 126.433594,310.042969 C123.648438,299.824219 115.535156,291.769531 105.261719,289.023438 L80.945312,282.5 C75.628906,281.078125 72.445312,275.648438 73.878906,270.289062 C76.652344,259.863281 78.910156,251.375 80.421875,245.632812 C83.117188,235.394531 80.121094,224.363281 72.601562,216.847656 L54.800781,199.046875 C50.910156,195.152344 50.898438,188.828125 54.785156,184.9375 C60.808594,178.890625 67.625,172.042969 72.765625,166.867188 C80.230469,159.359375 83.15625,148.304688 80.402344,138.019531 L73.890625,113.714844 C72.460938,108.378906 75.621094,102.894531 80.960938,101.464844 L105.257812,94.953125 C115.535156,92.207031 123.648438,84.152344 126.4375,73.921875 C128.347656,66.875 130.871094,57.550781 133.09375,49.292969 C134.515625,43.988281 139.964844,40.835938 145.328125,42.269531 L169.640625,48.78125 C179.925781,51.539062 190.976562,48.613281 198.484375,41.148438 C203.59375,36.078125 210.726562,28.71875 216.5625,22.890625 C220.449219,19.015625 226.777344,19.023438 230.617188,22.871094 L248.46875,40.980469 C255.988281,48.5 267.015625,51.496094 277.261719,48.800781 C284.328125,46.9375 293.683594,44.445312 301.929688,42.242188 C307.230469,40.832031 312.699219,43.992188 314.128906,49.292969 C316.351562,57.539062 318.863281,66.871094 320.785156,73.933594 C323.570312,84.152344 331.683594,92.207031 341.957031,94.953125 L366.257812,101.464844 C371.59375,102.894531 374.761719,108.375 373.328125,113.71875 L366.816406,138.019531 C364.058594,148.300781 366.988281,159.355469 374.449219,166.859375 C379.59375,172.046875 386.410156,178.890625 392.441406,184.945312 C396.320312,188.828125 396.308594,195.152344 392.414062,199.046875 L374.613281,216.847656 C367.097656,224.367188 364.101562,235.394531 366.796875,245.636719 C368.65625,252.707031 371.152344,262.0625 373.355469,270.304688 C374.765625,275.605469 371.601562,281.078125 366.316406,282.503906 C353.8125,285.855469 342.140625,289.039062 341.726562,289.152344 C331.375,291.960938 323.527344,299.820312 320.734375,310.164062 C318.863281,317.054688 316.007812,327.679688 314.125,334.671875 C312.714844,339.933594 307.296875,343.152344 301.890625,341.703125 L277.589844,335.199219 C266.855469,332.308594 255.949219,335.660156 248.738281,342.824219 C243.550781,347.96875 236.695312,354.796875 230.640625,360.828125 L230.640625,360.828125 Z M375.421875,432.46875 C370.796875,431.769531 366.300781,434.363281 364.601562,438.71875 L348.886719,478.941406 L278.195312,356.0625 L296.710938,361.023438 C312.699219,365.316406 329.144531,355.871094 333.441406,339.863281 C335.503906,332.195312 338.113281,322.480469 340.039062,315.390625 C340.660156,313.085938 342.050781,311.171875 343.925781,309.878906 L418.195312,438.984375 L375.421875,432.46875 Z" id="Shape"></path>
            <path d="M157.035156,170.355469 C155.859375,173.976562 156.839844,177.949219 159.566406,180.609375 L184.332031,204.75 L178.480469,238.835938 C177.835938,242.589844 179.378906,246.382812 182.460938,248.621094 C185.503906,250.832031 189.582031,251.171875 192.992188,249.382812 L223.609375,233.285156 L254.226562,249.382812 C257.597656,251.152344 261.679688,250.855469 264.757812,248.621094 C267.835938,246.382812 269.378906,242.589844 268.734375,238.835938 L262.886719,204.746094 L287.652344,180.609375 C290.378906,177.949219 291.359375,173.976562 290.179688,170.355469 C289.003906,166.734375 285.875,164.097656 282.109375,163.550781 L247.882812,158.574219 L232.578125,127.558594 C230.890625,124.144531 227.414062,121.984375 223.609375,121.984375 C219.800781,121.984375 216.324219,124.144531 214.640625,127.558594 L199.335938,158.574219 L165.109375,163.550781 C161.339844,164.097656 158.210938,166.734375 157.035156,170.355469 L157.035156,170.355469 Z M207.417969,177.613281 C210.671875,177.140625 213.492188,175.09375 214.945312,172.140625 L223.609375,154.585938 L232.269531,172.140625 C233.726562,175.09375 236.542969,177.140625 239.800781,177.613281 L259.179688,180.429688 L245.160156,194.09375 C242.804688,196.394531 241.726562,199.703125 242.285156,202.949219 L245.597656,222.25 L228.261719,213.136719 C226.804688,212.371094 225.207031,211.988281 223.609375,211.988281 C222.011719,211.988281 220.414062,212.371094 218.957031,213.136719 L201.621094,222.25 L204.933594,202.949219 C205.492188,199.703125 204.417969,196.394531 202.058594,194.09375 L188.039062,180.429688 L207.417969,177.613281 Z" id="Shape"></path>
        </g>
    </g>
</svg>