<?xml version="1.0" encoding="UTF-8"?>
<svg width="400px" height="260px" viewBox="0 0 400 260" version="1.1" xmlns="http://www.w3.org/2000/svg" xmlns:xlink="http://www.w3.org/1999/xlink">
    <!-- Generator: Sketch 58 (84663) - https://sketch.com -->
    <title>Group</title>
    <desc>Created with Sketch.</desc>
    <g id="Page-1" stroke="none" stroke-width="1" fill="none" fill-rule="evenodd">
        <g id="Group">
            <rect id="Rectangle" fill="#F7F8F9" x="0" y="0" width="400" height="260"></rect>
            <g id="slack" transform="translate(54.000000, 86.000000)" fill="#CDCFD2" fill-rule="nonzero">
                <path d="M103.60408,34.6016416 C103.60408,25.8435497 109.941937,19.7280162 121.459659,19.7280162 C128.487382,19.7280162 134.238031,21.98876 137.353577,24.2034023 C137.799408,24.5196109 138.594867,25.2867861 138.117944,26.7135667 C137.506685,28.2502814 136.385651,30.561264 135.581393,32.062516 C135.11327,32.9372613 133.917736,32.8220077 133.305302,32.5093454 C131.086115,31.3763137 127.446129,29.4595577 124.102388,29.1061133 C123.255677,29.0132341 122.403853,28.9761165 121.552345,28.994997 C118.607506,29.0611939 116.147217,30.0913839 115.280777,32.3550829 C115.110986,32.7833959 115.016306,33.2381633 115.000959,33.6991172 C114.920005,36.6821169 119.040433,37.7607724 124.031994,38.6248789 C133.311756,40.2266084 140.33244,42.967871 140.33244,52.5912514 C140.33244,60.7636185 133.886058,68.1493058 121.255515,67.9229359 C112.929012,67.7533062 107.021736,64.9186586 103.856328,62.1679392 C103.748389,62.0745543 102.543469,60.83809 103.189339,59.351023 C103.928482,57.4366311 105.176225,55.2426753 106.155296,54.0777274 C106.699681,53.3294655 108.136316,53.2106656 108.883085,53.6769995 C111.492377,55.3106454 115.786445,57.9301529 120.736355,58.1039199 C121.127045,58.1175139 121.514215,58.1198781 121.894346,58.1098304 C126.346801,58.0010782 129.040567,56.3000532 128.984251,53.4346714 C128.936147,50.9103219 125.405861,49.4356668 119.784269,48.3682412 C110.818349,46.6666251 103.605254,43.6889449 103.605254,34.6016416 M185.058205,47.0720815 C178.735602,47.1554186 172.93861,48.8966346 172.771422,53.8749992 C172.769663,57.8255381 175.950324,59.765936 180.414511,59.511787 C184.696847,59.0962829 187.962568,57.2250373 189.40155,54.7420609 C189.933615,53.8218052 190.014569,50.3783822 189.982305,48.9066823 C189.974092,48.593429 189.359313,48.0006117 189.090054,47.8865403 C187.746691,47.3161826 186.752368,47.1400515 185.05762,47.0708994 M164.020207,27.012044 C166.976778,24.346435 172.838885,20.1973053 182.181415,20.4159916 C194.510435,20.6742778 201.023691,26.4978356 201.630257,40.4287455 C201.880158,46.1736944 201.466004,62.1980825 201.367451,66.1905856 C201.352786,66.7633073 201.160373,67.1593069 200.394246,67.174083 C198.36395,67.2562381 193.673326,67.2237307 191.518079,67.1953605 C190.430483,67.1421666 190.30436,66.598406 190.290281,66.0292305 C190.280895,65.6568727 190.249218,64.5528023 190.22634,63.6526421 C190.214021,63.1750784 189.768775,63.1886725 189.65497,63.3110186 C186.762928,66.4222749 182.026548,67.924709 176.989817,67.924709 C169.334409,67.924709 161.702466,63.3872633 161.725823,54.4016195 C161.749396,45.1990626 168.225695,40.6598437 175.340238,39.5894629 C179.895939,38.9062159 185.031221,39.5138092 188.919934,41.0706195 C189.168661,41.1710969 189.676676,41.0257001 189.680782,40.6704825 C189.696621,39.497851 189.640305,37.2631132 189.416802,36.2039622 C188.846019,33.5052547 186.611579,31.3337586 181.917436,30.748625 C180.950684,30.6286429 179.97748,30.5890429 179.003102,30.6670608 C175.271603,30.9625829 170.781017,33.8941617 168.921428,34.9917307 C168.483808,35.2494259 167.798635,35.0608828 167.576892,34.7730444 C166.491642,33.3604489 163.763853,29.2290504 163.54915,28.5688542 C163.334446,27.910431 163.637144,27.3560317 164.019033,27.0096798 L164.020207,27.012044 L164.020207,27.012044 Z M205.695543,44.1428668 C205.622215,31.3083437 214.497795,20.4810064 228.909908,20.3858484 C237.902811,20.326744 244.436013,24.4345005 245.588137,26.3719433 C245.822199,26.8270472 245.701942,27.2070886 245.540034,27.6651478 C244.778599,29.2846086 242.855655,32.4135962 241.485308,34.1867286 C240.901619,34.942083 240.268068,34.2948896 239.531858,33.8013678 C237.488657,32.4301454 233.606397,30.7533533 229.785733,30.7533533 C222.854216,30.7545353 217.692535,35.5431747 217.750024,44.3532784 C217.803992,52.8075736 222.748037,57.4537714 229.809784,57.6222189 C233.501391,57.7156039 237.078022,55.5777973 239.002139,53.8265337 C239.60636,53.2951849 240.231698,53.5611548 240.922151,54.1049154 C242.277246,55.5003706 244.220722,57.6547263 245.298346,59.1376561 C246.004051,59.9615716 245.476093,60.7677558 245.222085,61.0916479 C242.298365,64.8193632 236.651548,67.9566254 229.17858,67.9991805 C213.531044,68.1097058 205.76887,57.0246734 205.696716,44.1446399 M280.388271,67.4205483 C281.122722,67.3649902 288.960569,66.2751048 291.366302,65.7201144 C291.963483,65.5829922 292.17584,65.0770584 291.842053,64.575853 C290.49869,62.5462075 286.966643,56.7823453 283.267409,51.6225301 C279.865005,46.878219 276.278989,42.7054475 275.119239,41.1001716 C274.836488,40.7100825 274.851739,40.3259038 275.159716,40.0232893 C277.365998,37.8482469 286.594725,28.7313913 290.064589,24.9664403 C291.407952,23.501833 290.601349,22.8717799 289.46037,22.5295653 C287.256433,21.867596 283.691536,21.0424983 281.664173,20.6116272 C280.809465,20.4295856 279.779945,20.4934184 279.03259,21.2676862 C275.563311,24.5272946 264.975384,35.2340588 261.814668,38.4345626 C261.245646,39.0120127 260.914205,38.8837562 260.911272,38.0586586 C260.88546,31.8881579 260.764616,5.46966791 260.545807,1.12431154 C260.530555,0.549816653 259.844794,0.113626092 259.458211,0.0929395475 C257.470738,-0.0116752615 252.449846,-0.0418185117 250.471173,0.0752082241 C249.916816,0.138449945 249.387096,0.707625432 249.338994,1.18873535 C248.882602,8.13705001 249.532579,59.1429755 249.803598,66.2780601 C249.822956,66.7940416 250.20426,67.1941784 250.690568,67.2231396 C252.664549,67.3383932 257.546999,67.3307097 259.826609,67.2875635 C260.948228,67.2875635 261.085498,66.4932002 261.085498,66.4932002 L261.254445,52.8063915 C261.254445,52.8063915 261.370009,52.197616 261.557142,51.996661 C262.360813,51.1248709 264.584108,48.7240497 265.532087,47.7961105 C265.759697,47.5732868 266.118709,47.5892451 266.351011,47.9042715 C267.477324,49.4350758 270.689075,54.4116673 273.666179,58.8563191 C276.401593,62.9392518 278.955156,66.5629433 279.133489,66.8188655 C279.545297,67.4099095 280.026326,67.4335513 280.388858,67.4223215 L280.388858,67.4205483 L280.388271,67.4205483 Z M147.088556,67.3732648 C147.777837,67.3963156 153.007566,67.3903627 155.324719,67.3874499 C156.104926,67.4028171 156.510281,66.8076356 156.536093,66.2821974 C157.028268,56.2781846 156.817671,8.64830318 156.506762,1.12726676 C156.48095,0.477118225 156.204652,0.233017004 155.764099,0.173912592 C153.775453,-0.0944214383 148.123943,-0.0317707616 146.312456,0.445792887 C145.958138,0.538586814 145.7493,0.809876065 145.738154,1.15859209 C145.294669,20.5448392 145.593846,65.2395955 145.687705,66.0859708 C145.780978,66.933528 146.220944,67.3437126 147.08973,67.3732648 L147.088556,67.3732648 L147.088556,67.3732648 Z" id="Shape"></path>
                <path d="M7.351411,47 C4.1288185,47.0240434 1.39894128,45.1138166 0.392394377,42.1323691 C0.355053998,42.0197707 0.320242442,41.906358 0.287985665,41.7922157 C-0.808892376,37.9740959 1.3179952,33.9797731 5.13008632,32.700843 L66.2737051,12.3248957 C66.9997032,12.1159819 67.7510201,12.0068368 68.506761,12 C71.8149921,11.9748236 74.6199498,13.927059 75.6511324,16.9715194 L75.7426367,17.2655801 C76.88644,21.2423993 74.0445287,24.7921305 70.6395143,25.9298649 C70.637168,25.9316153 70.0177545,26.1399081 9.83493059,46.5788685 C9.03498817,46.8501178 8.1965239,46.9921408 7.351411,47 Z" id="Path"></path>
                <path d="M17.3622094,77.9988095 C14.1232691,78.0226199 11.3914919,76.1011203 10.3993947,73.1027952 C10.3617354,72.9887365 10.3266285,72.8738217 10.2941013,72.7581396 C9.18501147,68.8163272 11.3037475,64.6983178 15.1182912,63.3917219 L76.0971748,42.4129701 C76.88512,42.1451031 77.6988036,42.0081933 78.5171668,42 C81.7648814,41.975454 84.618331,43.9945763 85.6250523,47.0268312 L85.7186464,47.3423191 C86.3077041,49.4382298 85.9596512,51.7936741 84.7885553,53.6526714 C83.9157904,55.0348654 81.1629545,56.251577 81.1629545,56.251577 L19.9524256,77.5493881 C19.117607,77.8369784 18.2435025,77.9890436 17.3622094,78 L17.3622094,77.9988095 Z" id="Path"></path>
                <path d="M68.4473737,78 C65.1427687,78.0306725 62.1934009,75.9556867 61.1412884,72.8592134 L40.4004715,11.9653479 L40.2967377,11.6235786 C39.1729538,7.74037196 41.3340765,3.68981622 45.2074047,2.39934238 C45.9824281,2.14183688 46.783683,2.00748617 47.5903034,2 C48.7886088,1.99157622 49.9481628,2.25850985 51.0403496,2.79178785 C52.8574495,3.67997849 54.24121,5.24768298 54.8850615,7.14757897 L75.6240899,68.0361411 L75.6843032,68.2317745 C76.8492229,72.2634741 74.6928695,76.3163869 70.8195413,77.6068607 C70.0544523,77.8595016 69.253996,77.9919271 68.4473737,78 L68.4473737,78 Z" id="Path"></path>
                <path d="M38.4285944,88 C35.1241429,88.0304508 32.1752193,85.953513 31.124081,82.8547213 L10.4015463,21.9587373 C9.75306084,20.0613335 9.8943325,17.9867118 10.7942021,16.1924555 C11.6940717,14.3981993 13.2786128,13.0317108 15.1983356,12.3943858 C15.9640818,12.141198 16.7652381,12.0083664 17.5726004,12 C20.8757022,11.968479 23.8240499,14.043854 24.8753261,17.1412036 L45.5984567,78.0395447 C46.2472529,79.9378655 46.1055172,82.0135337 45.2045394,83.8083256 C44.3035614,85.6031174 42.7174323,86.9694398 40.7963053,87.6056641 C40.0320471,87.858986 39.2322102,87.9916334 38.4262112,87.9987277 L38.4285944,87.9987277 L38.4285944,88 Z" id="Path"></path>
                <polygon id="Path" points="58.6933822 64 73 59.0513127 68.3231314 45 54 49.896778"></polygon>
                <polygon id="Path" points="28.7185001 74 43 69.0795677 38.2956306 55 24 59.8711864"></polygon>
                <polygon id="Path" points="48.659262 34 63 29.013087 58.3673387 15 44 19.9026237"></polygon>
                <polygon id="Path" points="18.7019666 44 33 39.0595825 28.3245549 25 14 29.8563177"></polygon>
            </g>
        </g>
    </g>
</svg>