<?xml version="1.0" encoding="UTF-8"?>
<svg width="400px" height="260px" viewBox="0 0 400 260" version="1.1" xmlns="http://www.w3.org/2000/svg" xmlns:xlink="http://www.w3.org/1999/xlink">
    <!-- Generator: Sketch 58 (84663) - https://sketch.com -->
    <title>Group</title>
    <desc>Created with Sketch.</desc>
    <g id="Page-1" stroke="none" stroke-width="1" fill="none" fill-rule="evenodd">
        <g id="Group">
            <rect id="Rectangle" fill="#F7F8F9" x="0" y="0" width="400" height="260"></rect>
            <g id="tinder-1" transform="translate(58.000000, 77.000000)" fill="#CDCFD2" fill-rule="nonzero" stroke="#CDCFD2" stroke-width="0.5">
                <path d="M42.8021097,0 C43.5027304,0.330605872 43.9464568,1.01543232 44.5069532,1.55857054 C45.4177601,2.36147051 46.0952602,3.42413224 46.982713,4.25064692 C48.0803519,5.31330865 48.7809725,6.65934684 49.6917792,7.86369681 C51.2798527,10.2960114 52.6810939,12.893629 53.4050685,15.7273936 C54.1523972,17.6637994 54.2691672,19.7655082 54.2224592,21.8436022 C54.2691672,23.7327786 53.7553788,25.5983403 52.9144006,27.2985991 C51.4666848,29.8726019 48.8510346,31.5964754 46.1183807,32.517449 C42.7086937,33.3439636 38.9486965,33.4856518 35.6557796,32.0215401 C34.464491,31.3603284 33.1101914,30.911649 32.1526765,29.8726019 C29.9340446,28.030655 28.6495736,25.0315875 29.0699459,22.1269787 C29.7238585,16.9553582 32.7832351,12.5157937 36.0527979,8.69021149 C36.3564002,9.2569644 36.0992725,9.91817616 36.3096922,10.5085438 C36.5899404,11.7601232 37.0336668,13.0825467 37.9678276,13.9799054 C39.1121746,12.9172437 40.3268172,11.8545819 41.3076861,10.6266173 C42.1951388,9.30419382 42.9188799,7.8400821 43.2224822,6.28151157 C43.2927777,4.29787634 43.4796099,2.21978228 42.7320477,0.330605872 L42.8021097,0 L42.8021097,0 Z M0.0175448176,23.5910904 C5.48238554,23.6383198 10.9705803,23.543861 16.4356545,23.6383198 C16.4356545,29.1405461 16.482129,34.6427725 16.412067,40.1449987 C20.2890679,40.2158428 24.1656017,40.1686134 28.0657231,40.1686134 C28.1124311,40.5936781 28.1357851,41.0187428 28.1357851,41.4438074 C28.0890771,45.9778309 28.1591391,50.4882396 28.0890771,55.0222629 C24.1889557,55.0694923 20.3121883,55.0222629 16.412067,55.0458776 C16.482129,63.1929509 16.3887129,71.3164094 16.458775,79.4634827 C16.5988992,80.1719239 16.6923152,80.8803651 16.6689612,81.6124209 C16.5986656,82.2738687 16.9956839,82.817007 17.1360416,83.4307532 C17.4396439,84.8476355 18.2103265,86.1228295 19.0975457,87.2329569 C20.4056044,88.5553804 22.0868604,89.4763538 23.8851199,89.8775677 C25.5199013,90.1375656 27.1546828,90.2790177 28.8130517,90.1609442 C28.9062343,90.4443206 28.9531758,90.7276971 28.9531758,91.0346882 C28.9298218,95.2853352 28.9298218,99.5359821 28.9531758,103.763014 C28.9531758,104.353382 28.8364057,104.94375 28.7429897,105.510266 C26.3842336,105.510266 24.0257111,105.675569 21.6667215,105.510266 C20.2654803,105.203275 18.7710566,105.344963 17.4162898,104.730981 C13.6562927,103.833622 10.0597735,101.944446 7.37406117,99.0870666 C3.42723176,95.2381058 1.30201593,89.8067236 0.437917181,84.4225708 C0.204376979,83.8322032 0.3445011,83.1473767 0.25085148,82.5097796 C-0.0758712631,81.2109709 0.0640193175,79.8410818 0.0173112775,78.5188945 C-0.00580920249,60.2174981 -0.00580920249,41.8924869 0.0175448176,23.5910904 Z M79.7948777,38.8934193 C80.775513,38.6336576 81.8264439,38.8225752 82.8073128,38.6100429 C84.8624666,38.3502811 86.8942664,38.680887 88.9260661,38.7517311 C90.3506613,38.7281164 91.7285485,39.1531811 93.1297897,39.4365576 C98.3377363,40.7117516 103.265434,43.5219015 106.8386,47.6308603 C107.469158,48.693522 108.426673,49.4728073 109.033644,50.5590837 C110.551655,52.9913982 111.556112,55.7070894 112.419977,58.4463952 C112.957353,60.4536451 113.237368,62.5317392 113.494495,64.5862186 C113.611266,69.1438566 113.541203,73.7251094 113.564557,78.2827475 C113.541203,87.374409 113.587911,96.4660704 113.541203,105.557732 C108.076363,105.486888 102.634876,105.534117 97.1933892,105.510502 C97.1466812,105.486888 97.0299111,105.392429 96.9832031,105.3452 C96.9598491,92.6171096 96.9832031,79.8885474 96.9832031,67.1838361 C97.0065571,65.6252656 96.7263088,64.1139244 96.3993525,62.626198 C95.8155021,61.1148569 95.0681734,59.6743598 94.0405966,58.4463952 C93.4331584,57.7143394 92.5926473,57.2420452 91.9151472,56.6044481 C90.8642162,55.8960071 89.6264532,55.5654012 88.4356317,55.2347953 C87.8050731,55.1875659 87.1745146,55.2347953 86.5906641,55.0222629 C84.091784,54.85696 81.5461958,55.0694923 79.2107937,56.0376953 C77.5057168,56.8642099 75.9176433,57.9977157 74.796884,59.5799011 C72.9519163,61.7996833 72.3447118,64.8223655 72.3914198,67.6561302 C72.3914198,80.2663827 72.4147739,92.9002499 72.3914198,105.510502 C66.8796376,105.557732 61.3683223,105.486888 55.8567735,105.557732 C55.7633574,93.3961588 55.8567735,81.2109709 55.8100655,69.0493978 C55.8334195,67.4905911 55.7867115,65.9322567 55.9034816,64.37345 C56.2070838,63.5941647 55.9966641,62.7442716 56.2302043,61.9883648 C56.6505767,59.1073708 57.7248616,56.368065 58.9159166,53.7468327 C60.0836177,51.4562064 61.4848589,49.2600387 63.3064725,47.4417064 C64.7313012,45.9775947 66.202371,44.4426389 68.000864,43.4272065 C71.4808466,40.9715134 75.5911541,39.483787 79.7948777,38.8934193 Z M275.501566,38.7517311 C277.533133,38.7045017 279.541812,38.3030517 281.573612,38.6336576 C282.671017,38.7753458 283.792244,38.7517311 284.889649,38.7989605 C285.099836,40.8534399 284.936358,42.931534 284.983066,44.9860132 L284.983066,53.25116 C284.983066,53.7706836 285.053127,54.3138218 284.842942,54.8097305 C284.305565,54.4085167 283.581824,54.5499689 282.97462,54.3846659 C280.49886,54.1723697 277.953505,54.2904433 275.618104,55.2350314 C272.838975,56.2032343 270.409923,58.2577137 269.05539,60.9261753 C268.658372,61.4220841 268.658372,62.1305253 268.214645,62.6028195 C267.490437,65.2476664 267.443963,68.0105869 267.490437,70.726278 C267.467083,82.344713 267.560733,93.9395332 267.443963,105.557968 C262.002242,105.487124 256.537636,105.557968 251.072561,105.510739 C251.025853,105.463509 250.955791,105.36905 250.909083,105.321821 L250.909083,67.4202193 C250.839021,65.8380341 251.189331,64.3030781 251.16621,62.7445076 C251.539875,61.9888371 251.446459,61.115093 251.679999,60.3358077 C252.8477,54.3612874 255.953785,48.7173728 260.671297,44.8681759 C261.58187,43.8291289 262.889929,43.33322 263.964213,42.5067054 C267.44443,40.357531 271.484676,39.318484 275.501566,38.7517311 Z M33.4371477,40.1449987 C38.9486965,40.2394575 44.4602452,40.121384 49.971794,40.1922281 C49.971794,61.7996833 49.9484399,83.3832876 49.971794,104.967364 C49.971794,105.179897 49.971794,105.604961 49.6448378,105.534117 L33.4840893,105.534117 C33.3437316,101.968297 33.4605017,98.3788615 33.4137937,94.8130411 C33.4371477,76.6061034 33.4137937,58.375551 33.4371477,40.1449987 L33.4371477,40.1449987 Z M206.373667,83.9738914 C207.774908,83.4307532 209.129441,82.722312 210.553804,82.2266394 C212.608958,81.4237394 214.617403,80.4555365 216.672557,79.6526365 C220.922989,77.6692374 225.313544,76.0162081 229.610684,74.1504103 C230.638027,73.5836573 231.805728,73.3238956 232.80995,72.7099132 C233.954297,72.2612339 235.098879,71.8595477 236.219871,71.3400241 C237.20074,70.7496566 238.321733,70.5135095 239.325956,69.9942221 C240.657136,69.4508477 241.941607,68.8371016 243.296139,68.3411928 C244.674026,67.5616714 246.215392,67.1840722 247.59328,66.4281655 C247.966944,66.1684037 248.573914,66.2392478 248.807454,65.7905685 C248.410669,65.2240517 248.620623,64.5156105 248.410669,63.9013921 C248.106834,62.791737 247.803232,61.7052245 247.546571,60.6191842 C246.49564,57.3367402 244.977628,54.1959844 242.922475,51.4566786 C240.423595,47.7963994 236.990555,44.8445611 233.183849,42.6720083 C230.684969,41.1370524 227.882486,40.2633084 225.080003,39.5076379 C223.351807,39.2951055 221.693671,38.6811231 219.94212,38.7047378 C218.354046,38.4922055 216.719264,38.3977467 215.154545,38.6811231 C212.375416,38.7283525 209.713059,39.413179 207.074054,40.1924643 C202.473312,41.8218789 198.10611,44.301423 194.579654,47.7255551 C193.528722,48.7173728 192.664624,49.8744933 191.660401,50.8899257 C190.095682,52.9207903 188.670853,55.0697285 187.596801,57.3839696 C186.07879,60.8553313 184.63084,64.4919958 184.467363,68.3411928 C183.953808,70.1831398 184.117053,72.1195456 184.093698,74.0087219 C184.046991,75.213072 184.233822,76.3938072 184.467363,77.5509277 C184.3973,78.7786563 184.864381,79.9123983 185.02786,81.0931335 C185.424878,83.5962923 186.522516,85.9102973 187.526739,88.2245383 C190.282513,93.939297 194.626128,98.8983851 200.067848,102.1336 C203.641013,104.353382 207.611197,105.935567 211.768213,106.525935 C215.154545,107.069309 218.634295,107.163532 222.043981,106.715089 C223.211682,106.809311 224.332675,106.289788 225.500376,106.218944 C230.474782,105.038208 235.355773,102.912885 239.115769,99.3470644 C240.236996,98.4497057 241.287927,97.387044 242.17538,96.2533019 C243.669804,94.7183461 244.744323,92.8530205 245.818608,91.0110735 C246.846184,89.0508169 247.686929,86.9727228 248.294366,84.8240208 C247.96741,84.6820964 247.593746,84.729562 247.26679,84.729562 C241.801949,84.7534128 236.360463,84.7059473 230.895622,84.729562 C230.381833,84.729562 230.381833,85.4380032 230.054644,85.7213796 C229.120483,87.0910325 227.929428,88.248153 226.66831,89.3344294 C224.846697,90.6570892 222.698127,91.3655303 220.572911,92.0028912 C220.012415,92.0739715 219.475273,92.0501206 218.961484,92.262889 C217.653659,92.3571118 216.32248,92.3101184 214.991301,92.2865037 C213.519998,92.0031273 212.048694,91.6725214 210.624099,91.2002273 C208.429054,90.0667215 206.280251,88.7679127 204.622349,86.9257296 C204.201743,86.4064422 203.52471,86.0049922 203.384353,85.3199296 C203.758251,85.1546267 204.10856,84.8948649 204.5287,84.8240208 C205.205967,84.7059473 205.719521,84.1628091 206.373667,83.9738914 Z M199.647475,72.0248506 C199.320753,71.1983359 199.624122,70.230133 199.577413,69.356389 C199.951312,68.1518028 200.068081,66.8768449 200.511575,65.6722588 C201.632567,63.0037972 203.010455,60.382801 205.018901,58.2808562 C205.953061,57.5015708 206.747098,56.5569827 207.821383,55.966615 C208.615419,55.5415503 209.386102,55.0692562 210.203493,54.691421 C211.721504,54.2429777 213.192807,53.5345365 214.781114,53.5345365 C216.22883,53.1803159 217.723721,53.3692336 219.194791,53.3926121 C223.048205,53.9359865 226.925205,55.6123944 229.423851,58.7059208 C229.680979,59.3201393 228.816647,59.3673687 228.466337,59.6035158 C226.948326,60.4536451 225.243481,60.8784737 223.72547,61.7524539 C223.048205,61.8705274 222.464354,62.2955921 221.810441,62.5081245 C216.976159,64.6334479 212.04846,66.4987734 207.260886,68.7187919 C204.692178,69.7342242 202.146589,70.8205007 199.647475,72.0248506 Z M182.248731,11.2878291 C177.134434,11.2405996 172.01967,11.2878291 166.905373,11.2642143 C166.531476,11.3114437 166.087982,11.1461408 165.784147,11.4295173 C165.830855,22.5284287 165.784147,33.6509548 165.807734,44.7498663 C165.784147,45.1513162 165.877796,45.5527662 165.714318,45.9306015 C165.247237,45.8597574 165.013697,45.4110779 164.663387,45.1513162 C162.304631,43.0968369 159.66586,41.3493487 156.72302,40.3339163 C154.737928,39.5546311 152.659654,39.1531811 150.557793,38.7753458 C148.175682,38.7281164 145.770219,38.6572723 143.364521,38.7989605 C143.107626,38.8698046 142.874086,38.9406487 142.617425,38.9642635 C137.269355,39.7199341 132.271361,42.2467075 128.161288,45.7180691 C125.872594,47.890622 123.583899,50.1576337 121.972471,52.8969395 C120.080796,55.6126306 118.866388,58.7297716 117.698686,61.7996833 C117.161543,63.7360891 116.624168,65.6488803 116.390627,67.6325155 C115.946901,70.6788125 116.133733,73.7959535 116.180441,76.8658652 C116.297211,77.6687652 116.554106,78.4244357 116.577459,79.2273357 C116.997832,81.8249533 117.745161,84.3753415 118.772504,86.807656 C119.636602,89.1455119 121.037844,91.2708353 122.322315,93.3961588 C123.233121,94.576894 124.120575,95.8048586 125.218213,96.8439057 C126.852995,98.4733204 128.464189,100.244423 130.519343,101.377929 C132.948161,103.243491 135.820705,104.353618 138.623187,105.439658 C139.650765,105.628576 140.608279,106.218944 141.65921,106.242558 C142.546663,106.313402 143.364053,106.738467 144.25174,106.691002 C144.71882,106.643772 145.139193,106.974378 145.629393,106.927149 C147.894734,106.997993 150.183428,106.997993 152.448768,106.927149 C152.822431,106.927149 153.196096,106.761846 153.593115,106.738231 C155.1576,106.761846 156.60555,106.147863 158.123561,105.935331 C160.108653,105.203275 162.234102,104.730981 164.078836,103.644941 C166.811257,102.369747 169.286782,100.575029 171.505414,98.5439283 C174.307897,96.0882351 176.573237,93.0183235 178.254726,89.6647992 C178.978701,88.1770728 179.796091,86.7365758 180.263171,85.1307758 C181.150858,82.9109936 181.547643,80.549523 181.851479,78.2116672 C182.365034,76.1571879 182.201789,74.0082497 182.248731,71.8829262 C182.248731,51.6925895 182.248731,31.5020167 182.248731,11.2878291 L182.248731,11.2878291 Z M165.644256,75.2364505 C165.504131,77.7398454 164.569971,80.1246945 163.472332,82.3680915 C161.627365,85.8866826 158.52128,88.5787589 154.994823,90.2790177 C154.457446,90.5623942 153.756826,90.5390155 153.383395,91.0583029 C152.729483,91.0583029 152.07557,91.0821538 151.445012,91.3183008 C149.436332,91.3655303 147.358058,91.5544479 145.396321,90.987695 C144.555576,90.5862449 143.621415,90.4211783 142.78067,89.9722627 C141.729739,89.381895 140.538685,88.980445 139.674585,88.0830863 C138.039804,86.9259657 136.778921,85.3437805 135.63434,83.7143658 C134.723533,82.1321806 133.812726,80.5027659 133.392354,78.7080483 C132.925274,77.7634601 132.971748,76.7007984 132.715087,75.7089808 C132.645025,73.1824435 132.504901,70.584826 133.088752,68.1286604 C133.34588,67.3493752 133.509358,66.5228605 133.789372,65.7435751 C134.466639,64.4917596 134.887012,63.0987282 135.774464,61.9652224 C136.241544,60.9734047 137.058935,60.2411128 137.713081,59.3912195 C139.464633,57.3603549 141.870098,56.0615462 144.298681,55.0461138 C145.209488,54.8338176 146.096941,54.3615235 147.05469,54.3615235 C148.993073,53.8653786 151.001285,54.2670646 152.916549,54.6212852 C155.438783,55.5422588 157.937662,56.8174528 159.8994,58.7066293 C160.623376,59.3914556 161.160284,60.2415851 161.884492,60.9264115 C164.873573,64.9876685 166.251227,70.2065183 165.644256,75.2364505 Z" id="Shape"></path>
            </g>
        </g>
    </g>
</svg>