<?xml version="1.0" encoding="UTF-8"?>
<svg width="400px" height="260px" viewBox="0 0 400 260" version="1.1" xmlns="http://www.w3.org/2000/svg" xmlns:xlink="http://www.w3.org/1999/xlink">
    <!-- Generator: Sketch 58 (84663) - https://sketch.com -->
    <title>Group</title>
    <desc>Created with Sketch.</desc>
    <g id="Page-1" stroke="none" stroke-width="1" fill="none" fill-rule="evenodd">
        <g id="Group">
            <rect id="Rectangle" fill="#F7F8F9" x="0" y="0" width="400" height="260"></rect>
            <g id="viber-3" transform="translate(54.000000, 62.000000)" fill-rule="nonzero">
                <path d="M149.537569,114.936066 C129.257822,115.164333 107.152693,114.707798 85.0475634,113.338193 C82.7686841,113.109926 81.4013565,114.251263 80.0340289,115.620868 C74.3368306,122.01464 68.6396323,128.40613 62.7145461,134.795337 C61.8029944,135.708407 60.8914427,137.534547 59.2962271,136.849744 C57.7010116,136.162659 58.3846754,134.336519 58.3846754,132.969197 C58.3846754,127.719044 58.1567875,122.240625 58.3846754,116.990473 C58.6125633,112.881658 57.7010116,110.827251 52.9153651,110.827251 C47.2181668,110.598983 41.2930806,109.914181 35.5958823,108.772844 C15.9975202,104.207494 2.78002014,93.4812047 0.956916693,71.1087085 C0.0453649675,61.2932066 -0.638298827,51.7059723 0.956916693,41.8904704 C4.14734773,21.8029317 15.7696322,10.3895574 35.8237702,6.96554514 C64.9934254,2.17192795 94.3909686,0.574055556 123.788512,0.117520585 C154.553382,-0.339014385 185.318253,0.574055556 216.083123,2.17192795 C230.89584,2.85673041 245.708556,4.91113778 260.293383,7.87861509 C277.838475,11.5308948 289.686368,24.9986765 291.286142,43.2600753 C292.197694,53.7603796 292.425581,64.2606839 290.828086,74.7609883 C288.781653,88.6853049 281.031184,98.4985241 268.271739,104.205211 C257.105231,109.001111 245.2505,110.598983 233.402606,111.509771 C205.828167,113.566461 178.709503,115.164333 149.537569,114.936066 Z" id="Path" fill="#CDCFD2"></path>
                <path d="M74.8244953,85.0083398 C78.9146327,85.0083398 83.6864597,81.1022277 85.0498388,77.1961157 C86.413218,73.5197749 83.6864597,71.9113758 81.4141611,70.0732054 C79.8235522,68.6945776 78.0057133,67.5457211 76.4151043,66.3968646 C73.0066565,63.8693803 69.8254385,63.8693803 67.3259101,67.7754924 C65.962531,70.0732054 63.9174622,70.0732054 61.8723935,69.1541202 C56.1916472,66.3968646 51.64705,62.4907525 48.9202918,56.5166988 C47.7841425,53.9892145 47.7841425,51.4617302 50.5109008,49.6235598 C51.8742799,48.7044746 53.4648889,47.5556181 53.237659,45.2579051 C53.0104292,42.5006496 46.4207634,33.0800263 43.6940051,32.1609411 C42.5578558,31.7013985 41.4217065,31.7013985 40.2855573,32.1609411 C34.1503511,34.2288828 31.4235929,39.5136227 33.9231213,45.4876764 C41.1944767,63.8693803 54.3738083,76.5068018 72.0977371,84.3190259 C73.2338863,84.7785685 74.3700356,84.7785685 74.8244953,85.0083398 Z M61.6451637,31.0120846 C60.7362443,31.2418559 58.6911756,30.3227707 58.6911756,32.3907124 C58.6911756,33.7693402 60.2817846,33.5395689 61.4179338,33.7693402 C74.3700356,35.8372819 80.5052417,42.041107 82.0958507,55.3678423 C82.3230806,56.5166988 81.8686209,58.3548692 83.4592298,58.5846405 C85.2770687,58.5846405 84.822609,56.7464701 84.822609,55.5976136 C85.0498388,42.9601922 74.1428058,31.4716272 61.6451637,31.0120846 L61.6451637,31.0120846 Z M155.945553,58.1250979 L155.945553,38.5945375 C155.945553,34.6884254 157.311206,31.4716272 161.6263,31.4716272 C165.716438,31.4716272 166.852587,34.4586541 166.852587,38.3647662 L166.852587,40.8922505 C166.852587,46.8663042 166.852587,46.8663042 172.306104,45.2579051 C179.804689,42.9601922 187.076044,45.947219 190.711722,52.840358 C195.02909,61.1121248 195.485821,69.3838915 190.711722,77.6556583 C185.939895,85.927425 176.850701,88.4549093 168.672698,83.3999407 C167.307046,82.4808555 166.852587,82.0213129 165.716438,83.629712 C164.125829,85.927425 161.6263,86.1571963 159.126771,85.0083398 C156.624971,83.8594833 155.945553,81.5617703 155.945553,78.8045147 L155.945553,58.1250979 L155.945553,58.1250979 Z M182.985907,65.2480081 C182.985907,59.0441831 179.577459,54.4487571 175.032862,54.2189858 C170.261035,53.9892145 166.625357,58.3548692 166.625357,64.5586942 C166.625357,70.5350457 170.033804,75.3579453 174.578401,75.5877166 C179.350229,76.0472592 182.985907,71.4518332 182.985907,65.2480081 Z M115.04418,65.4777794 C118.679858,55.8273849 121.633846,47.7853894 124.587833,39.5136227 C125.042294,38.1349949 125.496753,36.7563671 126.178443,35.3777393 C127.541822,32.1609411 129.81412,30.3227707 133.449798,31.7013985 C137.312706,33.0800263 137.767166,36.0670532 136.631016,39.743394 C132.995338,49.3937885 129.13243,59.0441831 125.496754,68.9243489 C123.906144,73.0602323 122.315536,77.1961157 120.724926,81.1022277 C119.816007,83.3999407 118.225398,85.2381111 115.49864,85.4678824 C112.317422,85.4678824 110.726813,83.6274143 109.817893,80.8724564 C104.591606,67.3159498 99.1380899,53.5296719 93.9118032,39.9731653 C92.5484241,36.2968245 93.2301136,33.0800263 97.320251,31.7013985 C101.410388,30.3227707 103.228227,32.850255 104.591606,36.2968245 C107.772824,45.4876764 111.181272,54.6785284 115.04418,65.4777794 L115.04418,65.4777794 Z M219.115453,68.6945776 L209.34457,68.6945776 C206.845042,68.6945776 206.617812,69.8434341 207.753962,71.6816045 C209.79903,75.5877166 215.707006,77.1961157 220.706063,75.3579453 C222.523902,74.6686314 224.114511,73.7495462 225.93235,72.830461 C228.43415,71.4495355 230.706449,71.6816045 232.297058,74.2090888 C234.114897,76.9663444 232.978747,79.2640573 230.706449,80.8724564 C223.432821,85.927425 215.479777,87.5358241 207.299502,84.0892546 C199.346456,80.6426851 195.938009,73.7495462 195.938009,65.2480081 C195.710779,54.2189858 203.209364,45.4876764 212.980248,44.33882 C222.976089,43.4197348 231.840326,50.3128737 233.658165,60.6525822 C234.794314,66.3968646 233.203705,68.4648063 227.295729,68.6945776 L219.115454,68.6945776 L219.115453,68.6945776 Z M214.343627,61.3418961 C215.252546,61.3418961 216.388696,61.5716673 217.297615,61.3418961 C219.115453,61.1121248 221.842213,62.4907525 222.296672,60.4228109 C222.978361,57.6655553 220.706063,55.5976136 218.433764,54.4487571 C215.254818,52.840358 212.298559,53.0701293 209.574073,55.5976136 C208.208421,56.9762414 206.617812,58.5846405 207.301774,60.6525822 C207.983463,62.4907525 210.026259,61.3418961 211.616868,61.5716673 C212.525788,61.5716673 213.434707,61.3418961 214.343627,61.3418961 L214.343627,61.3418961 Z" id="Shape" fill="#FFFFFF"></path>
                <path d="M74.8856981,84.5421463 C74.2035452,84.3120805 73.2940081,84.3120805 72.1570867,83.8587824 C54.1937286,76.1139925 41.2328246,63.5856558 33.9565276,45.3626206 C31.4553006,39.2123462 33.9565276,34.2010115 40.3232875,32.15092 C41.4602089,31.6953441 42.5971303,31.6953441 43.7340517,32.15092 C46.4626631,33.0620718 53.0568072,42.4013773 53.2841915,45.1348326 C53.5115757,47.1849241 51.9198858,48.3238638 50.5555801,49.4628035 C47.8269687,51.285107 47.8269687,53.5629864 48.9638901,56.2964417 C51.6925015,62.2189281 56.0128028,66.3191111 61.9247941,68.8247784 C63.9712526,69.7359302 66.0177111,69.7359302 67.3820168,67.4580508 C69.8832439,63.5856558 73.0666238,63.8134437 76.477388,66.0913231 C78.2964623,67.2302628 79.8881522,68.3692025 81.4798422,69.7359302 C83.753685,71.5582337 86.4822964,72.9226835 85.1179907,76.7973563 C83.753685,80.6720291 78.9786151,84.5421463 74.8856981,84.5421463 L74.8856981,84.5421463 Z M237.465458,64.2690196 L237.465458,50.6017432 C237.465458,48.0960758 238.374995,46.2737723 240.648839,45.1348326 C243.150065,43.9958929 245.651292,44.2236809 247.242982,46.2737723 C248.607288,48.3238638 249.287167,47.412712 250.424089,46.2737723 C252.015778,44.9070447 254.064511,44.2236809 256.338354,44.4514688 C258.839581,44.9070447 260.431271,46.2737723 260.886039,48.7794397 C261.338534,51.285107 260.431271,53.3351985 258.382538,53.7907743 C249.059783,56.0686537 247.695477,62.4467161 248.605014,70.6448041 C248.832398,73.6083251 248.832398,76.5695684 248.37763,79.3030236 C247.922861,82.7198427 245.874129,84.7676564 242.463365,84.5421463 C239.282258,84.3120805 237.688295,82.0342011 237.46091,78.8474478 C237.465458,74.291689 237.465458,69.2803543 237.465458,64.2690196 L237.465458,64.2690196 Z M140.599756,66.0913231 L140.599756,53.1074105 C140.599756,49.4628035 142.191445,47.1849241 146.056978,47.1849241 C149.695127,47.1849241 151.286816,49.4628035 151.286816,52.8796226 L151.286816,79.0752357 C151.286816,82.7221206 149.467742,85 145.829593,85 C142.191445,84.7699342 140.599756,82.4920548 140.599756,78.8497256 L140.599756,66.0913231 L140.599756,66.0913231 Z M61.6974098,31.0119803 C74.2035452,31.4675562 85.1179907,42.8569532 84.8906064,55.3852899 C84.8906064,56.5242296 85.345375,58.3465331 83.5263007,58.3465331 C81.7072265,58.3465331 82.161995,56.5242296 82.161995,55.157502 C80.5703051,41.9458015 74.4309295,35.7955271 61.4700255,33.7454356 C60.3331041,33.5176477 58.7414142,33.7454356 58.7414142,32.378708 C58.9687985,30.3286165 60.7878727,31.2397683 61.6974098,31.0119803 L61.6974098,31.0119803 Z M152.196353,37.6178306 C151.743858,41.0346497 150.152169,43.3125291 146.511746,43.540317 C143.100982,43.768105 140.372371,41.0346497 140.372371,37.6178306 C140.372371,34.2010115 143.328366,31.2397683 146.511746,31.4675562 C149.695127,31.9231321 151.741585,33.9732235 152.196353,37.6178306 Z" id="Shape" fill="#FFFFFF"></path>
                <path d="M78,53.1815231 C77.7723983,54.1143677 78.4552035,55.7468459 76.8619913,55.9800571 C74.8135758,56.2132682 75.2687792,54.3475789 75.0411775,53.1815231 C73.6755671,45.0191323 70.9443463,41.9873872 62.750684,40.1216979 C61.6126754,39.8884867 59.7918615,40.1216979 60.0194633,38.2560085 C60.247065,36.3903192 62.0678788,37.0899527 63.2058875,37.3231639 C71.3995498,38.2560085 78,45.2523435 78,53.1815231 Z" id="Path" fill="#FFFFFF"></path>
                <path d="M72,51.729329 C72,52.6375974 72,53.7729329 70.6503306,54 C69.750551,54 69.3006611,53.3187987 69.0757162,52.4105303 C68.8507713,49.0045239 67.0512121,47.1879871 63.6770385,46.7338529 C62.7772589,46.5067858 61.6525344,46.2797187 62.1024242,44.9173161 C62.3273691,44.0090477 63.2271487,44.0090477 64.1269284,44.0090477 C67.9509917,43.7819806 72,47.8691884 72,51.729329 Z" id="Path" fill="#FFFFFF"></path>
            </g>
        </g>
    </g>
</svg>