<?xml version="1.0" encoding="UTF-8"?>
<svg width="400px" height="260px" viewBox="0 0 400 260" version="1.1" xmlns="http://www.w3.org/2000/svg" xmlns:xlink="http://www.w3.org/1999/xlink">
    <!-- Generator: Sketch 58 (84663) - https://sketch.com -->
    <title>Group</title>
    <desc>Created with Sketch.</desc>
    <g id="Page-1" stroke="none" stroke-width="1" fill="none" fill-rule="evenodd">
        <g id="Group">
            <rect id="Rectangle" fill="#F7F8F9" x="0" y="0" width="400" height="260"></rect>
            <g id="walmart" transform="translate(54.000000, 95.000000)" fill="#CDCFD2" fill-rule="nonzero">
                <path d="M256.991983,23.564777 C258.622725,23.564777 259.965002,22.7119751 260.146267,21.6101944 L261.756219,3.29619343 C261.756219,1.4860317 259.647949,0 256.99718,0 C254.349011,0 252.242689,1.4860317 252.242689,3.29652018 L253.851666,21.6101944 C254.02871,22.7116484 255.370986,23.564777 256.997506,23.564777 L256.991983,23.564777 M247.151329,29.2850842 C247.969299,27.8663617 247.907578,26.271851 247.045428,25.5634701 L232.079631,15.0040843 C230.523603,14.0976965 228.190537,15.1886946 226.866451,17.498448 C225.537819,19.8052606 225.773334,22.381637 227.325139,23.2883516 L243.896665,31.049175 C244.932609,31.4353863 246.345054,30.6920438 247.156526,29.2743015 L247.151329,29.2850842 M266.841407,29.2752818 C267.658079,30.693024 269.063376,31.4366933 270.100294,31.0501552 L286.671821,23.2893318 C288.233371,22.382944 288.455243,19.8062408 287.138955,17.4994282 C285.808372,15.1919621 283.471083,14.0986767 281.919279,15.0050645 L266.952506,25.5644503 C266.096853,26.271851 266.033184,27.8676687 266.846605,29.2860644 L266.841407,29.2752818 M256.991983,46.4417579 C258.622725,46.4417579 259.965002,47.2873713 260.146267,48.3901323 L261.756219,66.7015194 C261.756219,68.5172357 259.647949,70 256.99718,70 C254.349011,70 252.242689,68.5172357 252.242689,66.7015194 L253.851666,48.3901323 C254.02871,47.2873713 255.370986,46.4417579 256.997506,46.4417579 L256.991983,46.4417579 M266.841407,40.7201438 C267.658079,39.2984807 269.063376,38.5613462 270.100294,38.952132 L286.671821,46.7077275 C288.233371,47.6150955 288.455243,50.1940859 287.138955,52.502859 C285.808372,54.80281 283.471083,55.8990361 281.919279,54.9939552 L266.952506,44.4443719 C266.096853,43.7314165 266.033184,42.1346185 266.846605,40.717203 L266.840109,40.717203 M247.151329,40.7181833 C247.969299,42.1346185 247.907578,43.7314165 247.045428,44.4456788 L232.079631,54.9949354 C230.523603,55.9000164 228.190537,54.8037902 226.866451,52.5038392 C225.537819,50.1950661 225.773334,47.6160757 227.325139,46.7087077 L243.896665,38.9531122 C244.932609,38.5623264 246.345054,39.2994609 247.156526,40.7214508 L247.151329,40.7214508" id="Shape"></path>
                <path d="M162.134319,44.4978329 C162.134319,45.0555766 162.084817,45.6308309 161.932428,46.136043 C161.300226,48.2343915 159.132491,50.0087948 156.420557,50.0087948 C154.159317,50.0087948 152.363332,48.7214445 152.363332,46.0024438 C152.363332,41.841092 156.933371,40.6918806 162.135613,40.7207406 L162.134319,44.4975086 L162.134319,44.4978329 Z M170.294063,37.2458675 C170.294063,30.3839985 167.368591,24.3460984 157.483718,24.3460984 C152.409599,24.3460984 148.382464,25.774506 146.184315,27.0475885 L147.794264,32.5640629 C149.803139,31.2929262 153.004917,30.2406713 156.034893,30.2406713 C161.048834,30.2267277 161.869984,33.0864613 161.869984,34.9166389 L161.869984,35.3498632 C150.940392,35.3336497 144.031463,39.1266312 144.031463,46.8533273 C144.031463,51.5746927 147.550312,55.9967573 153.667209,55.9967573 C157.425803,55.9967573 160.573873,54.4931192 162.457862,52.0821746 L162.643898,52.0821746 C162.643898,52.0821746 163.890508,57.3165346 170.772583,55.3138455 C170.413451,53.1370237 170.295358,50.8133077 170.295358,48.0190766 L170.294388,37.2458675 M0,15.001297 C0,15.001297 7.14220308,44.3327796 8.28269077,49.0930574 C9.61309797,54.6494171 12.0108723,56.6949097 18.9207718,55.3138455 L23.3801595,37.1294547 C24.510941,32.6104335 25.2677071,29.3884908 25.996325,24.7961847 L26.1231537,24.7961847 C26.6346746,29.4371311 27.3603807,32.6243771 28.2908892,37.1443711 C28.2908892,37.1443711 30.1053162,45.4002753 31.0361482,49.7351113 C31.9679509,54.0686503 34.5614686,56.8015945 41.330627,55.3138455 L51.9570604,15 L43.3799458,15 L39.7504449,32.4304639 C38.7746404,37.5020405 37.8900748,41.4694791 37.2073999,46.1081558 L37.0860715,46.1081558 C36.4658403,41.510337 35.6760728,37.704709 34.6850618,32.7621917 L30.9093195,15 L21.9711315,15 L17.9300842,32.3143754 C16.7863612,37.5772711 15.7138174,41.8252029 15.0343779,46.3095272 L14.9107846,46.3095272 C14.2132267,42.0868884 13.2846595,36.7458438 12.2797362,31.6538382 C12.2797362,31.6538382 9.88066772,19.2690093 9.03686859,15 L0,15.001297 M68.1814281,44.4978329 C68.1814281,45.0555766 68.1319259,45.6308309 67.9772727,46.136043 C67.3463646,48.2343915 65.1773349,50.0087948 62.4654007,50.0087948 C60.2038379,50.0087948 58.4104413,48.7214445 58.4104413,46.0024438 C58.4104413,41.841092 62.9791864,40.6918806 68.1823987,40.7207406 L68.1814281,44.4975086 L68.1814281,44.4978329 Z M76.340202,37.2458675 C76.340202,30.3839985 73.4147297,24.3460984 63.5317972,24.3460984 C58.4563843,24.3460984 54.426014,25.774506 52.2291598,27.0475885 L53.8371665,32.5640629 C55.845719,31.2929262 59.0474967,30.2406713 62.0784438,30.2406713 C67.0959425,30.2267277 67.9170937,33.0864613 67.9170937,34.9166389 L67.9170937,35.3498632 C56.9829713,35.3336497 50.0772778,39.1266312 50.0772778,46.8533273 C50.0772778,51.5746927 53.594186,55.9967573 59.706553,55.9967573 C63.4703241,55.9967573 66.6164524,54.4931192 68.5027058,52.0821746 L68.686478,52.0821746 C68.686478,52.0821746 69.9366466,57.3165346 76.8171037,55.3138455 C76.4573244,53.1370237 76.340202,50.8133077 76.340202,48.0190766 L76.340202,37.2458675 M89.9568162,46.7563707 L89.9568162,15.001297 L81.7873654,15.001297 L81.7873654,55.3151426 L89.9568162,55.3151426 L89.9568162,46.7563707 M196.828117,15.001297 L196.828117,44.7400622 C196.828117,48.8420728 197.599765,51.7128316 199.244979,53.4697242 C200.686686,55.0057894 203.055341,56 205.896045,56 C208.312261,56 210.687711,55.5379158 211.808787,55.1212293 L211.703311,48.7246872 C210.869218,48.9289771 209.911532,49.0943545 208.600538,49.0943545 C205.816778,49.0943545 204.885945,47.3069805 204.885945,43.6261962 L204.885945,32.2475759 L212,32.2475759 L212,24.533202 L204.885945,24.533202 L204.885945,15.001297 L196.828117,15.001297 M175.74155,25.0299831 L175.74155,55.3151426 L184.168865,55.3151426 L184.168865,39.8085702 C184.168865,38.9703333 184.219338,38.2400781 184.351667,37.5720827 C184.975133,34.3222528 187.453469,32.2475759 191.013408,32.2475759 C191.989213,32.2475759 192.687742,32.3539363 193.444508,32.4615938 L193.444508,24.533202 C192.809393,24.4064126 192.378435,24.3470712 191.588344,24.3470712 C188.44351,24.3470712 184.865452,26.3808902 183.363891,30.7436134 L183.136117,30.7436134 L183.136117,25.0299831 L175.74155,25.0299831 M95.6770495,25.0299831 L95.6770495,55.3151426 L103.88759,55.3151426 L103.88759,37.5558693 C103.88759,36.7224964 103.9853,35.8411316 104.273253,35.0771524 C104.953663,33.2891298 106.614084,31.1949967 109.263574,31.1949967 C112.578268,31.1949967 114.126096,34.0021987 114.126096,38.0536231 L114.126096,55.3128727 L122.330166,55.3128727 L122.330166,37.3373115 C122.330166,36.5422024 122.438553,35.5836616 122.673122,34.8825907 C123.346737,32.8474746 125.13528,31.1927268 127.598734,31.1927268 C130.957429,31.1927268 132.569642,33.9506398 132.569642,38.7193486 L132.569642,55.3118998 L140.779213,55.3118998 L140.779213,37.473829 C140.779213,28.0677407 136.01343,24.3441528 130.632917,24.3441528 C128.25229,24.3441528 126.371213,24.9417817 124.670026,25.9865783 C123.241586,26.8685917 121.960357,28.1183268 120.842517,29.7610766 L120.721189,29.7610766 C119.423783,26.497303 116.371158,24.3457742 112.393202,24.3457742 C107.282846,24.3457742 104.986017,26.9422009 103.592843,29.1439915 L103.470544,29.1439915 L103.470544,25.0290102 L95.6770495,25.0290102" id="Shape"></path>
                <path d="M290.336188,53.4166142 L290.453349,53.4166142 C290.608748,53.4166142 290.708473,53.3505349 290.708473,53.25236 C290.708473,53.1406545 290.614867,53.0799244 290.47048,53.0799244 C290.420923,53.0799244 290.370143,53.0903084 290.336494,53.0903084 L290.336494,53.4194461 L290.336494,53.4162995 L290.336188,53.4166142 Z M290.318139,54.2089364 L289.905476,54.2089364 L289.905476,52.8259912 C289.999082,52.8071113 290.217497,52.7734424 290.497094,52.7734424 C290.800856,52.7734424 290.936983,52.8174953 291.036707,52.8867212 C291.120832,52.9471366 291.182013,53.0503461 291.182013,53.189742 C291.182013,53.3316552 291.055063,53.4518565 290.86785,53.5044053 L290.86785,53.5220264 C291.020495,53.5638767 291.103701,53.6777848 291.147445,53.8775959 C291.189048,54.0770925 291.214745,54.1585903 291.240746,54.2098804 L290.773325,54.2098804 C290.732639,54.1585903 290.708473,54.0361862 290.680942,53.9140969 C290.654634,53.7740718 290.590394,53.7039018 290.452431,53.7039018 L290.317222,53.7039018 L290.318139,54.2089364 L290.318139,54.2089364 Z M290.488835,52.3753934 C289.896298,52.3753934 289.449372,52.871932 289.449372,53.5050346 C289.449372,54.1217746 289.897522,54.6249213 290.505047,54.6249213 C291.11502,54.6353051 291.563168,54.1220893 291.563168,53.4949653 C291.563168,52.8706733 291.11502,52.3753934 290.498012,52.3753934 L290.488835,52.3753934 Z M290.515448,52 C291.341388,52 292,52.6689743 292,53.4946507 C292,54.3300818 291.341388,55 290.504129,55 C289.66687,55 289,54.3291378 289,53.4949653 C289,52.6689743 289.667788,52.0003147 290.504129,52.0003147 L290.513306,52.0003147" id="Shape"></path>
            </g>
        </g>
    </g>
</svg>